if (_typeface_js && _typeface_js.loadFace) _typeface_js.loadFace({"glyphs":{"ǻ":{"x_min":69,"x_max":722.203125,"ha":782,"o":"m 323 1166 q 355 1203 338 1182 q 387 1246 371 1224 q 418 1290 403 1268 q 443 1331 432 1311 l 592 1331 l 592 1320 q 554 1283 579 1305 q 498 1236 528 1261 q 435 1190 468 1212 q 375 1153 403 1167 l 323 1153 l 323 1166 m 203 200 q 231 103 203 135 q 316 71 258 71 q 392 84 358 71 q 451 123 427 98 q 488 184 475 148 q 501 263 501 219 l 501 375 l 412 371 q 313 357 353 368 q 249 324 273 345 q 214 271 225 302 q 203 200 203 240 m 372 688 q 307 677 331 688 q 268 646 282 666 q 249 598 254 625 q 245 538 245 570 q 157 557 187 538 q 127 625 127 577 q 146 686 127 661 q 200 727 166 711 q 280 750 234 743 q 377 758 325 758 q 488 745 441 758 q 568 704 536 732 q 616 630 600 675 q 632 518 632 584 l 632 157 q 636 109 632 128 q 651 79 641 90 q 678 63 661 67 q 718 58 695 58 l 722 58 l 722 0 l 534 0 l 512 118 l 501 118 q 459 65 479 89 q 414 23 438 40 q 358 -4 389 5 q 284 -14 328 -14 q 198 0 238 -14 q 130 39 159 12 q 85 109 101 67 q 69 207 69 150 q 147 371 69 318 q 385 429 226 425 l 501 434 l 501 517 q 497 586 501 554 q 479 640 492 618 q 440 676 465 663 q 372 688 414 688 m 555 961 q 542 896 555 924 q 506 848 529 867 q 453 819 484 829 q 388 810 423 810 q 323 819 353 810 q 270 848 292 829 q 234 896 247 867 q 222 961 222 924 q 234 1026 222 998 q 270 1073 247 1054 q 323 1102 292 1092 q 388 1112 353 1112 q 453 1102 423 1112 q 506 1073 484 1092 q 542 1026 529 1054 q 555 961 555 998 m 479 961 q 472 999 479 983 q 452 1024 464 1015 q 423 1039 440 1034 q 388 1044 407 1044 q 353 1039 369 1044 q 324 1024 337 1034 q 304 999 312 1015 q 297 961 297 983 q 304 922 297 938 q 324 897 312 906 q 353 882 337 887 q 388 877 369 877 q 423 882 407 877 q 452 897 440 887 q 472 922 464 906 q 479 961 479 938 "},"Á":{"x_min":0,"x_max":979,"ha":979,"o":"m 281 332 l 227 186 q 218 153 221 169 q 215 126 215 137 q 237 74 215 90 q 307 58 260 58 l 339 58 l 339 0 l 0 0 l 0 58 l 26 58 q 61 62 46 58 q 86 79 75 67 q 108 112 98 91 q 132 166 119 133 l 440 992 l 548 992 l 862 132 q 878 96 870 110 q 898 73 887 82 q 925 61 910 65 q 960 58 940 58 l 979 58 l 979 0 l 597 0 l 597 58 l 629 58 q 712 124 712 58 q 709 148 712 136 q 700 176 706 160 l 645 332 l 281 332 m 534 644 q 494 760 512 706 q 465 864 476 814 q 453 816 460 839 q 439 768 447 792 q 423 717 432 743 q 401 657 413 690 l 307 402 l 619 402 l 534 644 m 432 1089 q 464 1134 447 1108 q 496 1187 480 1160 q 527 1242 512 1215 q 552 1293 541 1269 l 701 1293 l 701 1278 q 663 1233 688 1260 q 607 1175 637 1205 q 544 1118 577 1146 q 484 1071 512 1089 l 432 1071 l 432 1089 "},"ĥ":{"x_min":25.203125,"x_max":843.234375,"ha":882,"o":"m 398 58 l 398 0 l 25 0 l 25 58 l 36 58 q 80 61 59 58 q 116 75 101 65 q 140 105 131 86 q 150 158 150 125 l 150 902 q 140 951 150 932 q 116 980 131 970 q 79 993 100 990 q 36 996 59 996 l 25 996 l 25 1055 l 280 1055 l 280 749 q 280 710 280 730 q 278 671 279 689 q 275 631 276 651 l 282 631 q 486 758 344 758 q 591 742 545 758 q 668 693 637 726 q 715 608 699 660 q 732 486 732 557 l 732 157 q 740 105 732 125 q 762 75 748 86 q 796 61 776 65 q 839 58 816 58 l 843 58 l 843 0 l 601 0 l 601 479 q 592 560 601 524 q 566 619 584 595 q 519 656 548 644 q 448 669 490 669 q 373 653 405 669 q 321 607 342 637 q 291 536 301 578 q 280 444 280 494 l 280 151 q 290 102 280 120 q 314 73 299 83 q 351 61 330 64 q 394 58 371 58 l 398 58 m 225 1127 q 260 1172 241 1146 q 300 1225 280 1198 q 336 1280 319 1253 q 364 1331 353 1307 l 495 1331 q 523 1280 506 1307 q 559 1225 540 1253 q 599 1172 579 1198 q 635 1127 618 1146 l 635 1109 l 580 1109 q 500 1166 540 1131 q 429 1233 460 1200 q 358 1166 397 1200 q 279 1109 318 1131 l 225 1109 l 225 1127 "},"Κ":{"x_min":52.421875,"x_max":989,"ha":973,"o":"m 612 771 q 649 817 634 797 q 673 853 664 837 q 685 882 681 869 q 689 904 689 894 q 672 928 689 922 q 620 935 655 935 l 620 992 l 928 992 l 928 935 q 882 925 904 935 q 838 900 860 916 q 792 859 815 883 q 741 804 769 835 l 540 578 l 833 169 q 910 86 873 114 q 986 58 947 58 l 989 58 l 989 0 l 974 0 q 859 5 904 0 q 783 25 814 10 q 730 63 753 39 q 682 124 707 87 l 442 468 l 324 372 l 324 158 q 333 105 324 125 q 357 75 342 86 q 394 61 373 65 q 438 58 415 58 l 456 58 l 456 0 l 52 0 l 52 58 l 70 58 q 113 61 93 58 q 150 73 134 64 q 174 102 165 83 q 184 151 184 120 l 184 839 q 174 888 184 869 q 150 917 165 907 q 113 930 134 927 q 70 933 93 933 l 52 933 l 52 992 l 456 992 l 456 933 l 438 933 q 394 930 415 933 q 357 916 373 926 q 333 886 342 905 q 324 833 324 866 l 324 441 l 612 771 "},"»":{"x_min":90,"x_max":622.75,"ha":714,"o":"m 622 352 l 410 111 l 341 111 l 481 375 l 341 639 l 410 639 l 622 397 l 622 352 m 371 352 l 159 111 l 90 111 l 230 375 l 90 639 l 159 639 l 371 397 l 371 352 "},"∆":{"x_min":43,"x_max":801,"ha":844,"o":"m 801 0 l 43 0 l 43 72 l 368 992 l 488 992 l 801 82 l 801 0 m 647 91 l 468 637 q 428 756 447 699 q 398 864 410 814 q 373 764 388 814 q 335 649 358 714 l 139 91 l 647 91 "},"ў":{"x_min":5,"x_max":785,"ha":785,"o":"m 785 745 l 785 686 l 780 686 q 746 682 760 686 q 719 665 731 677 q 697 632 707 653 q 675 578 687 611 l 463 -5 q 417 -123 439 -72 q 372 -210 396 -174 q 320 -270 348 -247 q 256 -308 292 -294 q 173 -328 220 -323 q 65 -334 126 -334 l 52 -334 l 52 -264 q 174 -244 123 -264 q 262 -187 225 -223 q 323 -101 299 -150 q 365 5 348 -52 l 108 612 q 89 648 98 634 q 69 671 80 662 q 44 683 58 679 q 9 686 29 686 l 5 686 l 5 745 l 338 745 l 338 686 l 334 686 q 271 670 292 686 q 251 619 251 654 q 253 596 251 607 q 262 568 255 584 l 364 320 q 384 269 373 297 q 403 213 394 240 q 420 161 412 185 q 430 119 427 137 l 434 119 q 455 193 442 149 q 486 287 468 237 l 579 558 q 588 590 585 575 q 591 618 591 606 q 568 670 591 654 q 500 686 546 686 l 496 686 l 496 745 l 785 745 m 659 1030 q 638 953 654 987 q 590 893 621 918 q 510 855 558 869 q 394 842 462 842 q 277 854 325 842 q 200 892 229 867 q 156 951 170 916 q 139 1030 142 986 l 254 1030 q 266 969 257 993 q 293 933 276 946 q 335 914 310 920 q 397 909 361 909 q 452 915 427 909 q 495 935 477 922 q 525 972 513 949 q 540 1030 536 995 l 659 1030 "},"ţ":{"x_min":26.203125,"x_max":457.546875,"ha":489,"o":"m 368 55 q 414 57 393 55 q 457 64 435 60 l 457 6 q 434 -1 448 2 q 403 -7 420 -5 q 368 -12 387 -10 q 334 -14 350 -14 q 243 -2 281 -14 q 180 33 204 8 q 143 100 155 58 q 132 201 132 141 l 132 665 l 26 665 l 26 721 q 81 731 51 721 q 134 765 111 741 q 173 826 158 791 q 198 916 187 862 l 262 916 l 262 745 l 444 745 l 444 665 l 262 665 l 262 193 q 291 88 262 122 q 368 55 320 55 m 181 -288 q 203 -188 192 -242 q 223 -85 214 -135 l 344 -85 l 344 -98 q 320 -147 334 -120 q 291 -202 307 -174 q 259 -258 275 -231 q 228 -307 242 -285 l 181 -307 l 181 -288 "},"«":{"x_min":91.25,"x_max":624,"ha":714,"o":"m 91 397 l 303 639 l 373 639 l 233 375 l 373 111 l 303 111 l 91 352 l 91 397 m 342 397 l 554 639 l 624 639 l 484 375 l 624 111 l 554 111 l 342 352 l 342 397 "},"í":{"x_min":31.75,"x_max":432,"ha":444,"o":"m 50 58 q 93 61 73 58 q 130 73 114 64 q 154 102 145 83 q 164 151 164 120 l 164 591 q 154 640 164 622 q 130 669 145 659 q 93 683 114 679 q 50 686 73 686 l 46 686 l 46 745 l 294 745 l 294 158 q 304 105 294 125 q 328 75 313 86 q 364 61 343 65 q 408 58 385 58 l 427 58 l 427 0 l 31 0 l 31 58 l 50 58 m 163 860 q 195 905 178 879 q 227 958 211 931 q 258 1013 243 986 q 283 1064 272 1040 l 432 1064 l 432 1049 q 394 1004 419 1031 q 338 946 368 976 q 275 889 308 917 q 215 842 243 860 l 163 842 l 163 860 "},"ņ":{"x_min":38.53125,"x_max":857.234375,"ha":896,"o":"m 412 58 l 412 0 l 38 0 l 38 58 l 50 58 q 94 61 73 58 q 130 75 115 65 q 154 105 145 86 q 164 158 164 125 l 164 591 q 154 640 164 622 q 130 669 145 659 q 93 683 114 679 q 50 686 73 686 l 46 686 l 46 745 l 271 745 l 289 631 l 296 631 q 341 695 317 670 q 392 733 366 720 q 449 752 419 747 q 513 758 479 758 q 610 742 567 758 q 684 693 653 726 q 730 608 714 660 q 746 486 746 557 l 746 157 q 753 105 746 125 q 775 75 761 86 q 809 61 790 65 q 852 58 829 58 l 857 58 l 857 0 l 615 0 l 615 479 q 606 560 615 524 q 580 619 598 595 q 533 656 562 644 q 462 669 504 669 q 383 650 415 669 q 331 601 351 632 q 303 529 311 570 q 294 444 294 488 l 294 151 q 304 102 294 120 q 328 73 313 83 q 365 61 344 64 q 408 58 385 58 l 412 58 m 368 -288 q 390 -188 379 -242 q 410 -85 401 -135 l 531 -85 l 531 -98 q 507 -147 521 -120 q 478 -202 494 -174 q 446 -258 462 -231 q 415 -307 429 -285 l 368 -307 l 368 -288 "},"µ":{"x_min":119.046875,"x_max":796.234375,"ha":855,"o":"m 385 -14 q 285 7 327 -14 q 216 67 244 28 q 221 -39 217 9 q 235 -124 224 -87 q 268 -183 246 -161 q 329 -212 290 -206 q 323 -261 329 -239 q 305 -299 317 -283 q 275 -324 293 -315 q 232 -334 257 -334 q 189 -325 210 -334 q 153 -298 169 -317 q 128 -247 138 -279 q 119 -168 119 -215 q 121 -79 119 -127 q 126 26 123 -31 q 132 155 129 84 q 136 312 135 225 l 136 745 l 266 745 l 266 277 q 273 195 266 232 q 296 130 280 157 q 338 89 312 104 q 405 74 365 74 q 475 91 444 74 q 527 136 506 107 q 561 207 549 166 q 573 299 573 249 l 573 745 l 704 745 l 704 179 q 712 125 704 148 q 732 88 720 103 q 760 65 745 73 q 791 58 776 58 l 796 58 l 796 0 l 720 0 q 631 28 663 0 q 585 111 598 56 l 579 111 q 545 60 563 83 q 503 21 526 37 q 450 -4 479 4 q 385 -14 422 -14 "},"ỳ":{"x_min":5,"x_max":785,"ha":785,"o":"m 785 745 l 785 686 l 780 686 q 746 682 760 686 q 719 665 731 677 q 697 632 707 653 q 675 578 687 611 l 463 -5 q 417 -123 439 -72 q 372 -210 396 -174 q 320 -270 348 -247 q 256 -308 292 -294 q 173 -328 220 -323 q 65 -334 126 -334 l 52 -334 l 52 -264 q 174 -244 123 -264 q 262 -187 225 -223 q 323 -101 299 -150 q 365 5 348 -52 l 108 612 q 89 648 98 634 q 69 671 80 662 q 44 683 58 679 q 9 686 29 686 l 5 686 l 5 745 l 338 745 l 338 686 l 334 686 q 271 670 292 686 q 251 619 251 654 q 253 596 251 607 q 262 568 255 584 l 364 320 q 384 269 373 297 q 403 213 394 240 q 420 161 412 185 q 430 119 427 137 l 434 119 q 455 193 442 149 q 486 287 468 237 l 579 558 q 588 590 585 575 q 591 618 591 606 q 568 670 591 654 q 500 686 546 686 l 496 686 l 496 745 l 785 745 m 467 842 l 414 842 q 353 889 386 860 q 290 946 321 917 q 234 1004 260 976 q 197 1049 209 1031 l 197 1064 l 345 1064 q 371 1013 356 1040 q 401 958 385 986 q 435 905 418 931 q 467 860 452 879 l 467 842 "},"Ι":{"x_min":52.421875,"x_max":456.640625,"ha":510,"o":"m 52 0 l 52 58 l 70 58 q 114 61 93 58 q 150 75 135 65 q 175 105 166 86 q 184 158 184 125 l 184 833 q 175 886 184 866 q 150 916 166 905 q 114 930 135 926 q 70 933 93 933 l 52 933 l 52 992 l 456 992 l 456 933 l 438 933 q 394 930 415 933 q 357 916 373 926 q 333 886 342 905 q 324 833 324 866 l 324 158 q 333 105 324 125 q 357 75 342 86 q 394 61 373 65 q 438 58 415 58 l 456 58 l 456 0 l 52 0 "},"Ύ":{"x_min":-46,"x_max":1042,"ha":1038,"o":"m 391 0 l 391 58 l 423 58 q 466 61 446 58 q 503 73 487 64 q 527 102 518 83 q 537 151 537 120 l 537 413 l 279 860 q 257 893 268 880 q 236 916 247 907 q 211 929 225 925 q 180 933 198 933 l 163 933 l 163 992 l 544 992 l 544 933 l 493 933 q 462 930 474 933 q 443 920 450 926 q 434 906 437 914 q 432 889 432 898 q 440 850 432 869 q 457 815 449 830 l 559 629 q 601 545 584 586 q 629 470 618 503 q 645 504 636 485 q 665 543 654 522 q 688 585 676 563 q 713 629 701 607 l 801 789 q 821 834 815 812 q 827 872 827 855 q 805 918 827 903 q 743 933 783 933 l 702 933 l 702 992 l 1042 992 l 1042 933 l 1025 933 q 997 928 1010 933 q 970 910 984 923 q 942 877 957 898 q 910 825 928 857 l 677 413 l 677 158 q 686 105 677 125 q 710 75 695 86 q 746 61 726 65 q 790 58 767 58 l 823 58 l 823 0 l 391 0 m -46 789 q -29 833 -37 807 q -13 887 -20 859 q 1 942 -5 915 q 11 993 7 970 l 136 993 l 136 978 q 116 935 131 962 q 82 878 102 908 q 39 819 61 848 q 0 771 17 790 l -46 771 l -46 789 "},"ѕ":{"x_min":62,"x_max":566,"ha":627,"o":"m 291 -14 q 196 -4 239 -14 q 124 22 154 4 q 78 69 94 41 q 62 133 62 96 q 71 179 62 161 q 93 209 80 198 q 122 224 106 220 q 149 229 137 229 q 156 160 149 192 q 180 104 163 128 q 223 66 196 80 q 290 52 251 52 q 352 61 325 52 q 397 87 379 70 q 425 127 415 104 q 435 178 435 150 q 427 223 435 204 q 401 258 420 241 q 351 291 383 274 q 272 330 320 308 q 183 375 221 353 q 121 423 145 397 q 84 482 96 449 q 72 560 72 515 q 90 645 72 608 q 143 706 109 681 q 226 744 178 731 q 334 757 274 757 q 421 746 383 757 q 485 719 459 736 q 524 678 511 702 q 537 629 537 655 q 510 568 537 591 q 436 546 484 546 q 409 658 436 618 q 325 698 383 698 q 269 690 292 698 q 231 665 246 681 q 209 628 216 650 q 202 581 202 607 q 211 536 202 555 q 240 500 220 516 q 291 468 260 484 q 367 434 323 453 q 456 389 419 411 q 518 340 494 366 q 554 280 542 313 q 566 203 566 247 q 546 108 566 149 q 490 40 526 68 q 404 0 454 13 q 291 -14 353 -14 "},"Ш":{"x_min":52.421875,"x_max":1446.25,"ha":1499,"o":"m 1173 69 l 1173 833 q 1164 886 1173 866 q 1140 916 1155 905 q 1104 930 1124 926 q 1059 933 1083 933 l 1041 933 l 1041 992 l 1446 992 l 1446 933 l 1427 933 q 1383 930 1404 933 q 1347 916 1362 926 q 1323 886 1332 905 q 1314 833 1314 866 l 1314 152 q 1323 103 1314 122 q 1347 74 1332 84 q 1384 61 1363 64 q 1427 58 1404 58 l 1446 58 l 1446 0 l 52 0 l 52 58 l 70 58 q 113 61 93 58 q 150 74 134 64 q 174 103 165 84 q 184 152 184 122 l 184 833 q 175 886 184 866 q 150 916 166 905 q 114 930 135 926 q 70 933 93 933 l 52 933 l 52 992 l 456 992 l 456 933 l 438 933 q 394 930 415 933 q 357 916 373 926 q 333 886 342 905 q 324 833 324 866 l 324 69 l 678 69 l 678 839 q 670 886 678 867 q 648 915 662 904 q 616 929 634 925 q 578 933 598 933 l 574 933 l 574 992 l 922 992 l 922 933 l 918 933 q 879 929 897 933 q 847 914 860 925 q 826 883 833 903 q 818 833 818 864 l 818 69 l 1173 69 "},"M":{"x_min":52.421875,"x_max":1250.578125,"ha":1303,"o":"m 874 0 l 874 58 l 878 58 q 919 61 901 58 q 949 73 937 64 q 969 100 962 82 q 978 145 977 117 l 978 888 l 663 0 l 588 0 l 268 885 l 268 158 q 275 105 268 125 q 295 75 282 86 q 327 61 308 65 q 369 58 346 58 l 373 58 l 373 0 l 52 0 l 52 58 l 70 58 q 113 61 93 58 q 150 73 134 64 q 174 102 165 83 q 184 151 184 120 l 184 839 q 174 888 184 869 q 150 917 165 907 q 113 930 134 927 q 70 933 93 933 l 52 933 l 52 992 l 368 992 l 653 197 l 936 992 l 1250 992 l 1250 933 l 1232 933 q 1188 930 1209 933 q 1152 916 1167 926 q 1127 886 1136 905 q 1119 833 1119 866 l 1119 158 q 1127 105 1119 125 q 1152 75 1136 86 q 1188 61 1167 65 q 1232 58 1209 58 l 1250 58 l 1250 0 l 874 0 "},"Ψ":{"x_min":17.0625,"x_max":1132.9375,"ha":1150,"o":"m 647 415 l 678 415 q 777 429 738 415 q 839 475 816 444 q 870 553 861 506 q 878 666 878 601 l 878 992 l 1132 992 l 1132 933 q 1088 930 1109 933 q 1052 916 1067 926 q 1028 886 1037 905 q 1019 833 1019 866 l 1019 661 q 1013 580 1019 620 q 994 506 1008 541 q 957 441 980 470 q 897 391 933 412 q 810 357 860 369 q 692 346 760 346 l 647 346 l 647 158 q 656 105 647 125 q 680 75 665 86 q 717 61 696 65 q 761 58 738 58 l 779 58 l 779 0 l 374 0 l 374 58 l 393 58 q 437 61 416 58 q 473 75 458 65 q 497 105 488 86 q 507 158 507 125 l 507 346 l 461 346 q 341 357 392 346 q 253 391 290 369 q 193 441 216 412 q 155 506 169 470 q 136 580 141 541 q 131 661 131 620 l 131 833 q 121 886 131 866 q 97 916 112 905 q 61 930 82 926 q 17 933 40 933 l 17 992 l 271 992 l 271 666 q 280 553 271 601 q 311 475 288 506 q 373 429 334 444 q 475 415 413 415 l 507 415 l 507 834 q 497 886 507 867 q 473 916 488 906 q 437 930 458 926 q 393 933 416 933 l 374 933 l 374 992 l 779 992 l 779 933 l 761 933 q 717 930 738 933 q 680 916 696 926 q 656 886 665 906 q 647 834 647 867 l 647 415 "},"ũ":{"x_min":31.984375,"x_max":850.015625,"ha":882,"o":"m 732 151 q 741 102 732 120 q 765 73 750 83 q 802 61 781 64 q 845 58 822 58 l 850 58 l 850 0 l 629 0 l 611 112 l 604 112 q 558 48 583 72 q 504 10 532 24 q 444 -8 475 -3 q 379 -14 413 -14 q 281 1 324 -14 q 209 50 238 17 q 165 135 180 83 q 150 258 150 186 l 150 591 q 140 640 150 622 q 116 669 131 659 q 79 683 100 679 q 36 686 59 686 l 31 686 l 31 745 l 280 745 l 280 264 q 288 184 280 219 q 311 124 295 148 q 356 87 328 99 q 426 74 384 74 q 505 91 472 74 q 559 136 538 107 q 590 207 580 166 q 601 299 601 249 l 601 586 q 591 638 601 618 q 567 669 582 658 q 531 683 552 679 q 487 686 510 686 l 483 686 l 483 745 l 732 745 l 732 151 m 547 932 q 580 938 568 932 q 600 954 593 944 q 610 978 607 965 q 615 1006 613 991 l 678 1006 q 666 944 675 974 q 640 892 657 915 q 596 855 622 869 q 532 842 569 842 q 464 855 495 842 q 408 885 434 869 q 359 916 382 902 q 314 929 337 929 q 281 923 293 929 q 262 907 269 917 q 251 883 255 897 q 246 856 248 870 l 184 856 q 195 917 186 887 q 222 969 204 946 q 267 1006 240 992 q 331 1020 293 1020 q 398 1006 368 1020 q 454 976 428 992 q 503 945 480 959 q 547 932 526 932 "},"ŭ":{"x_min":31.984375,"x_max":850.015625,"ha":882,"o":"m 732 151 q 741 102 732 120 q 765 73 750 83 q 802 61 781 64 q 845 58 822 58 l 850 58 l 850 0 l 629 0 l 611 112 l 604 112 q 558 48 583 72 q 504 10 532 24 q 444 -8 475 -3 q 379 -14 413 -14 q 281 1 324 -14 q 209 50 238 17 q 165 135 180 83 q 150 258 150 186 l 150 591 q 140 640 150 622 q 116 669 131 659 q 79 683 100 679 q 36 686 59 686 l 31 686 l 31 745 l 280 745 l 280 264 q 288 184 280 219 q 311 124 295 148 q 356 87 328 99 q 426 74 384 74 q 505 91 472 74 q 559 136 538 107 q 590 207 580 166 q 601 299 601 249 l 601 586 q 591 638 601 618 q 567 669 582 658 q 531 683 552 679 q 487 686 510 686 l 483 686 l 483 745 l 732 745 l 732 151 m 431 842 q 345 857 382 842 q 285 898 309 872 q 250 958 262 924 q 237 1033 238 993 l 300 1033 q 346 959 312 981 q 431 937 380 937 q 516 959 482 937 q 561 1033 550 981 l 626 1033 q 612 958 624 993 q 576 898 600 924 q 516 857 552 872 q 431 842 480 842 "},"―":{"x_min":-7,"x_max":1396,"ha":1389,"o":"m 1396 331 l -7 331 l -7 414 l 1396 414 l 1396 331 "},"{":{"x_min":69,"x_max":525,"ha":595,"o":"m 433 -178 q 346 -163 384 -178 q 283 -123 309 -149 q 245 -61 258 -98 q 233 21 233 -24 l 233 263 q 220 333 233 305 q 185 377 207 361 q 133 401 163 394 q 69 410 103 408 l 69 469 q 133 477 103 470 q 185 500 163 483 q 220 544 207 517 q 233 614 233 572 l 233 856 q 283 1003 233 951 q 433 1055 334 1055 l 525 1055 l 525 996 l 483 996 q 395 959 421 996 q 369 849 369 922 l 369 612 q 331 498 369 544 q 214 440 292 453 l 214 439 q 332 381 294 425 q 369 267 369 336 l 369 26 q 395 -81 369 -44 q 483 -119 421 -119 l 525 -119 l 525 -178 l 433 -178 "},"¼":{"x_min":32.453125,"x_max":1133.921875,"ha":1167,"o":"m 40 399 l 40 454 l 105 454 q 127 456 117 454 q 145 463 137 457 q 157 478 153 468 q 162 505 162 488 l 162 890 l 32 890 l 32 946 l 102 946 q 135 948 117 946 q 169 956 153 950 q 198 972 185 962 q 217 999 211 982 l 286 999 l 286 498 q 291 470 286 481 q 304 454 296 460 q 322 447 311 449 q 345 445 332 445 l 408 445 l 408 399 l 40 399 m 384 0 l 292 0 l 788 992 l 879 992 l 384 0 m 1001 181 l 1001 107 q 1005 80 1001 90 q 1018 65 1010 70 q 1037 58 1026 59 q 1059 56 1047 56 l 1087 56 l 1087 1 l 780 1 l 780 56 l 819 56 q 840 58 830 56 q 858 65 851 59 q 871 80 866 70 q 876 107 876 90 l 876 181 l 630 181 l 630 218 l 889 601 l 1001 601 l 1001 237 l 1133 237 l 1133 181 l 1001 181 m 876 393 q 878 443 876 415 q 883 496 880 470 q 872 473 878 485 q 862 456 866 462 l 712 237 l 876 237 l 876 393 "},"Ḿ":{"x_min":52.421875,"x_max":1250.578125,"ha":1303,"o":"m 874 0 l 874 58 l 878 58 q 919 61 901 58 q 949 73 937 64 q 969 100 962 82 q 978 145 977 117 l 978 888 l 663 0 l 588 0 l 268 885 l 268 158 q 275 105 268 125 q 295 75 282 86 q 327 61 308 65 q 369 58 346 58 l 373 58 l 373 0 l 52 0 l 52 58 l 70 58 q 113 61 93 58 q 150 73 134 64 q 174 102 165 83 q 184 151 184 120 l 184 839 q 174 888 184 869 q 150 917 165 907 q 113 930 134 927 q 70 933 93 933 l 52 933 l 52 992 l 368 992 l 653 197 l 936 992 l 1250 992 l 1250 933 l 1232 933 q 1188 930 1209 933 q 1152 916 1167 926 q 1127 886 1136 905 q 1119 833 1119 866 l 1119 158 q 1127 105 1119 125 q 1152 75 1136 86 q 1188 61 1167 65 q 1232 58 1209 58 l 1250 58 l 1250 0 l 874 0 m 589 1108 q 621 1153 604 1127 q 653 1206 637 1179 q 684 1261 669 1234 q 709 1312 698 1288 l 858 1312 l 858 1297 q 820 1252 845 1279 q 764 1194 794 1224 q 701 1137 734 1165 q 641 1090 669 1108 l 589 1090 l 589 1108 "},"ι":{"x_min":136,"x_max":461.53125,"ha":464,"o":"m 266 745 l 266 193 q 295 88 266 122 q 372 55 324 55 q 418 57 397 55 q 461 64 439 60 l 461 6 q 438 -1 452 2 q 407 -7 424 -5 q 372 -12 391 -10 q 338 -14 354 -14 q 247 -2 285 -14 q 184 33 208 8 q 147 100 159 58 q 136 201 136 141 l 136 745 l 266 745 "},"Ĳ":{"x_min":52.421875,"x_max":927.640625,"ha":966,"o":"m 52 0 l 52 58 l 70 58 q 114 61 93 58 q 150 75 135 65 q 175 105 166 86 q 184 158 184 125 l 184 833 q 175 886 184 866 q 150 916 166 905 q 114 930 135 926 q 70 933 93 933 l 52 933 l 52 992 l 456 992 l 456 933 l 438 933 q 394 930 415 933 q 357 916 373 926 q 333 886 342 905 q 324 833 324 866 l 324 158 q 333 105 324 125 q 357 75 342 86 q 394 61 373 65 q 438 58 415 58 l 456 58 l 456 0 l 52 0 m 455 -264 l 467 -264 q 547 -252 512 -264 q 606 -210 582 -239 q 642 -131 629 -180 q 655 -9 655 -82 l 655 839 q 645 888 655 870 q 621 917 636 907 q 584 930 605 927 q 541 933 564 933 l 523 933 l 523 992 l 927 992 l 927 933 l 909 933 q 865 930 886 933 q 828 916 844 926 q 804 886 813 905 q 795 833 795 866 l 795 -10 q 770 -166 795 -104 q 703 -265 746 -228 q 603 -318 661 -302 q 478 -334 545 -334 l 455 -334 l 455 -264 "},"Ê":{"x_min":52.421875,"x_max":807,"ha":865,"o":"m 324 69 l 592 69 q 649 78 626 69 q 688 103 673 87 q 713 139 704 118 q 725 183 722 160 l 735 243 l 807 243 l 797 0 l 52 0 l 52 58 l 70 58 q 113 61 93 58 q 150 73 134 64 q 174 102 165 83 q 184 151 184 120 l 184 833 q 175 886 184 866 q 150 916 166 905 q 114 930 135 926 q 70 933 93 933 l 52 933 l 52 992 l 753 992 l 760 749 l 688 749 l 681 808 q 670 852 678 831 q 648 888 662 873 q 611 913 633 904 q 558 922 589 922 l 324 922 l 324 553 l 660 553 l 660 483 l 324 483 l 324 69 m 237 1089 q 272 1134 253 1108 q 312 1187 292 1160 q 348 1242 331 1215 q 376 1293 365 1269 l 507 1293 q 535 1242 518 1269 q 571 1187 552 1215 q 611 1134 591 1160 q 647 1089 630 1108 l 647 1071 l 592 1071 q 512 1128 552 1093 q 441 1195 472 1162 q 370 1128 409 1162 q 291 1071 330 1093 l 237 1071 l 237 1089 "},"Ά":{"x_min":0,"x_max":979,"ha":979,"o":"m 281 332 l 227 186 q 218 153 221 169 q 215 126 215 137 q 237 74 215 90 q 307 58 260 58 l 339 58 l 339 0 l 0 0 l 0 58 l 26 58 q 61 62 46 58 q 86 79 75 67 q 108 112 98 91 q 132 166 119 133 l 440 992 l 548 992 l 862 132 q 878 96 870 110 q 898 73 887 82 q 925 61 910 65 q 960 58 940 58 l 979 58 l 979 0 l 597 0 l 597 58 l 629 58 q 712 124 712 58 q 709 148 712 136 q 700 176 706 160 l 645 332 l 281 332 m 534 644 q 494 760 512 706 q 465 864 476 814 q 453 816 460 839 q 439 768 447 792 q 423 717 432 743 q 401 657 413 690 l 307 402 l 619 402 l 534 644 m 98 789 q 114 833 106 807 q 130 887 123 859 q 145 942 138 915 q 155 993 151 970 l 280 993 l 280 978 q 260 935 275 962 q 226 878 246 908 q 183 819 205 848 q 143 771 161 790 l 98 771 l 98 789 "},")":{"x_min":45,"x_max":402,"ha":481,"o":"m 257 439 q 251 603 257 522 q 222 755 244 684 q 158 888 200 827 q 45 992 116 949 l 45 1055 q 208 963 140 1017 q 319 834 276 909 q 381 662 361 759 q 402 439 402 565 q 381 216 402 314 q 319 43 361 118 q 208 -85 276 -31 q 45 -178 140 -140 l 45 -114 q 158 -9 116 -70 q 222 123 200 51 q 251 276 244 195 q 257 439 257 357 "},"ε":{"x_min":75,"x_max":643,"ha":689,"o":"m 228 560 q 259 469 228 505 q 355 429 289 433 q 382 434 367 431 q 410 439 396 437 q 438 442 425 441 q 462 443 451 443 q 502 432 487 443 q 518 396 518 420 q 496 356 518 372 q 438 339 475 339 q 414 340 428 339 q 383 344 399 342 q 353 351 368 347 q 329 359 339 355 q 282 341 304 354 q 244 310 260 329 q 219 266 228 291 q 209 208 209 240 q 256 106 209 139 q 392 73 302 73 q 466 81 432 73 q 528 102 500 89 q 578 133 556 116 q 616 170 600 151 q 634 153 626 166 q 643 123 643 140 q 627 73 643 97 q 576 29 611 48 q 488 -2 542 9 q 356 -14 433 -14 q 230 2 284 -14 q 142 48 177 19 q 91 117 108 77 q 75 202 75 156 q 88 274 75 244 q 123 326 101 304 q 174 362 145 347 q 233 386 202 376 l 233 394 q 176 420 201 404 q 134 459 151 437 q 107 506 117 481 q 98 560 98 532 q 117 644 98 608 q 174 706 136 681 q 265 744 211 731 q 388 757 319 757 q 490 746 446 757 q 561 717 533 735 q 604 675 590 699 q 618 626 618 652 q 590 562 618 582 q 508 543 563 543 q 473 652 508 612 q 367 693 437 693 q 300 682 327 693 q 258 653 273 671 q 235 611 242 636 q 228 560 228 587 "},"э":{"x_min":56,"x_max":605,"ha":682,"o":"m 312 758 q 434 736 380 758 q 526 669 488 715 q 584 551 564 623 q 605 377 605 479 q 582 197 605 271 q 519 75 559 123 q 422 7 478 28 q 299 -14 366 -14 q 178 0 225 -14 q 103 36 131 14 q 66 85 76 58 q 56 135 56 111 q 158 224 56 224 q 166 157 158 188 q 191 103 174 126 q 235 67 208 80 q 301 55 262 55 q 424 125 383 55 q 470 334 464 196 l 162 334 l 162 414 l 470 414 q 454 546 467 493 q 419 630 441 598 q 368 675 398 662 q 305 688 339 688 q 249 677 273 688 q 207 647 224 667 q 181 601 190 627 q 172 541 172 574 q 97 560 124 541 q 71 620 71 578 q 83 668 71 644 q 125 712 96 692 q 200 745 154 732 q 312 758 246 758 "},"ш":{"x_min":31.75,"x_max":1282.578125,"ha":1314,"o":"m 31 0 l 31 58 l 50 58 q 93 61 73 58 q 130 74 114 64 q 154 103 145 84 q 164 152 164 122 l 164 593 q 154 642 164 623 q 130 670 145 660 q 93 683 114 680 q 50 686 73 686 l 31 686 l 31 745 l 412 745 l 412 686 l 408 686 q 365 683 385 686 q 328 670 344 680 q 304 642 313 660 q 294 593 294 623 l 294 63 l 596 63 l 596 593 q 586 642 596 623 q 562 670 577 660 q 525 683 546 680 q 482 686 505 686 l 477 686 l 477 745 l 844 745 l 844 686 l 840 686 q 797 683 817 686 q 760 670 776 680 q 736 642 745 660 q 726 593 726 623 l 726 63 l 1020 63 l 1020 593 q 1010 642 1020 623 q 986 670 1001 660 q 949 683 970 680 q 906 686 929 686 l 901 686 l 901 745 l 1282 745 l 1282 686 l 1264 686 q 1221 683 1241 686 q 1184 670 1200 680 q 1160 642 1169 660 q 1151 593 1151 623 l 1151 152 q 1160 103 1151 122 q 1184 74 1169 84 q 1221 61 1200 64 q 1264 58 1241 58 l 1282 58 l 1282 0 l 31 0 "},"Я":{"x_min":-16,"x_max":859.25,"ha":911,"o":"m 586 922 l 519 922 q 410 910 455 922 q 336 871 365 897 q 294 804 307 845 q 280 705 280 762 q 293 617 280 656 q 331 550 305 578 q 396 507 357 522 q 488 493 435 493 l 586 493 l 586 922 m 449 423 l 269 123 q 225 61 246 85 q 176 23 204 37 q 106 5 147 10 q 3 0 66 0 l -16 0 l -16 58 l -11 58 q 29 65 10 58 q 65 85 48 71 q 100 119 83 99 q 134 168 117 140 l 314 451 q 246 484 279 463 q 186 536 212 505 q 143 614 159 568 q 127 723 127 660 q 221 926 127 861 q 495 992 316 992 l 859 992 l 859 933 l 840 933 q 797 930 817 933 q 760 917 776 927 q 736 888 745 907 q 727 839 727 869 l 727 151 q 736 102 727 120 q 760 73 745 83 q 797 61 776 64 q 840 58 817 58 l 859 58 l 859 0 l 455 0 l 455 58 l 472 58 q 516 61 495 58 q 552 73 537 64 q 577 101 568 83 q 586 150 586 120 l 586 423 l 449 423 "},"a":{"x_min":69,"x_max":722.203125,"ha":782,"o":"m 203 200 q 231 103 203 135 q 316 71 258 71 q 392 84 358 71 q 451 123 427 98 q 488 184 475 148 q 501 263 501 219 l 501 375 l 412 371 q 313 357 353 368 q 249 324 273 345 q 214 271 225 302 q 203 200 203 240 m 372 688 q 307 677 331 688 q 268 646 282 666 q 249 598 254 625 q 245 538 245 570 q 157 557 187 538 q 127 625 127 577 q 146 686 127 661 q 200 727 166 711 q 280 750 234 743 q 377 758 325 758 q 488 745 441 758 q 568 704 536 732 q 616 630 600 675 q 632 518 632 584 l 632 157 q 636 109 632 128 q 651 79 641 90 q 678 63 661 67 q 718 58 695 58 l 722 58 l 722 0 l 534 0 l 512 118 l 501 118 q 459 65 479 89 q 414 23 438 40 q 358 -4 389 5 q 284 -14 328 -14 q 198 0 238 -14 q 130 39 159 12 q 85 109 101 67 q 69 207 69 150 q 147 371 69 318 q 385 429 226 425 l 501 434 l 501 517 q 497 586 501 554 q 479 640 492 618 q 440 676 465 663 q 372 688 414 688 "},"Ę":{"x_min":52.421875,"x_max":807,"ha":865,"o":"m 324 69 l 592 69 q 649 78 626 69 q 688 103 673 87 q 713 139 704 118 q 725 183 722 160 l 735 243 l 807 243 l 797 0 l 52 0 l 52 58 l 70 58 q 113 61 93 58 q 150 73 134 64 q 174 102 165 83 q 184 151 184 120 l 184 833 q 175 886 184 866 q 150 916 166 905 q 114 930 135 926 q 70 933 93 933 l 52 933 l 52 992 l 753 992 l 760 749 l 688 749 l 681 808 q 670 852 678 831 q 648 888 662 873 q 611 913 633 904 q 558 922 589 922 l 324 922 l 324 553 l 660 553 l 660 483 l 324 483 l 324 69 m 484 -180 q 497 -118 484 -147 q 534 -65 511 -89 q 586 -24 557 -41 q 648 0 616 -7 l 727 0 q 682 -20 705 -6 q 641 -54 659 -34 q 610 -102 622 -75 q 597 -162 597 -129 q 605 -203 597 -186 q 625 -230 612 -220 q 655 -246 638 -241 q 694 -251 673 -251 q 734 -248 712 -251 q 782 -240 756 -245 l 782 -312 q 757 -321 771 -317 q 728 -328 743 -325 q 699 -332 713 -330 q 674 -334 685 -334 q 595 -324 630 -334 q 535 -297 560 -315 q 497 -249 510 -278 q 484 -180 484 -220 "},"Z":{"x_min":50,"x_max":764,"ha":822,"o":"m 742 935 l 219 69 l 569 69 q 622 78 601 69 q 656 103 643 87 q 675 139 669 118 q 685 183 682 160 l 692 243 l 764 243 l 757 0 l 50 0 l 50 55 l 571 922 l 268 922 q 217 913 238 922 q 183 888 196 904 q 164 852 170 873 q 154 808 157 831 l 147 749 l 76 749 l 82 992 l 742 992 l 742 935 "}," ":{"x_min":0,"x_max":0,"ha":231},"k":{"x_min":25.203125,"x_max":814,"ha":813,"o":"m 470 447 l 656 172 q 727 87 691 116 q 809 58 763 58 l 814 58 l 814 0 l 794 0 q 694 3 733 0 q 627 21 655 7 q 575 62 599 35 q 522 135 551 88 l 383 352 l 280 276 l 280 151 q 290 102 280 120 q 314 73 299 83 q 351 61 330 64 q 394 58 371 58 l 398 58 l 398 0 l 25 0 l 25 58 l 36 58 q 80 61 59 58 q 116 75 101 65 q 140 105 131 86 q 150 158 150 125 l 150 902 q 140 951 150 932 q 116 980 131 970 q 79 993 100 990 q 36 996 59 996 l 25 996 l 25 1055 l 280 1055 l 280 519 q 280 471 280 500 q 278 413 279 441 q 275 344 276 380 l 449 534 q 486 578 471 559 q 509 612 500 597 q 521 637 518 626 q 525 658 525 648 q 508 681 525 676 q 457 686 491 686 l 457 745 l 764 745 l 764 686 q 669 652 715 686 q 568 557 622 618 l 470 447 "},"Ù":{"x_min":21.4375,"x_max":975.25,"ha":996,"o":"m 502 -14 q 355 3 420 -14 q 245 58 290 20 q 176 155 200 95 q 153 299 153 214 l 153 839 q 143 888 153 869 q 119 917 134 907 q 82 930 103 927 q 39 933 62 933 l 21 933 l 21 992 l 425 992 l 425 933 l 407 933 q 363 930 384 933 q 326 916 342 926 q 302 885 311 905 q 293 832 293 865 l 293 285 q 310 181 293 224 q 358 112 327 138 q 431 72 389 85 q 525 60 474 60 q 629 77 585 60 q 701 122 672 93 q 744 191 730 151 q 758 279 758 231 l 758 838 q 749 888 758 869 q 724 917 739 906 q 688 930 708 927 q 644 933 667 933 l 626 933 l 626 992 l 975 992 l 975 933 l 956 933 q 912 930 933 933 q 876 916 891 926 q 852 886 861 905 q 843 833 843 866 l 843 283 q 820 158 843 214 q 755 65 798 103 q 649 6 712 26 q 502 -14 585 -14 m 578 1071 l 525 1071 q 464 1118 497 1089 q 401 1175 432 1146 q 345 1233 371 1205 q 308 1278 320 1260 l 308 1293 l 456 1293 q 482 1242 467 1269 q 512 1187 496 1215 q 546 1134 529 1160 q 578 1089 563 1108 l 578 1071 "},"Ů":{"x_min":21.4375,"x_max":975.25,"ha":996,"o":"m 502 -14 q 355 3 420 -14 q 245 58 290 20 q 176 155 200 95 q 153 299 153 214 l 153 839 q 143 888 153 869 q 119 917 134 907 q 82 930 103 927 q 39 933 62 933 l 21 933 l 21 992 l 425 992 l 425 933 l 407 933 q 363 930 384 933 q 326 916 342 926 q 302 885 311 905 q 293 832 293 865 l 293 285 q 310 181 293 224 q 358 112 327 138 q 431 72 389 85 q 525 60 474 60 q 629 77 585 60 q 701 122 672 93 q 744 191 730 151 q 758 279 758 231 l 758 838 q 749 888 758 869 q 724 917 739 906 q 688 930 708 927 q 644 933 667 933 l 626 933 l 626 992 l 975 992 l 975 933 l 956 933 q 912 930 933 933 q 876 916 891 926 q 852 886 861 905 q 843 833 843 866 l 843 283 q 820 158 843 214 q 755 65 798 103 q 649 6 712 26 q 502 -14 585 -14 m 683 1208 q 670 1142 683 1170 q 634 1095 657 1114 q 581 1066 611 1076 q 516 1057 550 1057 q 450 1066 481 1057 q 397 1095 420 1076 q 361 1142 374 1114 q 349 1208 349 1170 q 361 1273 349 1244 q 397 1320 374 1301 q 450 1349 420 1339 q 516 1359 481 1359 q 581 1349 550 1359 q 634 1320 611 1339 q 670 1273 657 1301 q 683 1208 683 1244 m 607 1208 q 600 1246 607 1230 q 580 1271 593 1262 q 551 1286 568 1281 q 516 1291 535 1291 q 480 1286 496 1291 q 451 1271 463 1281 q 431 1246 438 1262 q 424 1208 424 1230 q 431 1169 424 1185 q 451 1144 438 1153 q 480 1129 463 1134 q 516 1124 496 1124 q 551 1129 535 1124 q 580 1144 568 1134 q 600 1169 593 1153 q 607 1208 607 1185 "},"¢":{"x_min":110,"x_max":690,"ha":777,"o":"m 397 121 q 281 152 333 128 q 190 221 228 176 q 131 335 152 267 q 110 501 110 404 q 132 676 110 604 q 193 794 154 748 q 284 862 232 840 q 397 891 337 885 l 397 992 l 455 992 l 455 891 q 539 878 497 887 q 614 852 581 869 q 669 811 648 836 q 690 754 690 786 q 654 686 690 705 q 549 666 619 666 q 543 721 549 695 q 526 767 538 747 q 497 802 515 788 q 455 821 479 817 l 455 198 q 515 202 485 198 q 574 212 546 206 q 626 227 602 219 q 668 242 650 234 l 668 167 q 575 134 630 149 q 455 119 520 120 l 455 0 l 397 0 l 397 121 m 244 502 q 281 302 244 377 q 397 206 318 227 l 397 821 q 335 796 363 815 q 287 739 308 776 q 256 643 267 701 q 244 502 244 585 "},"В":{"x_min":52.421875,"x_max":823,"ha":908,"o":"m 782 743 q 768 661 782 696 q 732 599 755 626 q 677 555 709 573 q 609 524 646 537 l 609 519 q 696 491 656 511 q 763 440 735 471 q 807 365 791 408 q 823 267 823 322 q 734 66 823 133 q 466 0 646 0 l 52 0 l 52 58 l 70 58 q 114 61 93 58 q 150 75 135 65 q 175 105 166 86 q 184 158 184 125 l 184 839 q 174 888 184 869 q 150 917 165 907 q 113 930 134 927 q 70 933 93 933 l 52 933 l 52 992 l 424 992 q 693 931 605 992 q 782 743 782 871 m 324 69 l 457 69 q 555 80 515 69 q 620 114 595 90 q 657 177 646 139 q 669 271 669 216 q 659 366 669 326 q 624 432 649 406 q 560 471 600 459 q 459 484 520 484 l 324 484 l 324 69 m 324 554 l 419 554 q 519 564 479 554 q 583 598 559 575 q 617 657 607 621 q 628 743 628 693 q 616 828 628 794 q 580 884 605 863 q 514 914 554 905 q 415 922 473 922 l 324 922 l 324 554 "},"І":{"x_min":52.421875,"x_max":456.640625,"ha":510,"o":"m 52 0 l 52 58 l 70 58 q 114 61 93 58 q 150 75 135 65 q 175 105 166 86 q 184 158 184 125 l 184 833 q 175 886 184 866 q 150 916 166 905 q 114 930 135 926 q 70 933 93 933 l 52 933 l 52 992 l 456 992 l 456 933 l 438 933 q 394 930 415 933 q 357 916 373 926 q 333 886 342 905 q 324 833 324 866 l 324 158 q 333 105 324 125 q 357 75 342 86 q 394 61 373 65 q 438 58 415 58 l 456 58 l 456 0 l 52 0 "},"ē":{"x_min":77,"x_max":673,"ha":743,"o":"m 384 678 q 264 617 306 678 q 214 438 222 556 l 538 438 q 529 536 538 491 q 503 612 521 580 q 456 661 485 644 q 384 678 427 678 m 398 -14 q 263 11 323 -14 q 162 85 203 36 q 98 205 120 134 q 77 366 77 276 q 156 659 77 561 q 384 758 236 758 q 505 736 451 758 q 595 673 558 715 q 653 568 633 631 q 673 423 673 505 l 673 358 l 211 358 q 227 230 213 284 q 266 142 241 176 q 330 91 292 107 q 417 74 368 74 q 484 82 453 74 q 540 104 515 90 q 584 134 565 117 q 615 170 603 151 q 633 153 625 165 q 642 122 642 140 q 627 77 642 101 q 581 33 612 53 q 505 0 551 13 q 398 -14 459 -14 m 581 842 l 178 842 l 178 924 l 581 924 l 581 842 "},"β":{"x_min":136,"x_max":766,"ha":843,"o":"m 136 -334 l 136 785 q 159 914 136 862 q 222 999 182 967 q 317 1045 262 1031 q 435 1060 372 1060 q 653 999 580 1060 q 726 831 726 939 q 718 770 726 798 q 699 718 711 741 q 671 677 687 695 q 639 644 656 659 q 553 593 602 612 l 553 584 q 641 545 602 568 q 707 490 679 523 q 750 411 735 457 q 766 305 766 365 q 745 165 766 225 q 685 65 724 105 q 591 5 646 25 q 466 -14 535 -14 q 346 2 395 -14 q 266 48 297 19 l 266 -334 l 136 -334 m 458 55 q 586 115 541 55 q 631 302 631 175 q 620 399 631 358 q 589 469 610 439 q 540 516 569 498 q 474 546 511 535 q 434 533 456 539 q 387 527 412 527 q 349 538 364 527 q 335 573 335 550 q 353 613 335 598 q 410 627 372 627 q 429 626 418 627 q 450 624 439 625 q 471 620 461 622 q 487 616 480 618 q 566 685 537 633 q 595 820 595 736 q 584 894 595 860 q 553 951 574 927 q 503 988 533 974 q 433 1001 473 1001 q 360 987 391 1001 q 308 949 329 974 q 277 888 287 924 q 266 808 266 853 l 266 139 q 303 107 282 122 q 348 80 323 92 q 400 62 372 68 q 458 55 428 55 "},"≠":{"x_min":90,"x_max":687,"ha":777,"o":"m 393 673 l 432 821 l 513 821 l 473 673 l 687 673 l 687 590 l 453 590 l 403 400 l 687 400 l 687 317 l 382 317 l 344 169 l 262 169 l 301 317 l 90 317 l 90 400 l 322 400 l 372 590 l 90 590 l 90 673 l 393 673 "},"‼":{"x_min":143,"x_max":633,"ha":778,"o":"m 149 992 l 311 992 l 262 279 l 198 279 l 149 992 m 143 84 q 149 129 143 111 q 168 158 156 147 q 196 174 180 169 q 230 179 212 179 q 264 174 248 179 q 291 158 280 169 q 310 129 303 147 q 318 84 318 111 q 310 39 318 57 q 291 10 303 21 q 264 -5 280 0 q 230 -10 248 -10 q 196 -5 212 -10 q 168 10 180 0 q 149 39 156 21 q 143 84 143 57 m 464 992 l 626 992 l 577 279 l 513 279 l 464 992 m 458 84 q 464 129 458 111 q 483 158 471 147 q 511 174 495 169 q 545 179 527 179 q 579 174 563 179 q 606 158 595 169 q 625 129 618 147 q 633 84 633 111 q 625 39 633 57 q 606 10 618 21 q 579 -5 595 0 q 545 -10 563 -10 q 511 -5 527 -10 q 483 10 495 0 q 464 39 471 21 q 458 84 458 57 "},"¥":{"x_min":7,"x_max":770,"ha":777,"o":"m 179 0 l 179 58 l 211 58 q 254 61 234 58 q 290 73 274 64 q 314 101 305 82 q 325 149 323 119 l 325 241 l 131 241 l 131 311 l 325 311 l 325 404 l 131 404 l 131 474 l 298 474 l 110 860 q 91 894 99 880 q 71 917 82 908 q 45 929 59 926 q 11 933 31 933 l 7 933 l 7 992 l 347 992 l 347 933 l 337 933 q 276 920 295 933 q 257 879 257 907 q 263 842 257 863 q 280 798 268 821 l 347 650 q 367 603 357 628 q 385 554 376 578 q 400 508 393 529 q 411 474 407 487 q 420 496 414 481 q 434 527 426 510 q 450 563 441 545 q 465 595 458 581 l 544 764 q 568 831 560 800 q 577 878 577 862 q 557 920 577 906 q 492 933 538 933 l 488 933 l 488 992 l 770 992 l 770 933 l 757 933 q 727 928 740 933 q 703 911 714 924 q 681 878 692 899 q 654 825 669 857 l 487 474 l 660 474 l 660 404 l 465 404 l 465 311 l 660 311 l 660 241 l 465 241 l 465 156 q 474 104 465 124 q 498 75 483 85 q 534 61 514 64 q 579 58 555 58 l 611 58 l 611 0 l 179 0 "},"Ĥ":{"x_min":52.421875,"x_max":1048.578125,"ha":1101,"o":"m 644 0 l 644 58 l 662 58 q 707 61 686 58 q 743 75 727 65 q 767 105 758 86 q 776 158 776 125 l 776 483 l 324 483 l 324 158 q 333 105 324 125 q 357 75 342 86 q 394 61 373 65 q 438 58 415 58 l 456 58 l 456 0 l 52 0 l 52 58 l 70 58 q 114 61 93 58 q 150 75 135 65 q 175 105 166 86 q 184 158 184 125 l 184 839 q 174 888 184 869 q 150 917 165 907 q 113 930 134 927 q 70 933 93 933 l 52 933 l 52 992 l 456 992 l 456 933 l 438 933 q 394 930 415 933 q 357 916 373 926 q 333 886 342 905 q 324 833 324 866 l 324 553 l 776 553 l 776 833 q 767 886 776 866 q 743 916 758 905 q 707 930 727 926 q 662 933 686 933 l 644 933 l 644 992 l 1048 992 l 1048 933 l 1030 933 q 986 930 1007 933 q 950 916 965 926 q 925 886 934 905 q 917 833 917 866 l 917 151 q 926 102 917 120 q 950 73 935 83 q 987 61 966 64 q 1030 58 1007 58 l 1048 58 l 1048 0 l 644 0 m 346 1089 q 381 1134 362 1108 q 421 1187 401 1160 q 457 1242 440 1215 q 485 1293 474 1269 l 616 1293 q 644 1242 627 1269 q 680 1187 661 1215 q 720 1134 700 1160 q 756 1089 739 1108 l 756 1071 l 701 1071 q 621 1128 661 1093 q 550 1195 581 1162 q 479 1128 518 1162 q 400 1071 439 1093 l 346 1071 l 346 1089 "},"U":{"x_min":21.4375,"x_max":975.25,"ha":996,"o":"m 502 -14 q 355 3 420 -14 q 245 58 290 20 q 176 155 200 95 q 153 299 153 214 l 153 839 q 143 888 153 869 q 119 917 134 907 q 82 930 103 927 q 39 933 62 933 l 21 933 l 21 992 l 425 992 l 425 933 l 407 933 q 363 930 384 933 q 326 916 342 926 q 302 885 311 905 q 293 832 293 865 l 293 285 q 310 181 293 224 q 358 112 327 138 q 431 72 389 85 q 525 60 474 60 q 629 77 585 60 q 701 122 672 93 q 744 191 730 151 q 758 279 758 231 l 758 838 q 749 888 758 869 q 724 917 739 906 q 688 930 708 927 q 644 933 667 933 l 626 933 l 626 992 l 975 992 l 975 933 l 956 933 q 912 930 933 933 q 876 916 891 926 q 852 886 861 905 q 843 833 843 866 l 843 283 q 820 158 843 214 q 755 65 798 103 q 649 6 712 26 q 502 -14 585 -14 "},"Ñ":{"x_min":52.421875,"x_max":1020.5625,"ha":1060,"o":"m 789 0 l 268 800 l 268 158 q 277 105 268 125 q 302 75 287 86 q 338 61 317 65 q 382 58 359 58 l 401 58 l 401 0 l 52 0 l 52 58 l 70 58 q 114 61 93 58 q 150 75 135 65 q 175 105 166 86 q 184 158 184 125 l 184 839 q 174 888 184 869 q 150 917 165 907 q 113 930 134 927 q 70 933 93 933 l 52 933 l 52 992 l 306 992 l 804 223 l 804 839 q 795 888 804 869 q 770 917 785 907 q 734 930 754 927 q 690 933 713 933 l 671 933 l 671 992 l 1020 992 l 1020 933 l 1002 933 q 958 930 979 933 q 922 916 937 926 q 897 886 906 905 q 889 833 889 866 l 889 0 l 789 0 m 663 1161 q 696 1167 684 1161 q 716 1183 709 1173 q 726 1207 723 1194 q 731 1235 729 1220 l 794 1235 q 782 1173 791 1203 q 756 1121 773 1144 q 712 1084 738 1098 q 648 1071 685 1071 q 580 1084 611 1071 q 524 1114 550 1098 q 475 1145 498 1131 q 430 1158 453 1158 q 397 1152 409 1158 q 378 1136 385 1146 q 367 1112 371 1126 q 362 1085 364 1099 l 300 1085 q 311 1146 302 1116 q 338 1198 320 1175 q 383 1235 356 1221 q 447 1249 409 1249 q 514 1235 484 1249 q 570 1205 544 1221 q 619 1174 596 1188 q 663 1161 642 1161 "},"F":{"x_min":52.421875,"x_max":759,"ha":819,"o":"m 324 922 l 324 521 l 659 521 l 659 451 l 324 451 l 324 157 q 333 105 324 125 q 357 75 342 86 q 394 61 373 65 q 438 58 415 58 l 484 58 l 484 0 l 52 0 l 52 58 l 70 58 q 113 61 93 58 q 150 73 134 64 q 174 102 165 83 q 184 151 184 120 l 184 839 q 174 888 184 869 q 150 917 165 907 q 113 930 134 927 q 70 933 93 933 l 52 933 l 52 992 l 752 992 l 759 749 l 687 749 l 680 808 q 669 853 677 832 q 646 889 661 873 q 607 913 630 904 q 552 922 584 922 l 324 922 "},"ϑ":{"x_min":11.75,"x_max":820.203125,"ha":839,"o":"m 591 652 q 565 796 583 733 q 524 902 548 859 q 471 969 500 946 q 410 991 442 991 q 332 959 361 991 q 303 873 303 927 q 318 791 303 830 q 365 721 332 752 q 454 672 398 691 q 591 652 509 653 m 727 591 q 729 556 728 576 q 730 514 730 536 q 708 305 730 401 q 642 137 686 208 q 532 26 599 66 q 377 -14 466 -14 q 249 4 302 -14 q 165 54 197 23 q 118 129 132 86 q 104 219 104 171 q 106 279 104 247 q 111 341 108 311 q 117 396 114 370 q 120 438 120 422 q 117 466 120 453 q 107 488 114 479 q 87 501 99 497 q 56 506 75 506 l 11 506 l 11 565 l 105 565 q 177 555 149 565 q 222 530 206 546 q 245 491 238 514 q 251 440 251 468 q 249 389 251 416 q 243 334 246 363 q 237 277 240 306 q 234 219 234 248 q 243 155 234 185 q 270 103 251 125 q 316 68 288 81 q 383 55 345 55 q 547 170 494 55 q 599 514 599 285 q 598 532 599 522 q 598 554 598 543 q 597 574 597 565 q 596 591 597 584 q 396 617 477 593 q 265 678 315 640 q 194 765 215 717 q 173 866 173 814 q 186 943 173 908 q 228 1005 200 979 q 300 1046 257 1031 q 405 1061 344 1061 q 527 1032 473 1061 q 620 949 580 1003 q 685 819 659 895 q 723 650 711 743 l 820 650 l 820 591 l 727 591 "},"Ќ":{"x_min":52.421875,"x_max":952,"ha":973,"o":"m 919 912 q 913 876 919 892 q 898 848 908 860 q 877 829 889 836 q 851 818 865 821 q 843 848 849 834 q 827 873 836 863 q 802 890 817 884 q 770 896 788 896 q 692 857 729 896 q 612 733 655 817 q 574 658 590 690 q 543 600 557 625 q 515 558 528 576 q 486 525 502 539 q 548 515 522 524 q 594 492 575 507 q 630 455 614 477 q 661 404 645 433 l 791 169 q 862 84 824 110 q 947 58 901 58 l 952 58 l 952 0 l 932 0 q 821 5 865 0 q 747 25 777 11 q 696 66 717 40 q 654 132 675 92 l 527 377 q 495 427 511 408 q 458 456 479 446 q 405 469 437 466 q 324 472 373 472 l 324 159 q 333 106 324 126 q 357 75 342 86 q 394 61 373 65 q 438 58 415 58 l 456 58 l 456 0 l 52 0 l 52 58 l 70 58 q 113 61 93 58 q 150 73 134 64 q 174 102 165 83 q 184 151 184 120 l 184 839 q 174 888 184 869 q 150 917 165 907 q 113 930 134 927 q 70 933 93 933 l 52 933 l 52 992 l 456 992 l 456 933 l 438 933 q 394 930 415 933 q 357 916 373 926 q 333 886 342 905 q 324 834 324 866 l 324 531 q 377 533 357 531 q 411 540 397 535 q 432 554 424 545 q 450 572 441 562 q 493 646 467 594 q 558 773 519 697 q 611 867 584 826 q 667 938 638 909 q 731 984 697 968 q 806 1000 765 1000 q 858 993 836 1000 q 893 974 880 986 q 912 947 906 963 q 919 912 919 930 m 456 1089 q 488 1134 471 1108 q 520 1187 504 1160 q 551 1242 536 1215 q 576 1293 565 1269 l 725 1293 l 725 1278 q 687 1233 712 1260 q 631 1175 661 1205 q 568 1118 601 1146 q 508 1071 536 1089 l 456 1071 l 456 1089 "},"å":{"x_min":69,"x_max":722.203125,"ha":782,"o":"m 203 200 q 231 103 203 135 q 316 71 258 71 q 392 84 358 71 q 451 123 427 98 q 488 184 475 148 q 501 263 501 219 l 501 375 l 412 371 q 313 357 353 368 q 249 324 273 345 q 214 271 225 302 q 203 200 203 240 m 372 688 q 307 677 331 688 q 268 646 282 666 q 249 598 254 625 q 245 538 245 570 q 157 557 187 538 q 127 625 127 577 q 146 686 127 661 q 200 727 166 711 q 280 750 234 743 q 377 758 325 758 q 488 745 441 758 q 568 704 536 732 q 616 630 600 675 q 632 518 632 584 l 632 157 q 636 109 632 128 q 651 79 641 90 q 678 63 661 67 q 718 58 695 58 l 722 58 l 722 0 l 534 0 l 512 118 l 501 118 q 459 65 479 89 q 414 23 438 40 q 358 -4 389 5 q 284 -14 328 -14 q 198 0 238 -14 q 130 39 159 12 q 85 109 101 67 q 69 207 69 150 q 147 371 69 318 q 385 429 226 425 l 501 434 l 501 517 q 497 586 501 554 q 479 640 492 618 q 440 676 465 663 q 372 688 414 688 m 556 979 q 543 913 556 941 q 507 866 530 885 q 454 837 484 847 q 389 828 423 828 q 323 837 354 828 q 270 866 293 847 q 234 913 247 885 q 222 979 222 941 q 234 1044 222 1015 q 270 1091 247 1072 q 323 1120 293 1110 q 389 1130 354 1130 q 454 1120 423 1130 q 507 1091 484 1110 q 543 1044 530 1072 q 556 979 556 1015 m 480 979 q 473 1017 480 1001 q 453 1042 466 1033 q 424 1057 441 1052 q 389 1062 408 1062 q 353 1057 369 1062 q 324 1042 336 1052 q 304 1017 311 1033 q 297 979 297 1001 q 304 940 297 956 q 324 915 311 924 q 353 900 336 905 q 389 895 369 895 q 424 900 408 895 q 453 915 441 905 q 473 940 466 924 q 480 979 480 956 "},"Ϋ":{"x_min":-7,"x_max":872,"ha":868,"o":"m 221 0 l 221 58 l 253 58 q 296 61 276 58 q 333 73 317 64 q 357 102 348 83 q 367 151 367 120 l 367 413 l 109 860 q 87 893 98 880 q 66 916 77 907 q 41 929 55 925 q 10 933 28 933 l -7 933 l -7 992 l 374 992 l 374 933 l 323 933 q 292 930 304 933 q 273 920 280 926 q 264 906 267 914 q 262 889 262 898 q 270 850 262 869 q 287 815 279 830 l 389 629 q 431 545 414 586 q 459 470 448 503 q 475 504 466 485 q 495 543 484 522 q 518 585 506 563 q 543 629 531 607 l 631 789 q 651 834 645 812 q 657 872 657 855 q 635 918 657 903 q 573 933 613 933 l 532 933 l 532 992 l 872 992 l 872 933 l 855 933 q 827 928 840 933 q 800 910 814 923 q 772 877 787 898 q 740 825 758 857 l 507 413 l 507 158 q 516 105 507 125 q 540 75 525 86 q 576 61 556 65 q 620 58 597 58 l 653 58 l 653 0 l 221 0 m 243 1185 q 248 1221 243 1206 q 263 1245 253 1236 q 285 1258 272 1254 q 313 1263 298 1263 q 341 1258 328 1263 q 364 1245 354 1254 q 379 1221 373 1236 q 384 1185 384 1206 q 379 1149 384 1163 q 364 1124 373 1134 q 341 1111 354 1115 q 313 1107 328 1107 q 263 1124 283 1107 q 243 1185 243 1142 m 507 1185 q 512 1221 507 1206 q 527 1245 517 1236 q 549 1258 536 1254 q 577 1263 562 1263 q 605 1258 592 1263 q 628 1245 618 1254 q 643 1221 637 1236 q 648 1185 648 1206 q 643 1149 648 1163 q 628 1124 637 1134 q 605 1111 618 1115 q 577 1107 592 1107 q 527 1124 547 1107 q 507 1185 507 1142 "},"0":{"x_min":62,"x_max":715,"ha":777,"o":"m 715 497 q 694 288 715 382 q 634 126 674 193 q 532 22 593 59 q 388 -14 471 -14 q 241 22 303 -14 q 139 126 179 59 q 81 288 100 193 q 62 498 62 383 q 81 707 62 613 q 139 867 100 801 q 241 970 179 934 q 390 1006 303 1006 q 532 970 471 1006 q 634 867 593 934 q 694 707 674 801 q 715 497 715 613 m 206 497 q 215 313 206 394 q 246 177 225 233 q 303 92 268 121 q 388 62 338 62 q 474 92 439 62 q 530 177 509 121 q 561 313 552 233 q 570 497 570 394 q 561 680 570 600 q 530 816 552 761 q 474 900 509 871 q 390 929 440 929 q 304 900 339 929 q 247 816 269 871 q 215 680 225 761 q 206 497 206 600 "},"ō":{"x_min":77,"x_max":725,"ha":802,"o":"m 725 373 q 641 81 725 177 q 398 -14 558 -14 q 264 9 323 -14 q 162 81 204 33 q 99 202 121 129 q 77 373 77 275 q 159 663 77 568 q 403 758 241 758 q 537 734 478 758 q 639 663 597 711 q 702 543 680 615 q 725 373 725 471 m 211 374 q 222 236 211 295 q 254 136 232 176 q 313 75 277 96 q 402 55 349 55 q 489 75 454 55 q 548 136 525 96 q 580 236 570 176 q 590 374 590 295 q 579 511 590 452 q 547 609 569 570 q 488 668 525 649 q 400 688 452 688 q 312 668 348 688 q 254 609 276 649 q 222 511 232 570 q 211 374 211 452 m 599 842 l 196 842 l 196 924 l 599 924 l 599 842 "},"”":{"x_min":41,"x_max":547,"ha":625,"o":"m 269 871 q 256 785 269 827 q 217 708 244 744 q 146 645 189 673 q 41 599 103 617 l 41 657 q 141 710 109 679 q 173 782 173 741 q 165 805 173 795 q 147 821 158 814 q 122 835 135 828 q 98 851 109 842 q 79 874 86 861 q 72 909 72 888 q 98 970 72 949 q 162 992 124 992 q 203 984 184 992 q 237 961 222 976 q 260 923 252 945 q 269 871 269 900 m 547 871 q 534 785 547 827 q 495 708 522 744 q 424 645 467 673 q 319 599 381 617 l 319 657 q 419 710 386 679 q 451 782 451 741 q 443 805 451 795 q 425 821 436 814 q 400 835 413 828 q 376 851 387 842 q 357 874 364 861 q 350 909 350 888 q 375 970 350 949 q 440 992 401 992 q 480 984 461 992 q 514 961 500 976 q 538 923 529 945 q 547 871 547 900 "},"ö":{"x_min":77,"x_max":725,"ha":802,"o":"m 725 373 q 641 81 725 177 q 398 -14 558 -14 q 264 9 323 -14 q 162 81 204 33 q 99 202 121 129 q 77 373 77 275 q 159 663 77 568 q 403 758 241 758 q 537 734 478 758 q 639 663 597 711 q 702 543 680 615 q 725 373 725 471 m 211 374 q 222 236 211 295 q 254 136 232 176 q 313 75 277 96 q 402 55 349 55 q 489 75 454 55 q 548 136 525 96 q 580 236 570 176 q 590 374 590 295 q 579 511 590 452 q 547 609 569 570 q 488 668 525 649 q 400 688 452 688 q 312 668 348 688 q 254 609 276 649 q 222 511 232 570 q 211 374 211 452 m 193 956 q 198 992 193 977 q 213 1016 203 1007 q 235 1029 222 1025 q 263 1034 248 1034 q 291 1029 278 1034 q 314 1016 304 1025 q 329 992 323 1007 q 334 956 334 977 q 329 920 334 934 q 314 895 323 905 q 291 882 304 886 q 263 878 278 878 q 213 895 233 878 q 193 956 193 913 m 457 956 q 462 992 457 977 q 477 1016 467 1007 q 499 1029 486 1025 q 527 1034 512 1034 q 555 1029 542 1034 q 578 1016 568 1025 q 593 992 587 1007 q 598 956 598 977 q 593 920 598 934 q 578 895 587 905 q 555 882 568 886 q 527 878 542 878 q 477 895 497 878 q 457 956 457 913 "},"ć":{"x_min":77,"x_max":629,"ha":684,"o":"m 393 -14 q 265 7 324 -14 q 165 74 207 28 q 100 193 123 121 q 77 367 77 265 q 100 554 77 479 q 165 674 123 629 q 263 739 207 720 q 386 758 320 758 q 472 749 429 758 q 550 723 515 741 q 606 679 584 705 q 628 616 628 652 q 596 548 628 568 q 503 529 565 529 q 498 590 503 561 q 479 641 493 619 q 444 676 466 663 q 386 688 421 688 q 314 673 346 688 q 259 622 282 658 q 224 523 236 585 q 211 368 211 461 q 260 147 211 220 q 421 74 309 74 q 533 102 485 74 q 605 173 581 129 q 622 151 615 164 q 629 118 629 137 q 614 71 629 95 q 569 28 599 47 q 496 -2 540 9 q 393 -14 452 -14 m 316 860 q 348 905 331 879 q 380 958 364 931 q 411 1013 396 986 q 436 1064 425 1040 l 585 1064 l 585 1049 q 547 1004 572 1031 q 491 946 521 976 q 428 889 461 917 q 368 842 396 860 l 316 842 l 316 860 "},"þ":{"x_min":25.203125,"x_max":777,"ha":853,"o":"m 469 669 q 378 651 415 669 q 320 596 342 633 q 290 504 299 559 q 280 373 280 448 q 290 245 280 300 q 321 151 299 189 q 379 94 343 113 q 470 74 415 74 q 549 94 516 74 q 602 151 581 113 q 632 245 623 189 q 642 374 642 301 q 601 595 642 522 q 469 669 561 669 m 777 373 q 758 199 777 272 q 703 78 739 126 q 614 8 667 31 q 493 -14 561 -14 q 420 -5 453 -14 q 361 19 388 3 q 315 58 335 36 q 280 108 295 80 l 275 108 q 278 40 276 72 q 279 13 278 27 q 279 -11 279 0 q 280 -33 280 -24 q 280 -49 280 -43 l 280 -182 q 290 -231 280 -212 q 314 -259 299 -249 q 351 -272 330 -269 q 394 -275 371 -275 l 398 -275 l 398 -334 l 25 -334 l 25 -275 l 36 -275 q 80 -272 59 -275 q 116 -258 101 -268 q 140 -227 131 -247 q 150 -175 150 -207 l 150 902 q 140 951 150 932 q 116 980 131 970 q 79 993 100 990 q 36 996 59 996 l 25 996 l 25 1055 l 280 1055 l 280 800 q 280 745 280 776 q 278 686 279 714 q 275 618 276 653 l 280 618 q 316 676 296 650 q 361 720 335 702 q 420 748 387 738 q 493 758 452 758 q 614 735 561 758 q 703 665 667 712 q 758 545 739 618 q 777 373 777 473 "},"]":{"x_min":51,"x_max":361,"ha":500,"o":"m 51 -178 l 51 -119 l 110 -119 q 155 -115 134 -119 q 191 -101 175 -112 q 215 -71 206 -91 q 224 -19 224 -51 l 224 896 q 215 948 224 928 q 191 978 206 968 q 155 992 175 989 q 110 996 134 996 l 51 996 l 51 1055 l 361 1055 l 361 -178 l 51 -178 "},"А":{"x_min":0,"x_max":979,"ha":979,"o":"m 281 332 l 227 186 q 218 153 221 169 q 215 126 215 137 q 237 74 215 90 q 307 58 260 58 l 339 58 l 339 0 l 0 0 l 0 58 l 26 58 q 61 62 46 58 q 86 79 75 67 q 108 112 98 91 q 132 166 119 133 l 440 992 l 548 992 l 862 132 q 878 96 870 110 q 898 73 887 82 q 925 61 910 65 q 960 58 940 58 l 979 58 l 979 0 l 597 0 l 597 58 l 629 58 q 712 124 712 58 q 709 148 712 136 q 700 176 706 160 l 645 332 l 281 332 m 534 644 q 494 760 512 706 q 465 864 476 814 q 453 816 460 839 q 439 768 447 792 q 423 717 432 743 q 401 657 413 690 l 307 402 l 619 402 l 534 644 "},"′":{"x_min":79,"x_max":223.46875,"ha":306,"o":"m 79 992 l 223 992 l 182 666 l 119 666 l 79 992 "},"Ы":{"x_min":52.421875,"x_max":1207.25,"ha":1260,"o":"m 484 992 l 484 933 l 438 933 q 394 930 415 933 q 358 918 373 927 q 333 889 342 908 q 324 840 324 871 l 324 549 l 384 549 q 555 528 485 549 q 671 472 626 508 q 736 386 716 436 q 757 275 757 335 q 736 163 757 214 q 673 76 715 113 q 566 20 631 40 q 414 0 502 0 l 52 0 l 52 58 l 70 58 q 113 61 93 58 q 150 74 134 64 q 174 103 165 84 q 184 152 184 122 l 184 833 q 175 886 184 866 q 150 916 166 905 q 114 930 135 926 q 70 933 93 933 l 52 933 l 52 992 l 484 992 m 324 69 l 390 69 q 489 81 448 69 q 554 118 529 93 q 591 180 580 142 q 603 267 603 217 q 589 365 603 324 q 548 431 576 405 q 476 468 520 456 q 369 479 432 479 l 324 479 l 324 69 m 803 0 l 803 58 l 820 58 q 865 61 844 58 q 901 75 885 65 q 925 105 916 86 q 934 158 934 125 l 934 833 q 925 886 934 866 q 901 916 916 905 q 865 930 885 926 q 820 933 844 933 l 803 933 l 803 992 l 1207 992 l 1207 933 l 1188 933 q 1144 930 1165 933 q 1108 916 1123 926 q 1084 886 1093 905 q 1075 833 1075 866 l 1075 158 q 1084 105 1075 125 q 1108 75 1093 86 q 1144 61 1123 65 q 1188 58 1165 58 l 1207 58 l 1207 0 l 803 0 "},"ẁ":{"x_min":1,"x_max":1196,"ha":1197,"o":"m 661 741 l 800 329 q 817 275 808 304 q 834 218 826 246 q 849 164 843 190 q 860 122 856 139 l 864 122 q 883 207 870 156 q 918 325 897 257 l 987 548 q 996 586 993 566 q 1000 618 1000 606 q 977 670 1000 654 q 908 686 955 686 l 898 686 l 898 745 l 1196 745 l 1196 686 l 1178 686 q 1143 682 1158 686 q 1116 666 1128 678 q 1094 633 1104 654 q 1073 578 1084 612 l 894 0 l 783 0 l 617 489 l 592 580 l 395 0 l 286 0 l 104 612 q 87 648 95 634 q 66 671 78 662 q 40 683 55 679 q 5 686 25 686 l 1 686 l 1 745 l 344 745 l 344 686 l 325 686 q 263 674 284 686 q 242 628 242 662 q 246 600 242 616 q 253 568 249 584 l 319 335 q 333 280 326 310 q 347 220 340 250 q 359 165 353 191 q 368 122 364 139 l 372 122 q 381 163 375 139 q 394 213 387 186 q 411 268 402 240 q 429 320 420 295 l 573 741 l 661 741 m 658 842 l 605 842 q 544 889 577 860 q 481 946 512 917 q 425 1004 451 976 q 388 1049 400 1031 l 388 1064 l 536 1064 q 562 1013 547 1040 q 592 958 576 986 q 626 905 609 931 q 658 860 643 879 l 658 842 "},"ĭ":{"x_min":18,"x_max":427.15625,"ha":444,"o":"m 50 58 q 93 61 73 58 q 130 73 114 64 q 154 102 145 83 q 164 151 164 120 l 164 591 q 154 640 164 622 q 130 669 145 659 q 93 683 114 679 q 50 686 73 686 l 46 686 l 46 745 l 294 745 l 294 158 q 304 105 294 125 q 328 75 313 86 q 364 61 343 65 q 408 58 385 58 l 427 58 l 427 0 l 31 0 l 31 58 l 50 58 m 212 842 q 126 857 163 842 q 66 898 90 872 q 31 958 43 924 q 18 1033 19 993 l 81 1033 q 127 959 93 981 q 212 937 161 937 q 297 959 263 937 q 342 1033 331 981 l 407 1033 q 393 958 405 993 q 357 898 381 924 q 297 857 333 872 q 212 842 261 842 "},"8":{"x_min":64,"x_max":713,"ha":777,"o":"m 64 250 q 79 338 64 300 q 124 406 95 376 q 191 459 152 435 q 275 505 230 483 q 203 553 236 527 q 146 610 169 579 q 109 678 122 641 q 96 758 96 715 q 112 850 96 806 q 165 929 129 895 q 259 985 201 964 q 396 1006 316 1006 q 512 988 461 1006 q 598 938 563 970 q 651 863 633 906 q 670 767 670 819 q 656 688 670 722 q 618 626 642 653 q 559 577 593 599 q 482 534 524 555 q 576 481 534 509 q 649 421 618 453 q 696 350 679 388 q 713 266 713 311 q 689 147 713 200 q 622 59 665 95 q 517 4 578 23 q 379 -14 455 -14 q 242 6 301 -14 q 143 62 183 26 q 84 146 104 98 q 64 250 64 194 m 386 55 q 468 69 431 55 q 531 107 505 82 q 571 165 557 131 q 586 238 586 198 q 573 303 586 273 q 531 361 560 333 q 455 416 502 389 q 342 472 409 443 q 237 381 276 437 q 198 246 198 325 q 210 168 198 203 q 246 108 222 133 q 304 69 269 82 q 386 55 340 55 m 546 769 q 538 830 546 800 q 510 884 529 860 q 462 922 492 908 q 387 936 431 936 q 318 924 349 936 q 268 890 288 912 q 237 838 247 868 q 226 773 226 808 q 238 706 226 736 q 274 653 250 677 q 332 608 297 629 q 414 566 367 587 q 478 605 453 585 q 519 650 504 626 q 540 703 534 674 q 546 769 546 733 "},"R":{"x_min":52.421875,"x_max":920,"ha":911,"o":"m 770 168 q 838 85 805 113 q 915 58 871 58 l 920 58 l 920 0 l 900 0 q 793 4 835 0 q 722 22 751 9 q 672 60 693 36 q 628 123 651 84 l 439 433 l 324 433 l 324 150 q 333 101 324 120 q 358 73 342 83 q 394 61 373 64 q 438 58 415 58 l 456 58 l 456 0 l 52 0 l 52 58 l 70 58 q 113 61 93 58 q 150 73 134 64 q 174 102 165 83 q 184 151 184 120 l 184 839 q 174 888 184 869 q 150 917 165 907 q 113 930 134 927 q 70 933 93 933 l 52 933 l 52 992 l 426 992 q 695 924 607 992 q 784 722 784 857 q 765 624 784 666 q 718 551 747 582 q 652 500 689 520 q 579 467 616 479 l 770 168 m 324 503 l 420 503 q 521 516 480 503 q 585 556 561 529 q 619 624 609 583 q 630 718 630 664 q 618 812 630 773 q 581 875 607 851 q 516 911 556 900 q 417 922 475 922 l 324 922 l 324 503 "},"Ż":{"x_min":50,"x_max":764,"ha":822,"o":"m 742 935 l 219 69 l 569 69 q 622 78 601 69 q 656 103 643 87 q 675 139 669 118 q 685 183 682 160 l 692 243 l 764 243 l 757 0 l 50 0 l 50 55 l 571 922 l 268 922 q 217 913 238 922 q 183 888 196 904 q 164 852 170 873 q 154 808 157 831 l 147 749 l 76 749 l 82 992 l 742 992 l 742 935 m 353 1199 q 359 1240 353 1223 q 376 1266 365 1256 q 401 1280 386 1276 q 432 1285 415 1285 q 463 1280 448 1285 q 488 1266 477 1276 q 505 1240 499 1256 q 512 1199 512 1223 q 505 1158 512 1174 q 488 1132 499 1142 q 463 1117 477 1121 q 432 1113 448 1113 q 401 1117 415 1113 q 376 1132 386 1121 q 359 1158 365 1142 q 353 1199 353 1174 "},"ħ":{"x_min":23.84375,"x_max":843.234375,"ha":882,"o":"m 398 58 l 398 0 l 25 0 l 25 58 l 36 58 q 80 61 59 58 q 116 75 101 65 q 140 106 131 86 q 150 158 150 126 l 150 830 l 23 830 l 23 889 l 150 889 l 150 902 q 140 951 150 933 q 116 980 131 970 q 79 993 100 990 q 36 996 59 996 l 25 996 l 25 1055 l 280 1055 l 280 889 l 518 889 l 518 830 l 280 830 l 280 726 q 280 684 280 706 q 278 645 279 663 q 275 603 276 624 l 282 603 q 486 730 344 730 q 591 714 545 730 q 668 665 637 698 q 715 580 699 632 q 732 458 732 529 l 732 157 q 740 105 732 125 q 762 75 748 86 q 796 61 776 65 q 839 58 816 58 l 843 58 l 843 0 l 601 0 l 601 451 q 592 532 601 496 q 566 591 584 567 q 519 628 548 616 q 448 641 490 641 q 373 625 405 641 q 321 579 342 609 q 291 508 301 550 q 280 416 280 466 l 280 151 q 290 102 280 120 q 314 73 299 83 q 351 61 330 64 q 394 58 371 58 l 398 58 "},"õ":{"x_min":77,"x_max":725,"ha":802,"o":"m 725 373 q 641 81 725 177 q 398 -14 558 -14 q 264 9 323 -14 q 162 81 204 33 q 99 202 121 129 q 77 373 77 275 q 159 663 77 568 q 403 758 241 758 q 537 734 478 758 q 639 663 597 711 q 702 543 680 615 q 725 373 725 471 m 211 374 q 222 236 211 295 q 254 136 232 176 q 313 75 277 96 q 402 55 349 55 q 489 75 454 55 q 548 136 525 96 q 580 236 570 176 q 590 374 590 295 q 579 511 590 452 q 547 609 569 570 q 488 668 525 649 q 400 688 452 688 q 312 668 348 688 q 254 609 276 649 q 222 511 232 570 q 211 374 211 452 m 513 932 q 546 938 534 932 q 566 954 559 944 q 576 978 573 965 q 581 1006 579 991 l 644 1006 q 632 944 641 974 q 606 892 623 915 q 562 855 588 869 q 498 842 535 842 q 430 855 461 842 q 374 885 400 869 q 325 916 348 902 q 280 929 303 929 q 247 923 259 929 q 228 907 235 917 q 217 883 221 897 q 212 856 214 870 l 150 856 q 161 917 152 887 q 188 969 170 946 q 233 1006 206 992 q 297 1020 259 1020 q 364 1006 334 1020 q 420 976 394 992 q 469 945 446 959 q 513 932 492 932 "},"˙":{"x_min":151,"x_max":310,"ha":452,"o":"m 151 970 q 157 1011 151 994 q 174 1037 163 1027 q 199 1051 184 1047 q 230 1056 213 1056 q 261 1051 246 1056 q 286 1037 275 1047 q 303 1011 297 1027 q 310 970 310 994 q 303 929 310 945 q 286 903 297 913 q 261 888 275 892 q 230 884 246 884 q 199 888 213 884 q 174 903 184 892 q 157 929 163 913 q 151 970 151 945 "},"ê":{"x_min":77,"x_max":673,"ha":743,"o":"m 384 678 q 264 617 306 678 q 214 438 222 556 l 538 438 q 529 536 538 491 q 503 612 521 580 q 456 661 485 644 q 384 678 427 678 m 398 -14 q 263 11 323 -14 q 162 85 203 36 q 98 205 120 134 q 77 366 77 276 q 156 659 77 561 q 384 758 236 758 q 505 736 451 758 q 595 673 558 715 q 653 568 633 631 q 673 423 673 505 l 673 358 l 211 358 q 227 230 213 284 q 266 142 241 176 q 330 91 292 107 q 417 74 368 74 q 484 82 453 74 q 540 104 515 90 q 584 134 565 117 q 615 170 603 151 q 633 153 625 165 q 642 122 642 140 q 627 77 642 101 q 581 33 612 53 q 505 0 551 13 q 398 -14 459 -14 m 173 860 q 208 905 189 879 q 248 958 228 931 q 284 1013 267 986 q 312 1064 301 1040 l 443 1064 q 471 1013 454 1040 q 507 958 488 986 q 547 905 527 931 q 583 860 566 879 l 583 842 l 528 842 q 448 899 488 864 q 377 966 408 933 q 306 899 345 933 q 227 842 266 864 l 173 842 l 173 860 "},"″":{"x_min":82.53125,"x_max":485.46875,"ha":567,"o":"m 341 992 l 485 992 l 444 666 l 381 666 l 341 992 m 82 992 l 227 992 l 185 666 l 123 666 l 82 992 "},"„":{"x_min":41,"x_max":547,"ha":625,"o":"m 269 58 q 256 -27 269 14 q 217 -104 244 -68 q 146 -167 189 -139 q 41 -214 103 -195 l 41 -155 q 141 -102 109 -133 q 173 -30 173 -71 q 165 -8 173 -17 q 147 8 158 1 q 122 22 135 15 q 98 38 109 28 q 79 61 86 47 q 72 96 72 75 q 98 157 72 136 q 162 179 124 179 q 203 171 184 179 q 237 148 222 163 q 260 110 252 132 q 269 58 269 87 m 547 58 q 534 -27 547 14 q 495 -104 522 -68 q 424 -167 467 -139 q 319 -214 381 -195 l 319 -155 q 419 -102 386 -133 q 451 -30 451 -71 q 443 -8 451 -17 q 425 8 436 1 q 400 22 413 15 q 376 38 387 28 q 357 61 364 47 q 350 96 350 75 q 375 157 350 136 q 440 179 401 179 q 480 171 461 179 q 514 148 500 163 q 538 110 529 132 q 547 58 547 87 "},"ч":{"x_min":21,"x_max":857.265625,"ha":889,"o":"m 461 0 l 461 58 l 480 58 q 523 61 503 58 q 560 73 544 64 q 584 102 575 83 q 594 151 594 120 l 594 348 q 530 310 560 327 q 468 281 499 293 q 404 262 437 269 q 331 256 371 256 q 249 268 285 256 q 189 304 213 281 q 151 360 164 327 q 139 433 139 393 l 139 591 q 129 640 139 622 q 105 669 120 659 q 68 683 89 679 q 25 686 48 686 l 21 686 l 21 745 l 387 745 l 387 686 l 383 686 q 340 683 360 686 q 303 670 319 680 q 279 642 288 660 q 269 593 269 623 l 269 447 q 297 373 269 399 q 380 347 325 347 q 431 350 407 347 q 481 361 456 354 q 533 380 506 369 q 594 408 561 392 l 594 591 q 584 640 594 622 q 560 669 575 659 q 523 683 544 679 q 480 686 503 686 l 475 686 l 475 745 l 857 745 l 857 686 l 838 686 q 795 683 815 686 q 758 670 774 680 q 734 642 743 660 q 725 593 725 623 l 725 151 q 734 102 725 120 q 758 73 743 83 q 795 61 774 64 q 838 58 815 58 l 857 58 l 857 0 l 461 0 "},"δ":{"x_min":75,"x_max":725,"ha":802,"o":"m 594 307 q 577 401 594 358 q 533 480 560 444 q 471 546 505 517 q 401 599 437 576 q 327 562 363 587 q 264 498 291 538 q 221 404 238 459 q 205 274 205 348 q 218 186 205 226 q 255 117 231 146 q 315 71 280 87 q 395 55 350 55 q 542 120 491 55 q 594 307 594 185 m 305 891 q 315 836 305 860 q 345 788 324 812 q 399 741 365 765 q 479 686 432 717 q 580 614 534 651 q 657 535 625 577 q 707 445 689 494 q 725 337 725 396 q 701 185 725 250 q 635 75 678 120 q 531 8 592 31 q 397 -14 471 -14 q 268 6 327 -14 q 166 66 209 27 q 99 164 123 106 q 75 296 75 221 q 96 422 75 368 q 155 518 118 477 q 244 586 193 559 q 353 632 294 614 q 289 679 319 654 q 238 733 260 704 q 205 794 217 761 q 193 866 193 827 q 211 950 193 914 q 263 1012 230 987 q 343 1050 296 1037 q 444 1063 389 1063 q 545 1050 501 1063 q 616 1019 588 1038 q 660 974 645 999 q 675 923 675 948 q 647 858 675 879 q 572 836 620 836 q 563 901 572 871 q 535 955 553 932 q 490 991 516 978 q 431 1004 464 1004 q 374 996 398 1004 q 335 972 350 988 q 312 936 319 957 q 305 891 305 916 "},"Â":{"x_min":0,"x_max":979,"ha":979,"o":"m 281 332 l 227 186 q 218 153 221 169 q 215 126 215 137 q 237 74 215 90 q 307 58 260 58 l 339 58 l 339 0 l 0 0 l 0 58 l 26 58 q 61 62 46 58 q 86 79 75 67 q 108 112 98 91 q 132 166 119 133 l 440 992 l 548 992 l 862 132 q 878 96 870 110 q 898 73 887 82 q 925 61 910 65 q 960 58 940 58 l 979 58 l 979 0 l 597 0 l 597 58 l 629 58 q 712 124 712 58 q 709 148 712 136 q 700 176 706 160 l 645 332 l 281 332 m 534 644 q 494 760 512 706 q 465 864 476 814 q 453 816 460 839 q 439 768 447 792 q 423 717 432 743 q 401 657 413 690 l 307 402 l 619 402 l 534 644 m 286 1089 q 321 1134 302 1108 q 361 1187 341 1160 q 397 1242 380 1215 q 425 1293 414 1269 l 556 1293 q 584 1242 567 1269 q 620 1187 601 1215 q 660 1134 640 1160 q 696 1089 679 1108 l 696 1071 l 641 1071 q 561 1128 601 1093 q 490 1195 521 1162 q 419 1128 458 1162 q 340 1071 379 1093 l 286 1071 l 286 1089 "},"Į":{"x_min":52.421875,"x_max":456.640625,"ha":510,"o":"m 52 0 l 52 58 l 70 58 q 114 61 93 58 q 150 75 135 65 q 175 105 166 86 q 184 158 184 125 l 184 833 q 175 886 184 866 q 150 916 166 905 q 114 930 135 926 q 70 933 93 933 l 52 933 l 52 992 l 456 992 l 456 933 l 438 933 q 394 930 415 933 q 357 916 373 926 q 333 886 342 905 q 324 833 324 866 l 324 158 q 333 105 324 125 q 357 75 342 86 q 394 61 373 65 q 438 58 415 58 l 456 58 l 456 0 l 52 0 m 122 -180 q 135 -118 122 -147 q 172 -65 149 -89 q 224 -24 195 -41 q 286 0 254 -7 l 365 0 q 320 -20 343 -6 q 279 -54 297 -34 q 248 -102 260 -75 q 235 -162 235 -129 q 243 -203 235 -186 q 263 -230 250 -220 q 293 -246 276 -241 q 332 -251 311 -251 q 372 -248 350 -251 q 420 -240 394 -245 l 420 -312 q 395 -321 409 -317 q 366 -328 381 -325 q 337 -332 351 -330 q 312 -334 323 -334 q 233 -324 268 -334 q 173 -297 198 -315 q 135 -249 148 -278 q 122 -180 122 -220 "},"ω":{"x_min":77,"x_max":990,"ha":1067,"o":"m 727 -14 q 661 -3 691 -14 q 606 26 630 7 q 564 71 581 45 q 536 128 546 97 l 530 128 q 502 71 520 97 q 460 26 484 45 q 405 -3 436 7 q 339 -14 375 -14 q 230 8 278 -14 q 147 73 182 30 q 95 184 113 117 q 77 338 77 250 q 90 466 77 407 q 127 578 103 526 q 184 675 151 631 q 255 758 216 720 l 313 712 q 271 632 290 672 q 239 546 252 591 q 219 451 226 501 q 211 338 211 400 q 223 216 211 268 q 255 131 235 165 q 303 81 276 97 q 359 65 330 65 q 417 77 393 65 q 458 111 442 88 q 485 164 475 133 q 501 233 496 194 q 490 270 496 249 q 479 314 484 290 q 472 363 475 338 q 469 411 469 388 q 487 494 469 469 q 532 519 505 519 q 579 494 560 519 q 597 411 597 469 q 593 363 597 388 q 585 314 590 338 q 575 270 581 290 q 565 233 570 249 q 581 164 570 194 q 607 111 591 133 q 648 77 624 88 q 706 65 673 65 q 763 81 736 65 q 811 131 790 97 q 843 216 831 165 q 855 338 855 268 q 847 451 855 400 q 827 546 840 501 q 795 632 814 591 q 753 712 777 672 l 811 758 q 882 675 850 720 q 939 578 915 631 q 976 466 963 526 q 990 338 990 407 q 971 184 990 250 q 919 73 953 117 q 836 8 885 30 q 727 -14 788 -14 "},"Ţ":{"x_min":28,"x_max":823,"ha":851,"o":"m 494 158 q 503 105 494 125 q 527 75 512 86 q 564 61 543 65 q 608 58 585 58 l 640 58 l 640 0 l 208 0 l 208 58 l 240 58 q 283 61 263 58 q 320 73 304 64 q 344 102 335 83 q 354 151 354 120 l 354 922 l 221 922 q 170 913 190 922 q 136 888 149 904 q 116 852 122 873 q 107 808 110 831 l 99 749 l 28 749 l 34 992 l 816 992 l 823 749 l 751 749 l 744 808 q 734 852 741 831 q 715 888 728 873 q 681 913 702 904 q 629 922 660 922 l 494 922 l 494 158 m 323 -288 q 345 -188 334 -242 q 365 -85 356 -135 l 486 -85 l 486 -98 q 462 -147 476 -120 q 433 -202 449 -174 q 401 -258 417 -231 q 370 -307 384 -285 l 323 -307 l 323 -288 "},"´":{"x_min":265,"x_max":534,"ha":802,"o":"m 265 860 q 297 905 280 879 q 329 958 313 931 q 360 1013 345 986 q 385 1064 374 1040 l 534 1064 l 534 1049 q 496 1004 521 1031 q 440 946 470 976 q 377 889 410 917 q 317 842 345 860 l 265 842 l 265 860 "},"Ĉ":{"x_min":79,"x_max":806,"ha":853,"o":"m 524 1006 q 648 994 596 1006 q 736 961 701 982 q 788 911 771 940 q 806 850 806 883 q 796 809 806 827 q 771 779 787 791 q 733 759 755 766 q 685 753 711 753 q 676 817 685 785 q 648 874 668 848 q 598 915 629 899 q 522 931 567 931 q 388 902 443 931 q 298 818 333 873 q 248 682 264 763 q 232 496 232 601 q 249 326 232 403 q 300 193 265 249 q 390 108 336 138 q 522 77 445 77 q 612 87 573 77 q 681 113 651 97 q 734 151 711 129 q 774 196 756 172 q 793 175 786 188 q 801 141 801 162 q 783 87 801 115 q 728 37 765 60 q 635 0 691 15 q 501 -14 578 -14 q 318 22 397 -14 q 186 126 239 59 q 106 288 133 193 q 79 497 79 382 q 107 703 79 609 q 192 864 136 796 q 331 968 248 931 q 524 1006 415 1006 m 311 1089 q 346 1134 327 1108 q 386 1187 366 1160 q 422 1242 405 1215 q 450 1293 439 1269 l 581 1293 q 609 1242 592 1269 q 645 1187 626 1215 q 685 1134 665 1160 q 721 1089 704 1108 l 721 1071 l 666 1071 q 586 1128 626 1093 q 515 1195 546 1162 q 444 1128 483 1162 q 365 1071 404 1093 l 311 1071 l 311 1089 "},"И":{"x_min":52.421875,"x_max":1063.265625,"ha":1116,"o":"m 659 0 l 659 58 l 676 58 q 721 61 700 58 q 757 75 741 65 q 781 105 772 86 q 790 158 790 125 l 790 708 l 324 185 l 324 158 q 333 105 324 125 q 357 75 342 86 q 394 61 373 65 q 438 58 415 58 l 456 58 l 456 0 l 52 0 l 52 58 l 70 58 q 114 61 93 58 q 150 75 135 65 q 175 105 166 86 q 184 158 184 125 l 184 839 q 174 888 184 869 q 150 917 165 907 q 113 930 134 927 q 70 933 93 933 l 52 933 l 52 992 l 456 992 l 456 933 l 438 933 q 394 930 415 933 q 357 916 373 926 q 333 886 342 905 q 324 833 324 866 l 324 283 l 790 806 l 790 833 q 781 886 790 866 q 757 916 772 905 q 721 930 741 926 q 676 933 700 933 l 659 933 l 659 992 l 1063 992 l 1063 933 l 1044 933 q 1000 930 1021 933 q 964 916 979 926 q 940 886 949 905 q 931 833 931 866 l 931 151 q 940 102 931 120 q 964 73 949 83 q 1001 61 980 64 q 1044 58 1021 58 l 1063 58 l 1063 0 l 659 0 "},"Љ":{"x_min":0,"x_max":1181,"ha":1235,"o":"m 894 992 l 894 933 l 862 933 q 819 930 839 933 q 782 918 798 927 q 757 891 767 909 q 748 846 748 874 l 748 549 l 808 549 q 979 528 908 549 q 1095 472 1050 508 q 1160 386 1140 436 q 1181 275 1181 335 q 1160 163 1181 214 q 1097 76 1139 113 q 990 20 1055 40 q 838 0 926 0 l 475 0 l 475 58 l 494 58 q 537 61 516 58 q 573 73 557 64 q 598 100 589 82 q 608 145 608 117 l 608 922 l 423 922 q 410 740 419 835 q 389 551 402 645 q 360 370 376 457 q 323 214 343 283 q 283 108 304 151 q 237 38 263 65 q 181 1 212 12 q 111 -10 149 -10 q 27 15 55 -10 q 0 86 0 40 q 16 147 0 122 q 61 171 32 171 q 65 151 61 162 q 77 130 69 139 q 98 113 86 120 q 128 106 111 106 q 165 112 147 106 q 199 138 183 118 q 233 197 216 158 q 267 302 250 236 q 290 400 279 347 q 308 509 300 454 q 323 620 317 565 q 334 725 330 676 q 340 813 338 774 q 343 876 343 852 q 334 907 343 895 q 310 924 325 918 q 274 931 294 930 q 231 933 254 933 l 210 933 l 210 992 l 894 992 m 748 69 l 814 69 q 912 81 872 69 q 978 118 953 93 q 1015 180 1004 142 q 1027 267 1027 217 q 1013 365 1027 324 q 972 431 1000 405 q 899 468 943 456 q 793 479 855 479 l 748 479 l 748 69 "},"р":{"x_min":18.421875,"x_max":777,"ha":853,"o":"m 469 669 q 378 651 415 669 q 320 596 342 633 q 290 504 299 559 q 280 373 280 448 q 290 245 280 300 q 321 151 299 189 q 379 94 343 113 q 470 74 415 74 q 549 94 517 74 q 602 151 581 113 q 632 245 623 189 q 642 374 642 301 q 632 503 642 448 q 602 595 623 559 q 548 650 581 632 q 469 669 515 669 m 777 373 q 758 199 777 272 q 703 78 739 126 q 614 8 667 31 q 493 -14 561 -14 q 420 -5 453 -14 q 361 19 388 3 q 315 58 335 36 q 280 108 295 80 l 275 108 q 278 40 276 72 q 279 14 278 28 q 279 -11 279 0 q 280 -33 280 -24 q 280 -49 280 -43 l 280 -182 q 290 -231 280 -212 q 314 -259 299 -249 q 351 -272 330 -269 q 394 -275 371 -275 l 398 -275 l 398 -334 l 25 -334 l 25 -275 l 36 -275 q 80 -272 59 -275 q 116 -258 101 -268 q 140 -227 131 -247 q 150 -175 150 -207 l 150 591 q 140 640 150 622 q 116 669 131 659 q 79 683 100 679 q 36 686 59 686 l 18 686 l 18 745 l 261 745 l 275 618 l 280 618 q 316 676 296 650 q 361 720 335 702 q 420 748 387 738 q 493 758 452 758 q 614 735 561 758 q 703 665 667 712 q 758 545 739 618 q 777 373 777 473 "},"Ω":{"x_min":58,"x_max":988,"ha":1046,"o":"m 86 608 q 113 771 86 698 q 194 897 140 845 q 331 978 248 950 q 525 1007 414 1007 q 710 978 630 1007 q 847 897 791 950 q 931 771 903 845 q 960 608 960 698 q 879 359 960 454 q 644 233 798 263 l 641 111 l 774 111 q 829 115 806 111 q 868 131 852 120 q 892 158 883 141 q 905 197 901 174 l 916 243 l 988 243 l 978 0 l 565 0 l 575 291 q 682 322 638 298 q 754 388 726 347 q 793 484 781 428 q 806 610 806 540 q 791 747 806 687 q 742 848 776 807 q 655 910 708 889 q 525 932 602 932 q 393 910 447 932 q 304 848 339 889 q 255 747 270 807 q 239 610 239 687 q 252 484 239 540 q 292 388 265 428 q 363 322 320 347 q 470 291 407 298 l 480 0 l 67 0 l 58 243 l 129 243 l 139 197 q 153 158 144 174 q 177 131 161 141 q 215 115 192 120 q 271 111 238 111 l 404 111 l 401 233 q 166 359 247 263 q 86 608 86 454 "},"т":{"x_min":28,"x_max":732,"ha":760,"o":"m 723 745 l 732 527 l 664 527 l 657 574 q 645 628 652 606 q 627 662 638 650 q 600 681 617 675 q 560 686 584 686 l 446 686 l 446 152 q 456 102 446 121 q 480 74 465 83 q 517 61 496 64 q 560 58 537 58 l 592 58 l 592 0 l 183 0 l 183 58 l 202 58 q 245 61 225 58 q 282 74 266 64 q 306 102 297 83 q 316 152 316 121 l 316 686 l 200 686 q 160 681 176 686 q 133 662 144 675 q 115 628 122 650 q 103 574 108 606 l 95 527 l 28 527 l 36 745 l 723 745 "},"П":{"x_min":52.421875,"x_max":1007.25,"ha":1060,"o":"m 52 992 l 1007 992 l 1007 933 l 988 933 q 944 930 965 933 q 908 916 923 926 q 884 886 893 905 q 875 833 875 866 l 875 151 q 884 102 875 120 q 908 73 893 83 q 945 61 924 64 q 988 58 965 58 l 1007 58 l 1007 0 l 603 0 l 603 58 l 620 58 q 665 61 644 58 q 701 75 685 65 q 725 105 716 86 q 734 158 734 125 l 734 922 l 324 922 l 324 158 q 333 105 324 125 q 357 75 342 86 q 394 61 373 65 q 438 58 415 58 l 456 58 l 456 0 l 52 0 l 52 58 l 70 58 q 114 61 93 58 q 150 75 135 65 q 175 105 166 86 q 184 158 184 125 l 184 839 q 174 888 184 869 q 150 917 165 907 q 113 930 134 927 q 70 933 93 933 l 52 933 l 52 992 "},"Ö":{"x_min":78,"x_max":952,"ha":1031,"o":"m 952 496 q 923 287 952 382 q 839 126 895 193 q 702 22 783 59 q 515 -14 620 -14 q 322 22 405 -14 q 186 126 240 59 q 105 288 132 193 q 78 498 78 382 q 105 707 78 613 q 186 867 132 801 q 323 970 240 934 q 517 1007 406 1007 q 702 970 622 1007 q 839 867 783 934 q 923 706 895 800 q 952 496 952 612 m 231 497 q 247 312 231 393 q 296 175 262 231 q 384 90 330 119 q 515 60 438 60 q 647 90 593 60 q 734 175 700 119 q 783 312 768 231 q 798 497 798 393 q 783 681 798 600 q 734 818 768 762 q 647 903 700 874 q 517 932 594 932 q 385 903 439 932 q 296 818 331 874 q 247 681 262 762 q 231 497 231 600 m 309 1185 q 314 1221 309 1206 q 329 1245 319 1236 q 351 1258 338 1254 q 379 1263 364 1263 q 407 1258 394 1263 q 430 1245 420 1254 q 445 1221 439 1236 q 450 1185 450 1206 q 445 1149 450 1163 q 430 1124 439 1134 q 407 1111 420 1115 q 379 1107 394 1107 q 329 1124 349 1107 q 309 1185 309 1142 m 573 1185 q 578 1221 573 1206 q 593 1245 583 1236 q 615 1258 602 1254 q 643 1263 628 1263 q 671 1258 658 1263 q 694 1245 684 1254 q 709 1221 703 1236 q 714 1185 714 1206 q 709 1149 714 1163 q 694 1124 703 1134 q 671 1111 684 1115 q 643 1107 658 1107 q 593 1124 613 1107 q 573 1185 573 1142 "},"z":{"x_min":58,"x_max":632,"ha":710,"o":"m 471 79 q 512 88 496 79 q 538 113 528 98 q 555 150 549 129 q 566 193 562 170 l 573 225 l 632 225 l 625 0 l 58 0 l 58 55 l 461 665 l 243 665 q 198 658 216 665 q 169 637 180 651 q 150 602 158 623 q 136 553 143 581 l 135 548 l 78 548 l 91 745 l 624 745 l 624 688 l 219 79 l 471 79 "},"™":{"x_min":37,"x_max":1101.828125,"ha":1160,"o":"m 903 512 l 903 566 q 941 572 927 566 q 958 601 956 579 l 958 896 l 811 512 l 766 512 l 618 897 l 618 606 q 633 573 618 580 q 674 566 647 566 l 674 512 l 474 512 l 474 566 l 488 566 q 525 572 509 566 q 543 601 541 578 l 543 902 q 537 921 542 914 q 526 932 533 928 q 508 936 518 935 q 488 937 498 937 l 474 937 l 474 992 l 663 992 l 805 607 l 952 992 l 1101 992 l 1101 937 l 1086 937 q 1065 936 1075 937 q 1048 931 1055 935 q 1037 919 1041 927 q 1034 899 1034 912 l 1034 605 q 1037 584 1034 592 q 1048 573 1041 577 q 1065 567 1055 568 q 1086 566 1075 566 l 1101 566 l 1101 512 l 903 512 m 275 606 q 280 585 275 592 q 291 573 284 577 q 308 567 299 568 q 328 566 318 566 l 350 566 l 350 512 l 124 512 l 124 566 l 148 566 q 168 567 158 566 q 184 572 177 568 q 195 583 191 576 q 200 602 200 590 l 200 937 l 138 937 q 113 933 123 937 q 97 922 103 929 q 87 907 91 916 q 83 888 84 899 l 77 855 l 37 855 l 40 992 l 436 992 l 441 855 l 400 855 l 395 888 q 380 922 392 908 q 339 937 369 937 l 275 937 l 275 606 "},"Θ":{"x_min":78,"x_max":952,"ha":1031,"o":"m 386 630 l 393 604 q 403 577 396 589 q 421 557 409 565 q 450 544 432 548 q 497 540 469 540 l 529 540 q 604 557 579 540 q 636 604 629 574 l 643 630 l 715 630 l 715 379 l 643 379 l 636 406 q 604 453 629 435 q 529 470 579 470 l 497 470 q 450 466 469 470 q 421 453 432 461 q 403 433 409 445 q 393 406 396 421 l 386 379 l 315 379 l 315 630 l 386 630 m 952 496 q 923 287 952 382 q 839 126 895 193 q 702 22 783 59 q 515 -14 620 -14 q 322 22 405 -14 q 186 126 240 59 q 105 288 132 193 q 78 498 78 382 q 105 707 78 613 q 186 867 132 801 q 323 970 240 934 q 517 1007 406 1007 q 702 970 622 1007 q 839 867 783 934 q 923 706 895 800 q 952 496 952 612 m 231 497 q 247 312 231 393 q 296 175 262 231 q 384 90 330 119 q 515 60 438 60 q 647 90 593 60 q 734 175 700 119 q 783 312 768 231 q 798 497 798 393 q 783 681 798 600 q 734 818 768 762 q 647 903 700 874 q 517 932 594 932 q 385 903 439 932 q 296 818 331 874 q 247 681 262 762 q 231 497 231 600 "},"Ř":{"x_min":52.421875,"x_max":920,"ha":911,"o":"m 770 168 q 838 85 805 113 q 915 58 871 58 l 920 58 l 920 0 l 900 0 q 793 4 835 0 q 722 22 751 9 q 672 60 693 36 q 628 123 651 84 l 439 433 l 324 433 l 324 150 q 333 101 324 120 q 358 73 342 83 q 394 61 373 64 q 438 58 415 58 l 456 58 l 456 0 l 52 0 l 52 58 l 70 58 q 113 61 93 58 q 150 73 134 64 q 174 102 165 83 q 184 151 184 120 l 184 839 q 174 888 184 869 q 150 917 165 907 q 113 930 134 927 q 70 933 93 933 l 52 933 l 52 992 l 426 992 q 695 924 607 992 q 784 722 784 857 q 765 624 784 666 q 718 551 747 582 q 652 500 689 520 q 579 467 616 479 l 770 168 m 324 503 l 420 503 q 521 516 480 503 q 585 556 561 529 q 619 624 609 583 q 630 718 630 664 q 618 812 630 773 q 581 875 607 851 q 516 911 556 900 q 417 922 475 922 l 324 922 l 324 503 m 218 1293 l 272 1293 q 312 1265 291 1280 q 351 1234 332 1251 q 388 1200 370 1217 q 422 1166 406 1183 q 455 1200 437 1183 q 493 1234 473 1217 q 533 1265 513 1251 q 573 1293 554 1280 l 628 1293 l 628 1274 q 592 1229 611 1255 q 552 1176 572 1203 q 516 1121 533 1148 q 488 1071 499 1094 l 357 1071 q 329 1121 346 1094 q 293 1176 312 1148 q 253 1229 273 1203 q 218 1274 234 1255 l 218 1293 "},"Ň":{"x_min":52.421875,"x_max":1020.5625,"ha":1060,"o":"m 789 0 l 268 800 l 268 158 q 277 105 268 125 q 302 75 287 86 q 338 61 317 65 q 382 58 359 58 l 401 58 l 401 0 l 52 0 l 52 58 l 70 58 q 114 61 93 58 q 150 75 135 65 q 175 105 166 86 q 184 158 184 125 l 184 839 q 174 888 184 869 q 150 917 165 907 q 113 930 134 927 q 70 933 93 933 l 52 933 l 52 992 l 306 992 l 804 223 l 804 839 q 795 888 804 869 q 770 917 785 907 q 734 930 754 927 q 690 933 713 933 l 671 933 l 671 992 l 1020 992 l 1020 933 l 1002 933 q 958 930 979 933 q 922 916 937 926 q 897 886 906 905 q 889 833 889 866 l 889 0 l 789 0 m 357 1293 l 411 1293 q 451 1265 430 1280 q 490 1234 471 1251 q 527 1200 509 1217 q 561 1166 545 1183 q 594 1200 576 1183 q 632 1234 612 1217 q 672 1265 652 1251 q 712 1293 693 1280 l 767 1293 l 767 1274 q 731 1229 750 1255 q 691 1176 711 1203 q 655 1121 672 1148 q 627 1071 638 1094 l 496 1071 q 468 1121 485 1094 q 432 1176 451 1148 q 392 1229 412 1203 q 357 1274 373 1255 l 357 1293 "},"É":{"x_min":52.421875,"x_max":807,"ha":865,"o":"m 324 69 l 592 69 q 649 78 626 69 q 688 103 673 87 q 713 139 704 118 q 725 183 722 160 l 735 243 l 807 243 l 797 0 l 52 0 l 52 58 l 70 58 q 113 61 93 58 q 150 73 134 64 q 174 102 165 83 q 184 151 184 120 l 184 833 q 175 886 184 866 q 150 916 166 905 q 114 930 135 926 q 70 933 93 933 l 52 933 l 52 992 l 753 992 l 760 749 l 688 749 l 681 808 q 670 852 678 831 q 648 888 662 873 q 611 913 633 904 q 558 922 589 922 l 324 922 l 324 553 l 660 553 l 660 483 l 324 483 l 324 69 m 369 1089 q 401 1134 384 1108 q 433 1187 417 1160 q 464 1242 449 1215 q 489 1293 478 1269 l 638 1293 l 638 1278 q 600 1233 625 1260 q 544 1175 574 1205 q 481 1118 514 1146 q 421 1071 449 1089 l 369 1071 l 369 1089 "},"и":{"x_min":31.75,"x_max":924.25,"ha":956,"o":"m 924 745 l 924 686 l 905 686 q 862 683 882 686 q 825 670 841 680 q 801 642 810 660 q 792 593 792 623 l 792 151 q 801 102 792 120 q 825 73 810 83 q 862 61 841 64 q 905 58 882 58 l 924 58 l 924 0 l 528 0 l 528 58 l 547 58 q 590 61 570 58 q 627 73 611 64 q 651 102 642 83 q 661 151 661 120 l 661 497 l 294 158 l 294 151 q 304 102 294 120 q 328 73 313 83 q 365 61 344 64 q 408 58 385 58 l 427 58 l 427 0 l 31 0 l 31 58 l 50 58 q 93 61 73 58 q 130 73 114 64 q 154 102 145 83 q 164 151 164 120 l 164 591 q 154 640 164 622 q 130 669 145 659 q 93 683 114 679 q 50 686 73 686 l 31 686 l 31 745 l 427 745 l 427 686 l 408 686 q 365 683 385 686 q 328 670 344 680 q 304 642 313 660 q 294 593 294 623 l 294 245 l 661 587 l 661 591 q 651 640 661 622 q 627 669 642 659 q 590 683 611 679 q 547 686 570 686 l 543 686 l 543 745 l 924 745 "},"³":{"x_min":56,"x_max":487,"ha":555,"o":"m 241 389 q 103 416 150 389 q 56 495 56 444 q 73 544 56 525 q 119 563 90 563 q 126 520 119 542 q 148 482 134 499 q 185 455 163 465 q 238 444 207 444 q 329 473 296 444 q 362 568 362 502 q 326 647 362 618 q 214 677 291 677 l 168 677 l 168 733 l 213 733 q 262 741 240 733 q 302 766 285 750 q 328 804 319 781 q 338 854 338 826 q 319 925 338 901 q 258 950 301 950 q 214 940 232 950 q 186 914 196 930 q 171 875 175 897 q 167 829 167 853 q 124 832 143 829 q 91 841 104 834 q 71 859 78 847 q 64 889 64 871 q 76 935 64 914 q 113 972 89 957 q 174 997 138 988 q 258 1006 210 1006 q 341 996 304 1006 q 406 969 379 986 q 448 925 433 951 q 463 867 463 899 q 451 812 463 836 q 420 769 440 787 q 375 737 401 750 q 321 716 350 724 l 321 709 q 378 696 349 704 q 431 672 407 687 q 471 632 455 656 q 487 569 487 607 q 464 484 487 519 q 405 429 441 450 q 326 398 369 407 q 241 389 283 389 "},"[":{"x_min":139,"x_max":449,"ha":499,"o":"m 139 -178 l 139 1055 l 449 1055 l 449 996 l 388 996 q 344 992 365 996 q 308 978 324 989 q 284 948 292 968 q 275 896 275 928 l 275 -19 q 284 -71 275 -51 q 308 -101 292 -91 q 344 -115 324 -112 q 388 -119 365 -119 l 449 -119 l 449 -178 l 139 -178 "},"ζ":{"x_min":75,"x_max":642,"ha":642,"o":"m 75 283 q 95 456 75 369 q 153 623 115 542 q 245 779 191 705 q 369 915 300 853 q 308 928 339 919 q 244 952 276 938 q 182 986 213 967 q 125 1028 152 1005 l 164 1078 q 214 1041 186 1059 q 276 1008 243 1023 q 346 983 310 993 q 419 969 382 973 q 454 991 435 980 q 494 1011 473 1002 q 536 1026 515 1020 q 578 1032 558 1032 q 625 1020 608 1032 q 642 984 642 1008 q 592 921 642 941 q 436 902 543 902 q 334 763 377 836 q 263 615 291 690 q 223 465 236 540 q 209 319 209 390 q 220 226 209 262 q 254 165 230 189 q 316 126 277 141 q 412 98 355 111 q 487 77 454 89 q 543 46 520 64 q 580 4 567 29 q 593 -54 593 -20 q 580 -127 593 -90 q 541 -194 567 -163 q 475 -248 515 -225 q 381 -282 435 -271 l 381 -212 q 430 -193 410 -204 q 461 -169 450 -183 q 478 -140 473 -156 q 483 -106 483 -124 q 477 -68 483 -84 q 452 -39 470 -52 q 402 -16 434 -26 q 320 4 371 -6 q 215 35 261 15 q 138 89 170 56 q 91 169 107 122 q 75 283 75 217 "},"∏":{"x_min":52.421875,"x_max":1048.578125,"ha":1101,"o":"m 1048 992 l 1048 933 l 1030 933 q 986 930 1007 933 q 950 916 965 926 q 925 886 934 905 q 917 833 917 866 l 917 -182 q 927 -231 918 -212 q 951 -259 936 -249 q 987 -272 967 -269 q 1030 -275 1007 -275 l 1048 -275 l 1048 -334 l 644 -334 l 644 -275 l 662 -275 q 707 -272 686 -275 q 743 -258 727 -268 q 767 -227 758 -247 q 776 -175 776 -207 l 776 922 l 324 922 l 324 -175 q 333 -227 324 -207 q 357 -258 342 -247 q 394 -272 373 -268 q 438 -275 415 -275 l 456 -275 l 456 -334 l 52 -334 l 52 -275 l 70 -275 q 114 -272 93 -275 q 150 -258 135 -268 q 175 -227 166 -247 q 184 -175 184 -207 l 184 839 q 173 888 183 869 q 149 917 164 907 q 113 930 133 927 q 70 933 93 933 l 52 933 l 52 992 l 1048 992 "},"Έ":{"x_min":-46,"x_max":920,"ha":978,"o":"m 437 69 l 705 69 q 762 78 739 69 q 801 103 786 87 q 826 139 817 118 q 838 183 835 160 l 848 243 l 920 243 l 910 0 l 165 0 l 165 58 l 183 58 q 226 61 206 58 q 263 73 247 64 q 287 102 278 83 q 297 151 297 120 l 297 833 q 288 886 297 866 q 263 916 279 905 q 227 930 248 926 q 183 933 206 933 l 165 933 l 165 992 l 866 992 l 873 749 l 801 749 l 794 808 q 783 852 791 831 q 761 888 775 873 q 724 913 746 904 q 671 922 702 922 l 437 922 l 437 553 l 773 553 l 773 483 l 437 483 l 437 69 m -46 789 q -29 833 -37 807 q -13 887 -20 859 q 1 942 -5 915 q 11 993 7 970 l 136 993 l 136 978 q 116 935 131 962 q 82 878 102 908 q 39 819 61 848 q 0 771 17 790 l -46 771 l -46 789 "},"Ρ":{"x_min":52.421875,"x_max":785,"ha":839,"o":"m 52 0 l 52 58 l 70 58 q 114 61 93 58 q 150 75 135 65 q 175 105 166 86 q 184 158 184 125 l 184 839 q 174 888 184 869 q 150 917 165 907 q 113 930 134 927 q 70 933 93 933 l 52 933 l 52 992 l 442 992 q 594 971 530 992 q 701 913 659 951 q 764 822 743 876 q 785 700 785 768 q 765 580 785 637 q 702 479 746 523 q 586 409 657 435 q 412 382 515 382 l 324 382 l 324 150 q 333 101 324 120 q 358 73 342 83 q 394 61 373 64 q 438 58 415 58 l 484 58 l 484 0 l 52 0 m 324 452 l 397 452 q 504 465 459 452 q 576 507 548 478 q 617 583 604 536 q 631 694 631 629 q 619 795 631 752 q 582 866 608 838 q 516 909 557 895 q 417 922 476 922 l 324 922 l 324 452 "},"ğ":{"x_min":32,"x_max":731,"ha":747,"o":"m 731 715 q 726 687 731 700 q 713 664 722 674 q 690 648 704 654 q 657 643 676 643 q 655 658 657 650 q 648 673 653 666 q 634 684 643 680 q 611 688 625 688 q 579 685 593 688 q 551 673 565 681 q 590 604 575 644 q 606 505 606 564 q 590 410 606 453 q 543 334 574 366 q 465 284 512 302 q 355 267 418 267 q 337 267 347 267 q 316 268 326 267 q 297 269 306 268 q 283 271 288 270 q 273 256 278 264 q 264 237 268 248 q 259 214 261 227 q 256 186 256 201 q 262 159 256 169 q 279 143 268 148 q 304 135 289 137 q 335 134 318 134 l 479 134 q 576 118 536 134 q 640 75 615 102 q 677 9 666 47 q 689 -73 689 -29 q 666 -181 689 -133 q 599 -263 644 -230 q 484 -315 554 -297 q 320 -334 415 -334 q 103 -276 175 -334 q 32 -117 32 -219 q 45 -41 32 -74 q 82 13 59 -9 q 136 51 106 36 q 200 72 166 65 q 173 86 186 77 q 149 108 160 96 q 132 138 139 121 q 126 174 126 154 q 148 239 126 212 q 219 292 170 266 q 166 325 189 304 q 126 374 142 346 q 102 434 110 401 q 94 501 94 466 q 110 609 94 561 q 159 689 126 656 q 240 740 191 722 q 355 758 289 758 q 405 754 380 758 q 450 744 429 750 q 487 729 470 737 q 514 712 504 721 q 538 736 524 723 q 568 760 551 749 q 605 779 585 772 q 648 787 625 787 q 685 781 669 787 q 710 765 700 775 q 725 742 720 755 q 731 715 731 729 m 162 -103 q 170 -167 162 -137 q 196 -218 177 -197 q 246 -252 215 -240 q 327 -264 278 -264 q 440 -250 395 -264 q 510 -211 484 -236 q 547 -151 536 -186 q 558 -75 558 -116 q 549 -15 558 -39 q 524 21 541 7 q 484 39 508 34 q 428 45 459 45 l 302 45 q 250 39 276 45 q 206 17 225 33 q 174 -27 186 1 q 162 -103 162 -56 m 224 505 q 254 377 224 417 q 351 336 284 336 q 408 346 385 336 q 447 377 432 356 q 468 430 462 397 q 475 507 475 462 q 446 644 475 600 q 350 688 418 688 q 253 643 282 688 q 224 505 224 598 m 356 842 q 270 857 307 842 q 210 898 234 872 q 175 958 187 924 q 162 1033 163 993 l 225 1033 q 271 959 237 981 q 356 937 305 937 q 441 959 407 937 q 486 1033 475 981 l 551 1033 q 537 958 549 993 q 501 898 525 924 q 441 857 477 872 q 356 842 405 842 "},"ª":{"x_min":49,"x_max":507.359375,"ha":530,"o":"m 169 663 q 188 600 169 618 q 233 583 206 583 q 274 592 256 583 q 305 616 293 600 q 324 653 318 631 q 331 699 331 674 l 331 768 l 289 766 q 232 758 255 765 q 195 737 209 750 q 175 706 181 724 q 169 663 169 687 m 262 943 q 228 936 241 943 q 208 916 215 929 q 198 887 201 904 q 195 852 195 871 q 114 866 142 852 q 86 912 86 880 q 100 952 86 936 q 138 979 114 969 q 195 994 163 989 q 265 999 228 999 q 345 991 311 999 q 401 965 379 983 q 435 920 424 947 q 447 851 447 892 l 447 645 q 460 603 447 615 q 507 592 473 592 l 507 537 l 372 537 l 347 600 l 340 600 q 313 573 328 586 q 281 550 299 560 q 241 534 263 540 q 193 528 219 528 q 87 563 126 528 q 49 669 49 599 q 103 771 49 738 q 272 809 158 804 l 331 812 l 331 851 q 329 888 331 871 q 319 917 326 905 q 299 936 312 929 q 262 943 285 943 "},"ї":{"x_min":22,"x_max":427.75,"ha":444,"o":"m 50 58 q 93 61 73 58 q 130 73 114 64 q 154 102 145 83 q 164 151 164 120 l 164 591 q 154 640 164 622 q 130 669 145 659 q 93 683 114 679 q 50 686 73 686 l 46 686 l 46 745 l 294 745 l 294 158 q 304 105 294 125 q 328 75 313 86 q 364 61 343 65 q 408 58 385 58 l 427 58 l 427 0 l 31 0 l 31 58 l 50 58 m 22 956 q 27 992 22 977 q 42 1016 32 1007 q 64 1029 51 1025 q 92 1034 77 1034 q 120 1029 107 1034 q 143 1016 133 1025 q 158 992 152 1007 q 163 956 163 977 q 158 920 163 934 q 143 895 152 905 q 120 882 133 886 q 92 878 107 878 q 42 895 62 878 q 22 956 22 913 m 286 956 q 291 992 286 977 q 306 1016 296 1007 q 328 1029 315 1025 q 356 1034 341 1034 q 384 1029 371 1034 q 407 1016 397 1025 q 422 992 416 1007 q 427 956 427 977 q 422 920 427 934 q 407 895 416 905 q 384 882 397 886 q 356 878 371 878 q 306 895 326 878 q 286 956 286 913 "},"T":{"x_min":28,"x_max":823,"ha":851,"o":"m 494 158 q 503 105 494 125 q 527 75 512 86 q 564 61 543 65 q 608 58 585 58 l 640 58 l 640 0 l 208 0 l 208 58 l 240 58 q 283 61 263 58 q 320 73 304 64 q 344 102 335 83 q 354 151 354 120 l 354 922 l 221 922 q 170 913 190 922 q 136 888 149 904 q 116 852 122 873 q 107 808 110 831 l 99 749 l 28 749 l 34 992 l 816 992 l 823 749 l 751 749 l 744 808 q 734 852 741 831 q 715 888 728 873 q 681 913 702 904 q 629 922 660 922 l 494 922 l 494 158 "},"š":{"x_min":62,"x_max":566,"ha":627,"o":"m 291 -14 q 196 -4 239 -14 q 124 22 154 4 q 78 69 94 41 q 62 133 62 96 q 71 179 62 161 q 93 209 80 198 q 122 224 106 220 q 149 229 137 229 q 156 160 149 192 q 180 104 163 128 q 223 66 196 80 q 290 52 251 52 q 352 61 325 52 q 397 87 379 70 q 425 127 415 104 q 435 178 435 150 q 427 223 435 204 q 401 258 420 241 q 351 291 383 274 q 272 330 320 308 q 183 375 221 353 q 121 423 145 397 q 84 482 96 449 q 72 560 72 515 q 90 645 72 608 q 143 706 109 681 q 226 744 178 731 q 334 757 274 757 q 421 746 383 757 q 485 719 459 736 q 524 678 511 702 q 537 629 537 655 q 510 568 537 591 q 436 546 484 546 q 409 658 436 618 q 325 698 383 698 q 269 690 292 698 q 231 665 246 681 q 209 628 216 650 q 202 581 202 607 q 211 536 202 555 q 240 500 220 516 q 291 468 260 484 q 367 434 323 453 q 456 389 419 411 q 518 340 494 366 q 554 280 542 313 q 566 203 566 247 q 546 108 566 149 q 490 40 526 68 q 404 0 454 13 q 291 -14 353 -14 m 115 1064 l 169 1064 q 209 1036 188 1051 q 248 1005 229 1022 q 285 971 267 988 q 319 937 303 954 q 352 971 334 954 q 390 1005 370 988 q 430 1036 410 1022 q 470 1064 451 1051 l 525 1064 l 525 1045 q 489 1000 508 1026 q 449 947 469 974 q 413 892 430 919 q 385 842 396 865 l 254 842 q 226 892 243 865 q 190 947 209 919 q 150 1000 170 974 q 115 1045 131 1026 l 115 1064 "},"є":{"x_min":77,"x_max":629,"ha":684,"o":"m 393 -14 q 265 7 324 -14 q 165 74 207 28 q 100 193 123 121 q 77 367 77 265 q 100 554 77 479 q 165 674 123 629 q 263 739 207 720 q 386 758 320 758 q 472 749 429 758 q 550 723 515 741 q 606 678 584 705 q 628 616 628 652 q 596 548 628 568 q 503 528 565 528 q 498 590 503 561 q 479 641 493 619 q 444 676 466 663 q 386 688 421 688 q 318 675 349 688 q 265 630 287 662 q 229 546 243 599 q 213 413 216 493 l 520 413 l 520 333 l 211 333 q 227 219 214 268 q 266 138 241 170 q 330 90 291 106 q 421 74 368 74 q 533 101 485 74 q 605 171 581 129 q 622 150 615 163 q 629 117 629 136 q 614 70 629 93 q 569 28 599 46 q 496 -2 540 9 q 393 -14 452 -14 "},"Þ":{"x_min":52.421875,"x_max":785,"ha":839,"o":"m 52 0 l 52 58 l 70 58 q 114 61 93 58 q 150 75 135 65 q 175 105 166 86 q 184 158 184 125 l 184 833 q 175 886 184 866 q 150 916 166 905 q 114 930 135 926 q 70 933 93 933 l 52 933 l 52 992 l 470 992 l 470 933 l 438 933 q 394 930 415 933 q 357 916 373 926 q 333 886 342 905 q 324 834 324 866 l 324 792 l 442 792 q 701 721 617 792 q 785 514 785 650 q 765 397 785 452 q 702 300 746 341 q 586 234 657 258 q 412 210 515 210 l 324 210 l 324 156 q 333 104 324 124 q 357 75 342 85 q 394 61 373 64 q 438 58 415 58 l 470 58 l 470 0 l 52 0 m 324 280 l 397 280 q 504 291 459 280 q 576 328 548 302 q 617 399 604 355 q 631 509 631 443 q 619 607 631 567 q 582 673 608 648 q 516 711 557 699 q 417 722 476 722 l 324 722 l 324 280 "},"j":{"x_min":-16.84375,"x_max":289,"ha":416,"o":"m 280 745 l 280 -10 q 260 -166 280 -104 q 203 -265 240 -228 q 116 -318 166 -302 q 5 -334 65 -334 l -16 -334 l -16 -264 l -6 -264 q 59 -252 30 -264 q 108 -210 88 -239 q 139 -131 128 -180 q 150 -9 150 -82 l 150 592 q 140 641 150 622 q 116 669 131 659 q 79 683 100 679 q 36 686 59 686 l 31 686 l 31 745 l 280 745 m 131 969 q 137 1010 131 993 q 153 1036 143 1026 q 178 1050 164 1046 q 209 1055 193 1055 q 240 1050 225 1055 q 265 1036 255 1046 q 282 1010 276 1026 q 289 969 289 993 q 282 928 289 944 q 265 902 276 912 q 240 887 255 891 q 209 883 225 883 q 178 887 193 883 q 153 902 164 891 q 137 928 143 912 q 131 969 131 944 "},"Σ":{"x_min":32,"x_max":782,"ha":840,"o":"m 573 127 q 629 137 606 127 q 667 164 652 147 q 691 206 683 182 q 704 259 700 231 l 710 301 l 782 301 l 775 0 l 32 0 l 32 44 l 320 486 l 63 951 l 63 992 l 714 992 l 721 749 l 649 749 l 642 809 q 632 853 639 832 q 610 888 624 873 q 573 913 595 904 q 520 922 551 922 l 230 922 l 436 552 l 436 531 l 172 127 l 573 127 "},"1":{"x_min":91.09375,"x_max":662.15625,"ha":777,"o":"m 133 0 l 133 58 l 226 58 q 270 61 249 58 q 306 75 291 65 q 330 105 321 86 q 340 158 340 125 l 340 887 q 289 828 313 855 q 244 783 266 802 q 201 753 222 764 q 160 743 181 743 q 110 763 130 743 q 91 817 91 784 q 133 830 112 823 q 178 851 154 838 q 231 881 203 863 q 293 925 259 899 l 391 997 l 480 997 l 480 158 q 489 105 480 125 q 513 75 498 86 q 549 61 529 65 q 594 58 570 58 l 662 58 l 662 0 l 133 0 "},"ϒ":{"x_min":-6.703125,"x_max":905.5,"ha":889,"o":"m 620 58 l 653 58 l 653 0 l 221 0 l 221 58 l 253 58 q 296 61 276 58 q 333 73 317 64 q 357 102 348 83 q 367 151 367 120 l 367 273 q 355 364 367 315 q 325 463 343 412 q 284 562 307 513 q 238 656 261 612 q 195 735 215 700 q 161 793 175 771 q 127 844 145 819 q 89 889 109 870 q 46 921 69 909 q -1 933 23 933 l -6 933 l -6 992 l 63 992 q 145 983 111 992 q 208 954 180 975 q 262 898 237 933 q 315 807 286 862 q 361 712 339 760 q 402 619 383 664 q 436 533 421 574 q 463 457 452 491 q 491 552 476 503 q 524 647 507 601 q 557 737 540 694 q 588 814 573 780 q 639 907 615 871 q 688 964 663 943 q 739 994 712 985 q 796 1002 765 1002 q 878 975 851 1002 q 905 905 905 948 q 900 869 905 886 q 885 841 894 852 q 865 823 876 829 q 841 817 853 817 q 819 868 835 847 q 771 889 803 889 q 737 882 753 889 q 705 857 721 876 q 669 804 688 838 q 628 717 651 770 q 605 662 617 694 q 579 594 592 631 q 552 518 565 558 q 529 440 539 479 q 513 364 519 401 q 507 295 507 327 l 507 158 q 516 105 507 125 q 540 75 525 86 q 576 61 556 65 q 620 58 596 58 "},"ℓ":{"x_min":62,"x_max":615,"ha":695,"o":"m 441 53 q 482 61 463 53 q 515 89 500 70 q 540 138 530 108 q 556 212 550 169 l 615 212 q 591 113 606 156 q 550 42 575 71 q 492 -1 526 13 q 412 -16 458 -16 q 328 -1 365 -16 q 264 42 290 13 q 224 116 238 72 q 210 216 210 159 l 210 345 q 137 323 174 333 q 62 303 99 312 l 62 361 q 138 382 101 371 q 210 405 175 394 l 210 791 q 255 959 210 900 q 402 1018 301 1018 q 531 959 486 1018 q 576 791 576 900 q 558 657 576 717 q 508 550 540 597 q 434 466 477 503 q 340 402 391 430 l 340 219 q 346 152 340 183 q 365 99 352 122 q 396 65 377 77 q 441 53 415 53 m 517 790 q 511 855 517 826 q 493 905 504 885 q 464 937 481 926 q 425 948 447 948 q 382 936 399 948 q 357 902 366 924 q 344 851 347 881 q 340 787 340 822 l 340 470 q 416 522 383 493 q 471 590 449 551 q 506 677 494 628 q 517 790 517 727 "},"ĉ":{"x_min":77,"x_max":629,"ha":684,"o":"m 393 -14 q 265 7 324 -14 q 165 74 207 28 q 100 193 123 121 q 77 367 77 265 q 100 554 77 479 q 165 674 123 629 q 263 739 207 720 q 386 758 320 758 q 472 749 429 758 q 550 723 515 741 q 606 679 584 705 q 628 616 628 652 q 596 548 628 568 q 503 529 565 529 q 498 590 503 561 q 479 641 493 619 q 444 676 466 663 q 386 688 421 688 q 314 673 346 688 q 259 622 282 658 q 224 523 236 585 q 211 368 211 461 q 260 147 211 220 q 421 74 309 74 q 533 102 485 74 q 605 173 581 129 q 622 151 615 164 q 629 118 629 137 q 614 71 629 95 q 569 28 599 47 q 496 -2 540 9 q 393 -14 452 -14 m 188 860 q 223 905 204 879 q 263 958 243 931 q 299 1013 282 986 q 327 1064 316 1040 l 458 1064 q 486 1013 469 1040 q 522 958 503 986 q 562 905 542 931 q 598 860 581 879 l 598 842 l 543 842 q 463 899 503 864 q 392 966 423 933 q 321 899 360 933 q 242 842 281 864 l 188 842 l 188 860 "},"ī":{"x_min":2,"x_max":427.15625,"ha":444,"o":"m 50 58 q 93 61 73 58 q 130 73 114 64 q 154 102 145 83 q 164 151 164 120 l 164 591 q 154 640 164 622 q 130 669 145 659 q 93 683 114 679 q 50 686 73 686 l 46 686 l 46 745 l 294 745 l 294 158 q 304 105 294 125 q 328 75 313 86 q 364 61 343 65 q 408 58 385 58 l 427 58 l 427 0 l 31 0 l 31 58 l 50 58 m 405 842 l 2 842 l 2 924 l 405 924 l 405 842 "},"О":{"x_min":78,"x_max":952,"ha":1031,"o":"m 952 496 q 923 287 952 382 q 839 126 895 193 q 702 22 783 59 q 515 -14 620 -14 q 322 22 405 -14 q 186 126 240 59 q 105 288 132 193 q 78 498 78 382 q 105 707 78 613 q 186 867 132 801 q 323 970 240 934 q 517 1007 406 1007 q 702 970 622 1007 q 839 867 783 934 q 923 706 895 800 q 952 496 952 612 m 231 497 q 247 312 231 393 q 296 175 262 231 q 384 90 330 119 q 515 60 438 60 q 647 90 593 60 q 734 175 700 119 q 783 312 768 231 q 798 497 798 393 q 783 681 798 600 q 734 818 768 762 q 647 903 700 874 q 517 932 594 932 q 385 903 439 932 q 296 818 331 874 q 247 681 262 762 q 231 497 231 600 "},"ξ":{"x_min":75,"x_max":622,"ha":653,"o":"m 209 289 q 224 213 209 243 q 268 162 239 183 q 341 126 297 140 q 441 98 384 112 q 515 77 482 89 q 572 46 548 64 q 609 4 596 29 q 622 -54 622 -20 q 609 -127 622 -90 q 570 -194 596 -163 q 503 -248 543 -225 q 409 -282 463 -271 l 409 -209 q 458 -190 438 -201 q 490 -167 478 -180 q 507 -138 501 -153 q 512 -104 512 -122 q 505 -67 512 -83 q 480 -38 498 -51 q 431 -16 462 -26 q 349 4 399 -6 q 240 33 290 15 q 152 81 189 52 q 95 154 116 111 q 75 257 75 197 q 96 364 75 313 q 153 458 117 415 q 241 535 190 501 q 350 592 291 569 l 350 600 q 270 623 309 610 q 201 655 231 637 q 153 698 171 673 q 135 754 135 722 q 148 812 135 784 q 184 864 161 839 q 236 909 206 888 q 299 947 266 930 q 244 957 273 951 q 187 974 216 964 q 132 997 159 984 q 84 1028 106 1011 l 123 1078 q 169 1050 142 1063 q 228 1026 197 1037 q 292 1007 259 1015 q 357 997 325 1000 q 394 1019 373 1008 q 440 1039 415 1030 q 489 1053 464 1048 q 537 1059 514 1059 q 580 1047 567 1059 q 594 1016 594 1036 q 578 981 594 996 q 533 955 562 965 q 461 939 503 944 q 365 934 418 934 q 292 859 318 900 q 265 768 265 819 q 278 722 265 743 q 313 684 291 701 q 362 655 334 667 q 420 636 390 643 q 447 649 432 642 q 477 661 462 656 q 508 669 493 666 q 537 673 524 673 q 580 662 563 673 q 597 632 597 650 q 589 609 597 620 q 567 589 582 598 q 530 576 552 581 q 480 570 509 570 q 466 571 475 570 q 448 573 457 572 q 429 575 438 574 q 414 577 421 576 q 344 536 380 565 q 278 469 308 508 q 229 383 248 430 q 209 289 209 337 "},"Ď":{"x_min":52.421875,"x_max":931,"ha":1010,"o":"m 931 497 q 902 291 931 383 q 817 134 873 199 q 676 34 761 69 q 478 0 591 0 l 52 0 l 52 58 l 70 58 q 114 61 93 58 q 150 75 135 65 q 175 105 166 86 q 184 158 184 125 l 184 839 q 174 888 184 869 q 150 917 165 907 q 113 930 134 927 q 70 933 93 933 l 52 933 l 52 992 l 478 992 q 669 959 585 992 q 811 863 753 926 q 900 707 869 799 q 931 497 931 615 m 445 69 q 590 97 528 69 q 694 179 652 125 q 756 313 735 234 q 777 496 777 393 q 694 813 777 703 q 446 922 611 922 l 324 922 l 324 69 l 445 69 m 256 1293 l 310 1293 q 350 1265 329 1280 q 389 1234 370 1251 q 426 1200 408 1217 q 460 1166 444 1183 q 493 1200 475 1183 q 531 1234 511 1217 q 571 1265 551 1251 q 611 1293 592 1280 l 666 1293 l 666 1274 q 630 1229 649 1255 q 590 1176 610 1203 q 554 1121 571 1148 q 526 1071 537 1094 l 395 1071 q 367 1121 384 1094 q 331 1176 350 1148 q 291 1229 311 1203 q 256 1274 272 1255 l 256 1293 "},"&":{"x_min":50,"x_max":1018,"ha":1031,"o":"m 796 0 l 681 122 q 626 68 656 93 q 559 25 595 43 q 478 -3 522 7 q 380 -14 433 -14 q 235 7 297 -14 q 131 66 172 28 q 70 158 90 104 q 50 277 50 211 q 66 380 50 336 q 110 457 82 424 q 181 515 139 490 q 272 561 222 540 q 225 622 245 593 q 192 679 205 650 q 171 737 178 707 q 165 801 165 767 q 179 885 165 847 q 226 949 194 922 q 308 991 258 976 q 427 1006 358 1006 q 540 990 493 1006 q 617 947 587 974 q 659 884 646 920 q 673 808 673 848 q 660 729 673 763 q 619 665 647 694 q 547 610 591 636 q 439 556 503 584 l 692 288 q 707 352 701 320 q 717 415 713 384 q 722 476 721 446 q 724 530 724 505 l 724 585 l 974 585 l 974 526 l 961 526 q 915 523 938 526 q 874 511 893 521 q 839 482 854 501 q 815 432 824 464 q 787 335 803 387 q 747 230 771 282 l 876 92 q 897 75 886 82 q 922 65 908 69 q 957 59 937 61 q 1005 58 977 58 l 1018 58 l 1018 0 l 796 0 m 393 65 q 468 73 433 65 q 533 96 503 82 q 586 131 562 111 q 631 176 611 152 l 324 505 q 266 466 292 487 q 222 416 240 444 q 194 353 204 388 q 184 274 184 318 q 199 184 184 223 q 242 119 214 145 q 308 78 270 92 q 393 65 346 65 m 550 806 q 544 858 550 834 q 522 899 537 882 q 482 926 507 916 q 423 936 458 936 q 328 900 361 936 q 295 805 295 865 q 301 756 295 779 q 318 710 306 733 q 348 663 330 687 q 392 609 366 638 q 463 647 433 627 q 512 690 493 666 q 541 741 532 713 q 550 806 550 770 "},"G":{"x_min":79,"x_max":965.046875,"ha":992,"o":"m 556 -14 q 345 22 435 -14 q 196 126 256 59 q 108 288 137 193 q 79 497 79 382 q 109 703 79 609 q 202 864 140 796 q 354 968 263 931 q 565 1006 445 1006 q 700 994 642 1006 q 795 961 757 982 q 853 911 834 940 q 872 850 872 883 q 861 809 872 827 q 834 779 851 791 q 793 759 817 766 q 743 753 770 753 q 733 817 743 785 q 702 874 724 848 q 645 915 680 899 q 559 931 610 931 q 409 902 471 931 q 307 817 346 873 q 250 680 268 762 q 232 494 232 599 q 251 309 232 390 q 310 173 269 228 q 418 89 352 117 q 579 60 484 60 q 656 64 619 60 q 723 77 694 68 l 723 302 q 714 352 723 333 q 689 380 705 371 q 653 394 674 390 q 609 397 632 397 l 604 397 l 604 456 l 965 456 l 965 397 l 959 397 q 922 394 939 397 q 891 380 904 390 q 871 350 878 370 q 864 297 864 330 l 864 49 q 720 1 794 17 q 556 -14 646 -14 "},"ΰ":{"x_min":25.203125,"x_max":747,"ha":823,"o":"m 426 -14 q 304 5 356 -14 q 218 62 253 25 q 166 154 183 100 q 150 276 150 208 l 150 591 q 139 640 150 622 q 112 669 129 659 q 74 683 95 679 q 29 686 52 686 l 25 686 l 25 745 l 280 745 l 280 288 q 324 129 280 183 q 448 74 368 74 q 554 100 513 74 q 618 170 595 125 q 651 277 642 216 q 660 412 660 339 q 648 515 660 470 q 618 593 637 561 q 575 643 599 624 q 528 669 551 662 q 535 706 528 690 q 552 733 541 722 q 578 750 563 744 q 609 756 593 756 q 671 729 645 756 q 714 658 697 702 q 738 558 730 614 q 747 444 747 502 q 740 328 747 385 q 719 220 734 271 q 681 126 704 169 q 621 52 657 83 q 537 3 585 21 q 426 -14 489 -14 m 197 945 q 216 998 197 982 q 262 1015 235 1015 q 287 1010 275 1015 q 308 998 299 1006 q 322 977 317 989 q 328 945 328 964 q 308 892 328 909 q 262 876 288 876 q 216 892 235 876 q 197 945 197 909 m 493 945 q 511 998 493 982 q 558 1015 530 1015 q 582 1010 570 1015 q 603 998 594 1006 q 617 977 612 989 q 623 945 623 964 q 603 892 623 909 q 558 876 583 876 q 511 892 530 876 q 493 945 493 909 m 361 959 q 377 1004 369 978 q 394 1058 386 1030 q 408 1114 402 1086 q 418 1164 415 1141 l 543 1164 l 543 1150 q 523 1106 538 1133 q 489 1048 509 1079 q 447 990 468 1018 q 407 942 425 961 l 361 942 l 361 959 "},"`":{"x_min":266,"x_max":536,"ha":802,"o":"m 536 842 l 483 842 q 422 889 455 860 q 359 946 390 917 q 303 1004 329 976 q 266 1049 278 1031 l 266 1064 l 414 1064 q 440 1013 425 1040 q 470 958 454 986 q 504 905 487 931 q 536 860 521 879 l 536 842 "},"ŏ":{"x_min":77,"x_max":725,"ha":802,"o":"m 725 373 q 641 81 725 177 q 398 -14 558 -14 q 264 9 323 -14 q 162 81 204 33 q 99 202 121 129 q 77 373 77 275 q 159 663 77 568 q 403 758 241 758 q 537 734 478 758 q 639 663 597 711 q 702 543 680 615 q 725 373 725 471 m 211 374 q 222 236 211 295 q 254 136 232 176 q 313 75 277 96 q 402 55 349 55 q 489 75 454 55 q 548 136 525 96 q 580 236 570 176 q 590 374 590 295 q 579 511 590 452 q 547 609 569 570 q 488 668 525 649 q 400 688 452 688 q 312 668 348 688 q 254 609 276 649 q 222 511 232 570 q 211 374 211 452 m 400 842 q 314 857 351 842 q 254 898 278 872 q 219 958 231 924 q 206 1033 207 993 l 269 1033 q 315 959 281 981 q 400 937 349 937 q 485 959 451 937 q 530 1033 519 981 l 595 1033 q 581 958 593 993 q 545 898 569 924 q 485 857 521 872 q 400 842 449 842 "},"ý":{"x_min":5,"x_max":785,"ha":785,"o":"m 785 745 l 785 686 l 780 686 q 746 682 760 686 q 719 665 731 677 q 697 632 707 653 q 675 578 687 611 l 463 -5 q 417 -123 439 -72 q 372 -210 396 -174 q 320 -270 348 -247 q 256 -308 292 -294 q 173 -328 220 -323 q 65 -334 126 -334 l 52 -334 l 52 -264 q 174 -244 123 -264 q 262 -187 225 -223 q 323 -101 299 -150 q 365 5 348 -52 l 108 612 q 89 648 98 634 q 69 671 80 662 q 44 683 58 679 q 9 686 29 686 l 5 686 l 5 745 l 338 745 l 338 686 l 334 686 q 271 670 292 686 q 251 619 251 654 q 253 596 251 607 q 262 568 255 584 l 364 320 q 384 269 373 297 q 403 213 394 240 q 420 161 412 185 q 430 119 427 137 l 434 119 q 455 193 442 149 q 486 287 468 237 l 579 558 q 588 590 585 575 q 591 618 591 606 q 568 670 591 654 q 500 686 546 686 l 496 686 l 496 745 l 785 745 m 342 860 q 374 905 357 879 q 406 958 390 931 q 437 1013 422 986 q 462 1064 451 1040 l 611 1064 l 611 1049 q 573 1004 598 1031 q 517 946 547 976 q 454 889 487 917 q 394 842 422 860 l 342 842 l 342 860 "},"º":{"x_min":49,"x_max":502,"ha":551,"o":"m 169 765 q 193 629 169 674 q 275 583 216 583 q 357 629 333 583 q 381 765 381 674 q 356 899 381 855 q 274 943 332 943 q 193 899 216 943 q 169 765 169 855 m 502 763 q 444 586 502 644 q 275 528 386 528 q 108 586 168 528 q 49 763 49 645 q 106 941 49 883 q 277 999 164 999 q 371 984 330 999 q 441 940 412 969 q 486 867 470 911 q 502 763 502 823 "},"∞":{"x_min":49,"x_max":933,"ha":982,"o":"m 933 401 q 917 299 933 347 q 873 215 901 251 q 805 157 845 178 q 717 136 766 136 q 592 176 653 136 q 481 306 531 216 q 383 182 439 224 q 266 141 327 141 q 179 159 218 141 q 109 212 139 178 q 64 295 80 246 q 49 406 49 345 q 64 510 49 461 q 108 594 80 558 q 176 650 137 629 q 266 671 216 671 q 329 661 298 671 q 391 632 361 652 q 448 581 421 612 q 499 505 476 550 q 595 626 542 586 q 719 666 649 666 q 806 647 766 666 q 873 594 845 628 q 917 511 901 559 q 933 401 933 462 m 717 583 q 623 538 665 583 q 540 401 582 493 q 620 265 578 311 q 719 220 662 220 q 776 234 751 220 q 820 273 802 248 q 847 331 838 298 q 857 403 857 365 q 847 474 857 441 q 819 531 837 506 q 774 569 800 555 q 717 583 749 583 m 263 224 q 357 269 313 224 q 441 406 400 313 q 360 541 403 496 q 260 587 317 587 q 205 573 230 587 q 162 534 180 559 q 135 475 145 508 q 126 404 126 442 q 134 335 126 368 q 160 278 143 303 q 203 238 177 253 q 263 224 229 224 "},"ź":{"x_min":58,"x_max":632,"ha":710,"o":"m 471 79 q 512 88 496 79 q 538 113 528 98 q 555 150 549 129 q 566 193 562 170 l 573 225 l 632 225 l 625 0 l 58 0 l 58 55 l 461 665 l 243 665 q 198 658 216 665 q 169 637 180 651 q 150 602 158 623 q 136 553 143 581 l 135 548 l 78 548 l 91 745 l 624 745 l 624 688 l 219 79 l 471 79 m 290 860 q 322 905 305 879 q 354 958 338 931 q 385 1013 370 986 q 410 1064 399 1040 l 559 1064 l 559 1049 q 521 1004 546 1031 q 465 946 495 976 q 402 889 435 917 q 342 842 370 860 l 290 842 l 290 860 "},"я":{"x_min":11,"x_max":754.578125,"ha":773,"o":"m 356 686 q 284 674 314 686 q 237 643 255 663 q 211 598 219 623 q 203 544 203 572 q 212 487 203 514 q 238 439 220 459 q 285 407 256 419 q 356 395 314 395 l 492 395 l 492 686 l 356 686 m 261 111 q 229 62 246 83 q 184 28 211 41 q 116 7 157 14 q 11 0 74 0 l 11 58 l 15 58 q 49 63 34 58 q 77 77 64 67 q 103 103 91 87 q 129 141 116 119 l 251 350 q 187 371 219 357 q 128 410 154 386 q 85 468 102 434 q 69 546 69 502 q 85 629 69 592 q 136 692 102 666 q 223 731 170 717 q 350 745 276 745 l 741 745 l 741 686 l 736 686 q 692 683 713 686 q 656 669 672 679 q 632 640 641 659 q 623 591 623 622 l 623 151 q 632 102 623 120 q 656 73 641 83 q 692 61 672 64 q 736 58 713 58 l 754 58 l 754 0 l 359 0 l 359 58 l 378 58 q 421 61 401 58 q 458 73 442 64 q 482 101 473 83 q 492 150 492 120 l 492 325 l 376 325 l 261 111 "},"Ё":{"x_min":52.421875,"x_max":807,"ha":865,"o":"m 324 69 l 592 69 q 649 78 626 69 q 688 103 673 87 q 713 139 704 118 q 725 183 722 160 l 735 243 l 807 243 l 797 0 l 52 0 l 52 58 l 70 58 q 113 61 93 58 q 150 73 134 64 q 174 102 165 83 q 184 151 184 120 l 184 833 q 175 886 184 866 q 150 916 166 905 q 114 930 135 926 q 70 933 93 933 l 52 933 l 52 992 l 753 992 l 760 749 l 688 749 l 681 808 q 670 852 678 831 q 648 888 662 873 q 611 913 633 904 q 558 922 589 922 l 324 922 l 324 553 l 660 553 l 660 483 l 324 483 l 324 69 m 232 1185 q 237 1221 232 1206 q 252 1245 242 1236 q 274 1258 261 1254 q 302 1263 287 1263 q 330 1258 317 1263 q 353 1245 343 1254 q 368 1221 362 1236 q 373 1185 373 1206 q 368 1149 373 1163 q 353 1124 362 1134 q 330 1111 343 1115 q 302 1107 317 1107 q 252 1124 272 1107 q 232 1185 232 1142 m 496 1185 q 501 1221 496 1206 q 516 1245 506 1236 q 538 1258 525 1254 q 566 1263 551 1263 q 594 1258 581 1263 q 617 1245 607 1254 q 632 1221 626 1236 q 637 1185 637 1206 q 632 1149 637 1163 q 617 1124 626 1134 q 594 1111 607 1115 q 566 1107 581 1107 q 516 1124 536 1107 q 496 1185 496 1142 "},"ń":{"x_min":38.53125,"x_max":857.234375,"ha":896,"o":"m 412 58 l 412 0 l 38 0 l 38 58 l 50 58 q 94 61 73 58 q 130 75 115 65 q 154 105 145 86 q 164 158 164 125 l 164 591 q 154 640 164 622 q 130 669 145 659 q 93 683 114 679 q 50 686 73 686 l 46 686 l 46 745 l 271 745 l 289 631 l 296 631 q 341 695 317 670 q 392 733 366 720 q 449 752 419 747 q 513 758 479 758 q 610 742 567 758 q 684 693 653 726 q 730 608 714 660 q 746 486 746 557 l 746 157 q 753 105 746 125 q 775 75 761 86 q 809 61 790 65 q 852 58 829 58 l 857 58 l 857 0 l 615 0 l 615 479 q 606 560 615 524 q 580 619 598 595 q 533 656 562 644 q 462 669 504 669 q 383 650 415 669 q 331 601 351 632 q 303 529 311 570 q 294 444 294 488 l 294 151 q 304 102 294 120 q 328 73 313 83 q 365 61 344 64 q 408 58 385 58 l 412 58 m 386 860 q 418 905 401 879 q 450 958 434 931 q 481 1013 466 986 q 506 1064 495 1040 l 655 1064 l 655 1049 q 617 1004 642 1031 q 561 946 591 976 q 498 889 531 917 q 438 842 466 860 l 386 842 l 386 860 "}," ":{"x_min":0,"x_max":0,"ha":347},"Г":{"x_min":52.421875,"x_max":751,"ha":779,"o":"m 484 0 l 52 0 l 52 58 l 70 58 q 114 61 93 58 q 150 75 135 65 q 175 105 166 86 q 184 158 184 125 l 184 833 q 175 886 184 866 q 150 916 166 905 q 114 930 135 926 q 70 933 93 933 l 52 933 l 52 992 l 742 992 l 751 749 l 679 749 l 673 797 q 663 850 670 827 q 641 889 656 873 q 600 914 626 905 q 534 922 575 922 l 324 922 l 324 152 q 333 103 324 122 q 358 74 342 84 q 394 61 373 64 q 438 58 415 58 l 484 58 l 484 0 "},"Ь":{"x_min":52.421875,"x_max":785,"ha":839,"o":"m 484 992 l 484 933 l 438 933 q 394 930 415 933 q 358 918 373 927 q 333 889 342 908 q 324 840 324 871 l 324 549 l 412 549 q 583 528 513 549 q 699 472 654 508 q 764 386 744 436 q 785 275 785 335 q 764 163 785 214 q 701 76 743 113 q 594 20 659 40 q 442 0 530 0 l 52 0 l 52 58 l 70 58 q 113 61 93 58 q 150 74 134 64 q 174 103 165 84 q 184 152 184 122 l 184 833 q 175 886 184 866 q 150 916 166 905 q 114 930 135 926 q 70 933 93 933 l 52 933 l 52 992 l 484 992 m 324 66 l 417 66 q 516 78 476 66 q 582 115 557 91 q 619 178 608 140 q 631 266 631 215 q 617 364 631 323 q 576 430 604 405 q 504 468 548 456 q 397 479 459 479 l 324 479 l 324 66 "},"¤":{"x_min":89.234375,"x_max":686.40625,"ha":777,"o":"m 134 497 q 145 577 134 539 q 180 645 157 614 l 89 737 l 147 796 l 237 704 q 307 740 269 727 q 387 753 344 753 q 465 740 428 753 q 534 704 503 727 l 628 797 l 686 737 l 594 645 q 630 577 617 614 q 643 497 643 539 q 630 417 643 455 q 594 348 617 380 l 686 257 l 629 198 l 536 290 q 467 255 504 268 q 387 243 429 243 q 308 255 345 243 q 239 290 270 267 l 147 198 l 89 257 l 179 348 q 145 417 157 380 q 134 497 134 455 m 211 497 q 225 428 211 460 q 263 372 239 396 q 319 333 287 348 q 387 319 350 319 q 457 333 425 319 q 514 372 490 348 q 551 428 537 396 q 565 497 565 460 q 551 567 565 535 q 514 624 537 600 q 457 662 490 648 q 387 676 425 676 q 319 662 350 676 q 263 624 287 648 q 225 567 239 600 q 211 497 211 535 "},"Ĝ":{"x_min":79,"x_max":965.046875,"ha":992,"o":"m 556 -14 q 345 22 435 -14 q 196 126 256 59 q 108 288 137 193 q 79 497 79 382 q 109 703 79 609 q 202 864 140 796 q 354 968 263 931 q 565 1006 445 1006 q 700 994 642 1006 q 795 961 757 982 q 853 911 834 940 q 872 850 872 883 q 861 809 872 827 q 834 779 851 791 q 793 759 817 766 q 743 753 770 753 q 733 817 743 785 q 702 874 724 848 q 645 915 680 899 q 559 931 610 931 q 409 902 471 931 q 307 817 346 873 q 250 680 268 762 q 232 494 232 599 q 251 309 232 390 q 310 173 269 228 q 418 89 352 117 q 579 60 484 60 q 656 64 619 60 q 723 77 694 68 l 723 302 q 714 352 723 333 q 689 380 705 371 q 653 394 674 390 q 609 397 632 397 l 604 397 l 604 456 l 965 456 l 965 397 l 959 397 q 922 394 939 397 q 891 380 904 390 q 871 350 878 370 q 864 297 864 330 l 864 49 q 720 1 794 17 q 556 -14 646 -14 m 342 1089 q 377 1134 358 1108 q 417 1187 397 1160 q 453 1242 436 1215 q 481 1293 470 1269 l 612 1293 q 640 1242 623 1269 q 676 1187 657 1215 q 716 1134 696 1160 q 752 1089 735 1108 l 752 1071 l 697 1071 q 617 1128 657 1093 q 546 1195 577 1162 q 475 1128 514 1162 q 396 1071 435 1093 l 342 1071 l 342 1089 "},"p":{"x_min":18.421875,"x_max":777,"ha":853,"o":"m 469 669 q 378 651 415 669 q 320 596 342 633 q 290 504 299 559 q 280 373 280 448 q 290 245 280 300 q 321 151 299 189 q 379 94 343 113 q 470 74 415 74 q 549 94 517 74 q 602 151 581 113 q 632 245 623 189 q 642 374 642 301 q 632 503 642 448 q 602 595 623 559 q 548 650 581 632 q 469 669 515 669 m 777 373 q 758 199 777 272 q 703 78 739 126 q 614 8 667 31 q 493 -14 561 -14 q 420 -5 453 -14 q 361 19 388 3 q 315 58 335 36 q 280 108 295 80 l 275 108 q 278 40 276 72 q 279 14 278 28 q 279 -11 279 0 q 280 -33 280 -24 q 280 -49 280 -43 l 280 -182 q 290 -231 280 -212 q 314 -259 299 -249 q 351 -272 330 -269 q 394 -275 371 -275 l 398 -275 l 398 -334 l 25 -334 l 25 -275 l 36 -275 q 80 -272 59 -275 q 116 -258 101 -268 q 140 -227 131 -247 q 150 -175 150 -207 l 150 591 q 140 640 150 622 q 116 669 131 659 q 79 683 100 679 q 36 686 59 686 l 18 686 l 18 745 l 261 745 l 275 618 l 280 618 q 316 676 296 650 q 361 720 335 702 q 420 748 387 738 q 493 758 452 758 q 614 735 561 758 q 703 665 667 712 q 758 545 739 618 q 777 373 777 473 "},"Ю":{"x_min":52.421875,"x_max":1366,"ha":1445,"o":"m 1366 496 q 1338 287 1366 382 q 1258 126 1311 193 q 1127 22 1205 59 q 950 -14 1050 -14 q 769 21 846 -14 q 639 121 691 56 q 561 278 587 186 q 533 483 535 370 l 324 483 l 324 158 q 333 105 324 125 q 357 75 342 86 q 394 61 373 65 q 438 58 415 58 l 456 58 l 456 0 l 52 0 l 52 58 l 70 58 q 114 61 93 58 q 150 75 135 65 q 175 105 166 86 q 184 158 184 125 l 184 839 q 174 888 184 869 q 150 917 165 907 q 113 930 134 927 q 70 933 93 933 l 52 933 l 52 992 l 456 992 l 456 933 l 438 933 q 394 930 415 933 q 357 916 373 926 q 333 886 342 905 q 324 833 324 866 l 324 553 l 534 553 q 568 740 540 656 q 649 883 597 824 q 776 974 701 942 q 951 1007 852 1007 q 1128 970 1051 1007 q 1258 867 1205 934 q 1338 706 1311 800 q 1366 496 1366 612 m 686 497 q 701 312 686 393 q 746 175 715 231 q 828 90 778 119 q 950 60 878 60 q 1072 90 1022 60 q 1153 175 1122 119 q 1198 312 1184 231 q 1212 497 1212 393 q 1198 681 1212 600 q 1153 818 1184 762 q 1072 903 1122 874 q 951 932 1022 932 q 829 903 879 932 q 747 818 778 874 q 701 681 715 762 q 686 497 686 600 "},"ο":{"x_min":77,"x_max":725,"ha":802,"o":"m 725 373 q 641 81 725 177 q 398 -14 558 -14 q 264 9 323 -14 q 162 81 204 33 q 99 202 121 129 q 77 373 77 275 q 159 663 77 568 q 403 758 241 758 q 537 734 478 758 q 639 663 597 711 q 702 543 680 615 q 725 373 725 471 m 211 374 q 222 236 211 295 q 254 136 232 176 q 313 75 277 96 q 402 55 349 55 q 489 75 454 55 q 548 136 525 96 q 580 236 570 176 q 590 374 590 295 q 579 511 590 452 q 547 609 569 570 q 488 668 525 649 q 400 688 452 688 q 312 668 348 688 q 254 609 276 649 q 222 511 232 570 q 211 374 211 452 "},"S":{"x_min":66,"x_max":685,"ha":756,"o":"m 342 -14 q 223 0 275 -14 q 136 39 171 14 q 83 101 101 65 q 66 181 66 137 q 92 249 66 223 q 166 275 118 275 q 179 192 168 231 q 212 121 190 152 q 268 73 234 91 q 349 55 301 55 q 493 100 441 55 q 544 230 544 145 q 533 297 544 267 q 498 351 523 326 q 433 398 473 375 q 333 446 393 421 q 222 502 269 472 q 143 569 175 532 q 97 652 112 606 q 82 754 82 697 q 104 860 82 814 q 168 939 127 907 q 264 989 208 972 q 386 1006 320 1006 q 496 993 448 1006 q 578 958 544 980 q 628 908 611 936 q 646 850 646 880 q 616 782 646 805 q 536 760 587 760 q 529 824 536 792 q 504 880 521 855 q 457 921 486 905 q 386 936 428 936 q 317 925 347 936 q 265 893 286 914 q 233 843 244 873 q 222 778 222 814 q 232 705 222 737 q 268 648 243 674 q 333 600 293 623 q 432 553 373 577 q 539 500 492 528 q 618 438 585 472 q 667 361 650 403 q 685 265 685 318 q 660 147 685 199 q 592 59 636 95 q 484 4 547 23 q 342 -14 420 -14 "},"/":{"x_min":0,"x_max":400,"ha":400,"o":"m 82 -168 l 0 -168 l 319 1055 l 400 1055 l 82 -168 "},"Ŧ":{"x_min":28,"x_max":823,"ha":851,"o":"m 494 524 l 728 524 l 728 454 l 494 454 l 494 157 q 503 105 494 125 q 527 75 512 86 q 564 61 543 65 q 608 58 585 58 l 640 58 l 640 0 l 208 0 l 208 58 l 240 58 q 283 61 263 58 q 320 73 304 64 q 344 101 335 83 q 354 151 354 120 l 354 454 l 122 454 l 122 524 l 354 524 l 354 922 l 221 922 q 170 913 190 922 q 136 888 149 904 q 116 852 122 873 q 107 808 110 831 l 99 749 l 28 749 l 34 992 l 816 992 l 823 749 l 751 749 l 744 808 q 734 852 741 831 q 715 888 728 873 q 681 913 702 904 q 629 922 660 922 l 494 922 l 494 524 "},"ђ":{"x_min":23.84375,"x_max":732,"ha":850,"o":"m 25 0 l 25 58 l 36 58 q 80 61 59 58 q 116 75 101 65 q 140 105 131 86 q 150 157 150 125 l 150 819 l 23 819 l 23 889 l 150 889 l 150 902 q 140 951 150 933 q 116 980 131 970 q 79 993 100 990 q 36 996 59 996 l 25 996 l 25 1055 l 280 1055 l 280 889 l 518 889 l 518 819 l 280 819 l 280 721 q 280 682 280 702 q 278 643 279 661 q 275 603 276 623 l 282 603 q 486 730 344 730 q 591 714 545 730 q 668 665 637 698 q 715 580 699 632 q 732 458 732 529 l 732 -11 q 712 -166 732 -104 q 659 -265 693 -228 q 578 -318 625 -302 q 474 -334 530 -334 l 453 -334 l 453 -264 l 462 -264 q 521 -252 495 -264 q 564 -210 546 -239 q 591 -132 582 -181 q 601 -10 601 -83 l 601 451 q 592 532 601 497 q 566 591 584 567 q 519 628 548 616 q 448 641 490 641 q 373 625 405 641 q 321 579 342 609 q 291 508 301 550 q 280 416 280 466 l 280 151 q 290 102 280 120 q 314 73 299 83 q 351 61 330 64 q 394 58 371 58 l 398 58 l 398 0 l 25 0 "},"y":{"x_min":5,"x_max":785,"ha":785,"o":"m 785 745 l 785 686 l 780 686 q 746 682 760 686 q 719 665 731 677 q 697 632 707 653 q 675 578 687 611 l 463 -5 q 417 -123 439 -72 q 372 -210 396 -174 q 320 -270 348 -247 q 256 -308 292 -294 q 173 -328 220 -323 q 65 -334 126 -334 l 52 -334 l 52 -264 q 174 -244 123 -264 q 262 -187 225 -223 q 323 -101 299 -150 q 365 5 348 -52 l 108 612 q 89 648 98 634 q 69 671 80 662 q 44 683 58 679 q 9 686 29 686 l 5 686 l 5 745 l 338 745 l 338 686 l 334 686 q 271 670 292 686 q 251 619 251 654 q 253 596 251 607 q 262 568 255 584 l 364 320 q 384 269 373 297 q 403 213 394 240 q 420 161 412 185 q 430 119 427 137 l 434 119 q 455 193 442 149 q 486 287 468 237 l 579 558 q 588 590 585 575 q 591 618 591 606 q 568 670 591 654 q 500 686 546 686 l 496 686 l 496 745 l 785 745 "},"Π":{"x_min":52.421875,"x_max":1007.25,"ha":1060,"o":"m 52 992 l 1007 992 l 1007 933 l 988 933 q 944 930 965 933 q 908 916 923 926 q 884 886 893 905 q 875 833 875 866 l 875 151 q 884 102 875 120 q 908 73 893 83 q 945 61 924 64 q 988 58 965 58 l 1007 58 l 1007 0 l 603 0 l 603 58 l 620 58 q 665 61 644 58 q 701 75 685 65 q 725 105 716 86 q 734 158 734 125 l 734 922 l 324 922 l 324 158 q 333 105 324 125 q 357 75 342 86 q 394 61 373 65 q 438 58 415 58 l 456 58 l 456 0 l 52 0 l 52 58 l 70 58 q 114 61 93 58 q 150 75 135 65 q 175 105 166 86 q 184 158 184 125 l 184 839 q 174 888 184 869 q 150 917 165 907 q 113 930 134 927 q 70 933 93 933 l 52 933 l 52 992 "},"‗":{"x_min":-7,"x_max":578,"ha":571,"o":"m 578 -115 l -7 -115 l -7 -33 l 578 -33 l 578 -115 m 578 -279 l -7 -279 l -7 -196 l 578 -196 l 578 -279 "},"–":{"x_min":-7,"x_max":702,"ha":695,"o":"m 702 331 l -7 331 l -7 414 l 702 414 l 702 331 "},"ë":{"x_min":77,"x_max":673,"ha":743,"o":"m 384 678 q 264 617 306 678 q 214 438 222 556 l 538 438 q 529 536 538 491 q 503 612 521 580 q 456 661 485 644 q 384 678 427 678 m 398 -14 q 263 11 323 -14 q 162 85 203 36 q 98 205 120 134 q 77 366 77 276 q 156 659 77 561 q 384 758 236 758 q 505 736 451 758 q 595 673 558 715 q 653 568 633 631 q 673 423 673 505 l 673 358 l 211 358 q 227 230 213 284 q 266 142 241 176 q 330 91 292 107 q 417 74 368 74 q 484 82 453 74 q 540 104 515 90 q 584 134 565 117 q 615 170 603 151 q 633 153 625 165 q 642 122 642 140 q 627 77 642 101 q 581 33 612 53 q 505 0 551 13 q 398 -14 459 -14 m 172 956 q 177 992 172 977 q 192 1016 182 1007 q 214 1029 201 1025 q 242 1034 227 1034 q 270 1029 257 1034 q 293 1016 283 1025 q 308 992 302 1007 q 313 956 313 977 q 308 920 313 934 q 293 895 302 905 q 270 882 283 886 q 242 878 257 878 q 192 895 212 878 q 172 956 172 913 m 436 956 q 441 992 436 977 q 456 1016 446 1007 q 478 1029 465 1025 q 506 1034 491 1034 q 534 1029 521 1034 q 557 1016 547 1025 q 572 992 566 1007 q 577 956 577 977 q 572 920 577 934 q 557 895 566 905 q 534 882 547 886 q 506 878 521 878 q 456 895 476 878 q 436 956 436 913 "},"б":{"x_min":77,"x_max":723,"ha":800,"o":"m 77 430 q 82 576 77 507 q 101 704 87 644 q 139 812 115 763 q 200 898 163 862 q 289 958 237 935 q 410 990 341 982 q 499 1001 457 996 q 574 1013 541 1006 q 630 1032 607 1020 q 660 1063 652 1044 l 705 1063 q 683 971 703 1005 q 625 918 663 937 q 532 890 588 899 q 404 873 477 882 q 280 846 326 864 q 209 794 234 828 q 174 704 183 759 q 161 565 164 649 l 166 565 q 198 625 177 597 q 249 674 218 653 q 318 707 279 695 q 404 719 356 719 q 642 626 562 719 q 723 353 723 533 q 703 196 723 264 q 643 80 683 127 q 540 10 602 34 q 395 -14 479 -14 q 157 94 237 -14 q 77 430 77 203 m 588 353 q 578 482 588 427 q 545 574 568 537 q 486 631 522 612 q 394 649 449 649 q 303 631 339 649 q 245 574 266 612 q 216 482 224 537 q 207 353 207 427 q 251 131 207 207 q 394 55 295 55 q 486 74 449 55 q 545 131 522 93 q 578 225 568 169 q 588 353 588 280 "},"ƒ":{"x_min":-56,"x_max":788,"ha":777,"o":"m 617 549 l 434 549 l 326 -12 q 279 -167 307 -105 q 213 -266 251 -229 q 128 -318 175 -302 q 24 -334 81 -334 q 4 -333 15 -334 q -18 -330 -7 -332 q -39 -327 -29 -329 q -56 -323 -49 -325 l -43 -255 q -30 -258 -38 -256 q -14 -261 -23 -259 q 3 -263 -5 -262 q 20 -264 12 -264 q 81 -251 54 -264 q 128 -207 107 -237 q 166 -128 149 -176 q 195 -9 182 -79 l 304 549 l 163 549 l 176 619 l 317 619 l 344 757 q 377 863 356 817 q 430 941 398 909 q 507 989 463 972 q 608 1006 551 1006 q 742 979 697 1006 q 788 908 788 953 q 758 840 788 862 q 672 818 728 818 q 669 868 672 844 q 659 909 667 892 q 637 937 651 927 q 601 947 623 947 q 522 904 550 947 q 478 773 494 861 l 448 619 l 630 619 l 617 549 "},"у":{"x_min":5,"x_max":785,"ha":785,"o":"m 785 745 l 785 686 l 780 686 q 746 682 760 686 q 719 665 731 677 q 697 632 707 653 q 675 578 687 611 l 463 -5 q 417 -123 439 -72 q 372 -210 396 -174 q 320 -270 348 -247 q 256 -308 292 -294 q 173 -328 220 -323 q 65 -334 126 -334 l 52 -334 l 52 -264 q 174 -244 123 -264 q 262 -187 225 -223 q 323 -101 299 -150 q 365 5 348 -52 l 108 612 q 89 648 98 634 q 69 671 80 662 q 44 683 58 679 q 9 686 29 686 l 5 686 l 5 745 l 338 745 l 338 686 l 334 686 q 271 670 292 686 q 251 619 251 654 q 253 596 251 607 q 262 568 255 584 l 364 320 q 384 269 373 297 q 403 213 394 240 q 420 161 412 185 q 430 119 427 137 l 434 119 q 455 193 442 149 q 486 287 468 237 l 579 558 q 588 590 585 575 q 591 618 591 606 q 568 670 591 654 q 500 686 546 686 l 496 686 l 496 745 l 785 745 "},"J":{"x_min":-16,"x_max":456.640625,"ha":496,"o":"m -16 -264 l -3 -264 q 76 -252 41 -264 q 135 -210 111 -239 q 171 -131 158 -180 q 184 -9 184 -82 l 184 839 q 174 888 184 870 q 150 917 165 907 q 113 930 134 927 q 70 933 93 933 l 52 933 l 52 992 l 456 992 l 456 933 l 438 933 q 394 930 415 933 q 357 916 373 926 q 333 886 342 905 q 324 833 324 866 l 324 -10 q 299 -166 324 -104 q 232 -265 275 -228 q 132 -318 190 -302 q 7 -334 74 -334 l -16 -334 l -16 -264 "},"ŷ":{"x_min":5,"x_max":785,"ha":785,"o":"m 785 745 l 785 686 l 780 686 q 746 682 760 686 q 719 665 731 677 q 697 632 707 653 q 675 578 687 611 l 463 -5 q 417 -123 439 -72 q 372 -210 396 -174 q 320 -270 348 -247 q 256 -308 292 -294 q 173 -328 220 -323 q 65 -334 126 -334 l 52 -334 l 52 -264 q 174 -244 123 -264 q 262 -187 225 -223 q 323 -101 299 -150 q 365 5 348 -52 l 108 612 q 89 648 98 634 q 69 671 80 662 q 44 683 58 679 q 9 686 29 686 l 5 686 l 5 745 l 338 745 l 338 686 l 334 686 q 271 670 292 686 q 251 619 251 654 q 253 596 251 607 q 262 568 255 584 l 364 320 q 384 269 373 297 q 403 213 394 240 q 420 161 412 185 q 430 119 427 137 l 434 119 q 455 193 442 149 q 486 287 468 237 l 579 558 q 588 590 585 575 q 591 618 591 606 q 568 670 591 654 q 500 686 546 686 l 496 686 l 496 745 l 785 745 m 205 860 q 240 905 221 879 q 280 958 260 931 q 316 1013 299 986 q 344 1064 333 1040 l 475 1064 q 503 1013 486 1040 q 539 958 520 986 q 579 905 559 931 q 615 860 598 879 l 615 842 l 560 842 q 480 899 520 864 q 409 966 440 933 q 338 899 377 933 q 259 842 298 864 l 205 842 l 205 860 "},"ŕ":{"x_min":46,"x_max":633,"ha":654,"o":"m 447 0 l 46 0 l 46 58 l 50 58 q 94 61 73 58 q 130 75 115 65 q 154 105 145 86 q 164 158 164 125 l 164 591 q 154 640 164 622 q 130 669 145 659 q 93 683 114 679 q 50 686 73 686 l 46 686 l 46 745 l 260 745 l 286 606 l 293 606 q 321 665 307 638 q 356 713 335 692 q 407 746 376 734 q 483 758 437 758 q 596 731 559 758 q 633 656 633 705 q 625 616 633 635 q 603 585 618 598 q 563 565 587 572 q 503 558 539 558 q 487 643 503 617 q 430 669 471 669 q 384 654 405 669 q 349 615 364 639 q 323 560 334 591 q 306 495 313 528 q 297 430 300 462 q 294 370 294 397 l 294 151 q 304 102 294 120 q 328 73 313 83 q 365 61 344 64 q 408 58 385 58 l 447 58 l 447 0 m 253 860 q 285 905 268 879 q 317 958 301 931 q 348 1013 333 986 q 373 1064 362 1040 l 522 1064 l 522 1049 q 484 1004 509 1031 q 428 946 458 976 q 365 889 398 917 q 305 842 333 860 l 253 842 l 253 860 "},"ώ":{"x_min":77,"x_max":990,"ha":1067,"o":"m 727 -14 q 661 -3 691 -14 q 606 26 630 7 q 564 71 581 45 q 536 128 546 97 l 530 128 q 502 71 520 97 q 460 26 484 45 q 405 -3 436 7 q 339 -14 375 -14 q 230 8 278 -14 q 147 73 182 30 q 95 184 113 117 q 77 338 77 250 q 90 466 77 407 q 127 578 103 526 q 184 675 151 631 q 255 758 216 720 l 313 712 q 271 632 290 672 q 239 546 252 591 q 219 451 226 501 q 211 338 211 400 q 223 216 211 268 q 255 131 235 165 q 303 81 276 97 q 359 65 330 65 q 417 77 393 65 q 458 111 442 88 q 485 164 475 133 q 501 233 496 194 q 490 270 496 249 q 479 314 484 290 q 472 363 475 338 q 469 411 469 388 q 487 494 469 469 q 532 519 505 519 q 579 494 560 519 q 597 411 597 469 q 593 363 597 388 q 585 314 590 338 q 575 270 581 290 q 565 233 570 249 q 581 164 570 194 q 607 111 591 133 q 648 77 624 88 q 706 65 673 65 q 763 81 736 65 q 811 131 790 97 q 843 216 831 165 q 855 338 855 268 q 847 451 855 400 q 827 546 840 501 q 795 632 814 591 q 753 712 777 672 l 811 758 q 882 675 850 720 q 939 578 915 631 q 976 466 963 526 q 990 338 990 407 q 971 184 990 250 q 919 73 953 117 q 836 8 885 30 q 727 -14 788 -14 m 474 860 q 490 904 482 878 q 506 958 499 930 q 521 1013 514 986 q 531 1064 527 1041 l 656 1064 l 656 1049 q 636 1006 651 1033 q 602 949 622 979 q 559 890 581 919 q 519 842 537 861 l 474 842 l 474 860 "},"˘":{"x_min":206,"x_max":595,"ha":802,"o":"m 400 842 q 314 857 351 842 q 254 898 278 872 q 219 958 231 924 q 206 1033 207 993 l 269 1033 q 315 959 281 981 q 400 937 349 937 q 485 959 451 937 q 530 1033 519 981 l 595 1033 q 581 958 593 993 q 545 898 569 924 q 485 857 521 872 q 400 842 449 842 "},"D":{"x_min":52.421875,"x_max":931,"ha":1010,"o":"m 931 497 q 902 291 931 383 q 817 134 873 199 q 676 34 761 69 q 478 0 591 0 l 52 0 l 52 58 l 70 58 q 114 61 93 58 q 150 75 135 65 q 175 105 166 86 q 184 158 184 125 l 184 839 q 174 888 184 869 q 150 917 165 907 q 113 930 134 927 q 70 933 93 933 l 52 933 l 52 992 l 478 992 q 669 959 585 992 q 811 863 753 926 q 900 707 869 799 q 931 497 931 615 m 445 69 q 590 97 528 69 q 694 179 652 125 q 756 313 735 234 q 777 496 777 393 q 694 813 777 703 q 446 922 611 922 l 324 922 l 324 69 l 445 69 "},"ł":{"x_min":38.75,"x_max":434.15625,"ha":450,"o":"m 171 463 l 171 902 q 161 951 171 932 q 137 980 152 970 q 100 993 121 990 q 57 996 80 996 l 38 996 l 38 1055 l 301 1055 l 301 539 l 432 614 l 432 533 l 301 459 l 301 158 q 311 105 301 125 q 335 75 320 86 q 371 61 350 65 q 415 58 392 58 l 434 58 l 434 0 l 38 0 l 38 58 l 57 58 q 101 61 80 58 q 137 75 122 65 q 161 105 152 86 q 171 158 171 125 l 171 384 l 53 318 l 53 396 l 171 463 "},"ĺ":{"x_min":18.421875,"x_max":416,"ha":431,"o":"m 36 58 q 80 61 59 58 q 116 75 101 65 q 140 105 131 86 q 150 158 150 125 l 150 902 q 140 951 150 932 q 116 980 131 970 q 79 993 100 990 q 36 996 59 996 l 18 996 l 18 1055 l 280 1055 l 280 158 q 289 105 280 125 q 314 75 298 86 q 350 61 329 65 q 394 58 371 58 l 412 58 l 412 0 l 18 0 l 18 58 l 36 58 m 147 1128 q 179 1173 162 1147 q 211 1226 195 1199 q 242 1281 227 1254 q 267 1332 256 1308 l 416 1332 l 416 1317 q 378 1272 403 1299 q 322 1214 352 1244 q 259 1157 292 1185 q 199 1110 227 1128 l 147 1110 l 147 1128 "},"ц":{"x_min":31.75,"x_max":910,"ha":942,"o":"m 910 -291 l 851 -291 l 844 -190 q 828 -101 841 -137 q 795 -42 815 -64 q 753 -9 776 -19 q 707 0 731 0 l 46 0 l 46 58 l 50 58 q 93 61 73 58 q 130 74 114 64 q 154 103 145 84 q 164 152 164 121 l 164 592 q 154 642 164 623 q 130 670 145 660 q 93 683 114 680 q 50 686 73 686 l 31 686 l 31 745 l 427 745 l 427 686 l 408 686 q 365 683 385 686 q 328 670 344 680 q 304 641 313 660 q 294 592 294 623 l 294 58 l 647 58 l 647 592 q 637 641 647 623 q 613 670 628 660 q 576 683 597 680 q 533 686 556 686 l 515 686 l 515 745 l 909 745 l 909 686 l 891 686 q 848 683 868 686 q 811 670 827 680 q 787 642 796 660 q 778 593 778 623 l 778 155 q 785 109 778 126 q 807 81 793 91 q 838 68 820 71 q 878 63 856 64 l 910 63 l 910 -291 "},"Л":{"x_min":0,"x_max":922.265625,"ha":975,"o":"m 111 -10 q 27 15 55 -10 q 0 86 0 40 q 16 147 0 122 q 61 171 32 171 q 65 151 61 162 q 77 130 69 139 q 98 113 86 120 q 128 106 111 106 q 165 112 147 106 q 199 138 183 118 q 233 197 216 158 q 267 302 250 236 q 290 399 279 347 q 308 508 300 452 q 323 618 317 564 q 334 722 330 673 q 340 811 338 771 q 343 876 343 851 q 334 907 343 895 q 310 924 325 918 q 274 931 294 930 q 231 933 254 933 l 210 933 l 210 992 l 922 992 l 922 933 l 903 933 q 859 930 880 933 q 823 916 838 926 q 799 886 808 905 q 790 833 790 866 l 790 158 q 799 105 790 125 q 823 75 808 86 q 859 61 838 65 q 903 58 880 58 l 922 58 l 922 0 l 518 0 l 518 58 l 536 58 q 580 61 559 58 q 616 75 600 65 q 640 105 631 86 q 649 158 649 125 l 649 922 l 423 922 q 410 740 419 835 q 389 551 402 645 q 360 370 376 457 q 323 214 343 283 q 283 108 304 151 q 237 38 263 65 q 181 1 212 12 q 111 -10 149 -10 "},"$":{"x_min":92,"x_max":679,"ha":777,"o":"m 414 950 q 524 936 479 948 q 597 902 569 923 q 639 854 626 882 q 652 794 652 826 q 622 726 652 749 q 542 704 592 704 q 536 767 542 735 q 517 825 531 798 q 478 869 503 851 q 414 891 453 887 l 414 561 q 528 506 478 534 q 610 448 577 479 q 661 378 644 417 q 679 291 679 340 q 610 129 679 187 q 414 58 541 71 l 414 -109 l 345 -109 l 345 56 q 276 59 311 56 q 209 69 242 62 q 147 87 177 76 q 92 113 117 98 l 92 327 l 150 327 q 164 250 150 287 q 204 184 178 214 q 266 136 230 155 q 345 114 301 117 l 345 458 q 238 516 281 487 q 167 576 194 544 q 128 644 140 607 q 116 726 116 681 q 132 811 116 773 q 177 878 148 850 q 249 923 207 906 q 345 947 292 941 l 345 1055 l 414 1055 l 414 950 m 538 268 q 532 318 538 296 q 510 359 525 340 q 472 395 496 378 q 414 427 449 411 l 414 118 q 506 169 474 129 q 538 268 538 208 m 256 741 q 262 689 256 711 q 279 649 267 666 q 306 617 290 631 q 345 591 323 604 l 345 888 q 306 869 323 882 q 278 836 289 855 q 262 793 267 817 q 256 741 256 769 "},"w":{"x_min":1,"x_max":1196,"ha":1197,"o":"m 661 741 l 800 329 q 817 275 808 304 q 834 218 826 246 q 849 164 843 190 q 860 122 856 139 l 864 122 q 883 207 870 156 q 918 325 897 257 l 987 548 q 996 586 993 566 q 1000 618 1000 606 q 977 670 1000 654 q 908 686 955 686 l 898 686 l 898 745 l 1196 745 l 1196 686 l 1178 686 q 1143 682 1158 686 q 1116 666 1128 678 q 1094 633 1104 654 q 1073 578 1084 612 l 894 0 l 783 0 l 617 489 l 592 580 l 395 0 l 286 0 l 104 612 q 87 648 95 634 q 66 671 78 662 q 40 683 55 679 q 5 686 25 686 l 1 686 l 1 745 l 344 745 l 344 686 l 325 686 q 263 674 284 686 q 242 628 242 662 q 246 600 242 616 q 253 568 249 584 l 319 335 q 333 280 326 310 q 347 220 340 250 q 359 165 353 191 q 368 122 364 139 l 372 122 q 381 163 375 139 q 394 213 387 186 q 411 268 402 240 q 429 320 420 295 l 573 741 l 661 741 "},"о":{"x_min":77,"x_max":725,"ha":802,"o":"m 725 373 q 641 81 725 177 q 398 -14 558 -14 q 264 9 323 -14 q 162 81 204 33 q 99 202 121 129 q 77 373 77 275 q 159 663 77 568 q 403 758 241 758 q 537 734 478 758 q 639 663 597 711 q 702 543 680 615 q 725 373 725 471 m 211 374 q 222 236 211 295 q 254 136 232 176 q 313 75 277 96 q 402 55 349 55 q 489 75 454 55 q 548 136 525 96 q 580 236 570 176 q 590 374 590 295 q 579 511 590 452 q 547 609 569 570 q 488 668 525 649 q 400 688 452 688 q 312 668 348 688 q 254 609 276 649 q 222 511 232 570 q 211 374 211 452 "},"Д":{"x_min":20,"x_max":904,"ha":947,"o":"m 448 922 q 437 779 448 854 q 406 628 425 705 q 360 475 386 552 q 305 327 334 399 q 247 190 277 255 q 189 69 217 124 l 621 69 l 621 922 l 448 922 m 105 69 q 201 281 154 172 q 283 495 247 390 q 342 698 320 601 q 364 876 364 795 q 353 907 364 896 q 326 924 343 918 q 287 931 309 930 q 242 933 265 933 l 238 933 l 238 992 l 877 992 l 877 933 l 859 933 q 822 930 840 933 q 791 918 804 927 q 770 889 778 908 q 762 840 762 871 l 762 169 q 771 117 762 137 q 795 86 780 97 q 831 72 810 75 q 876 69 853 69 l 904 69 l 904 -292 l 832 -292 q 818 -159 832 -214 q 778 -68 804 -104 q 715 -16 752 -33 q 631 0 678 0 l 292 0 q 208 -16 246 0 q 145 -68 171 -33 q 105 -159 119 -104 q 91 -292 91 -214 l 20 -292 l 20 69 l 105 69 "},"Ç":{"x_min":79,"x_max":806,"ha":853,"o":"m 524 1006 q 648 994 596 1006 q 736 961 701 982 q 788 911 771 940 q 806 850 806 883 q 796 809 806 827 q 771 779 787 791 q 733 759 755 766 q 685 753 711 753 q 676 817 685 785 q 648 874 668 848 q 598 915 629 899 q 522 931 567 931 q 388 902 443 931 q 298 818 333 873 q 248 682 264 763 q 232 496 232 601 q 249 326 232 403 q 300 193 265 249 q 390 108 336 138 q 522 77 445 77 q 612 87 573 77 q 681 113 651 97 q 734 151 711 129 q 774 196 756 172 q 793 175 786 188 q 801 141 801 162 q 783 87 801 115 q 728 37 765 60 q 635 0 691 15 q 501 -14 578 -14 q 318 22 397 -14 q 186 126 239 59 q 106 288 133 193 q 79 497 79 382 q 107 703 79 609 q 192 864 136 796 q 331 968 248 931 q 524 1006 415 1006 m 639 -175 q 591 -291 639 -249 q 456 -334 544 -334 q 431 -332 445 -334 q 403 -329 418 -331 q 375 -324 389 -327 q 349 -318 361 -321 l 349 -247 q 398 -256 373 -253 q 441 -258 423 -258 q 503 -237 481 -258 q 525 -180 525 -216 q 496 -119 525 -139 q 424 -95 467 -99 l 453 12 l 518 12 l 504 -47 q 605 -86 572 -53 q 639 -175 639 -120 "},"Ŝ":{"x_min":66,"x_max":685,"ha":756,"o":"m 342 -14 q 223 0 275 -14 q 136 39 171 14 q 83 101 101 65 q 66 181 66 137 q 92 249 66 223 q 166 275 118 275 q 179 192 168 231 q 212 121 190 152 q 268 73 234 91 q 349 55 301 55 q 493 100 441 55 q 544 230 544 145 q 533 297 544 267 q 498 351 523 326 q 433 398 473 375 q 333 446 393 421 q 222 502 269 472 q 143 569 175 532 q 97 652 112 606 q 82 754 82 697 q 104 860 82 814 q 168 939 127 907 q 264 989 208 972 q 386 1006 320 1006 q 496 993 448 1006 q 578 958 544 980 q 628 908 611 936 q 646 850 646 880 q 616 782 646 805 q 536 760 587 760 q 529 824 536 792 q 504 880 521 855 q 457 921 486 905 q 386 936 428 936 q 317 925 347 936 q 265 893 286 914 q 233 843 244 873 q 222 778 222 814 q 232 705 222 737 q 268 648 243 674 q 333 600 293 623 q 432 553 373 577 q 539 500 492 528 q 618 438 585 472 q 667 361 650 403 q 685 265 685 318 q 660 147 685 199 q 592 59 636 95 q 484 4 547 23 q 342 -14 420 -14 m 183 1089 q 218 1134 199 1108 q 258 1187 238 1160 q 294 1242 277 1215 q 322 1293 311 1269 l 453 1293 q 481 1242 464 1269 q 517 1187 498 1215 q 557 1134 537 1160 q 593 1089 576 1108 l 593 1071 l 538 1071 q 458 1128 498 1093 q 387 1195 418 1162 q 316 1128 355 1162 q 237 1071 276 1093 l 183 1071 l 183 1089 "},"C":{"x_min":79,"x_max":806,"ha":853,"o":"m 524 1006 q 648 994 596 1006 q 736 961 701 982 q 788 911 771 940 q 806 850 806 883 q 796 809 806 827 q 771 779 787 791 q 733 759 755 766 q 685 753 711 753 q 676 817 685 785 q 648 874 668 848 q 598 915 629 899 q 522 931 567 931 q 388 902 443 931 q 298 818 333 873 q 248 682 264 763 q 232 496 232 601 q 249 326 232 403 q 300 193 265 249 q 390 108 336 138 q 522 77 445 77 q 612 87 573 77 q 681 113 651 97 q 734 151 711 129 q 774 196 756 172 q 793 175 786 188 q 801 141 801 162 q 783 87 801 115 q 728 37 765 60 q 635 0 691 15 q 501 -14 578 -14 q 318 22 397 -14 q 186 126 239 59 q 106 288 133 193 q 79 497 79 382 q 107 703 79 609 q 192 864 136 796 q 331 968 248 931 q 524 1006 415 1006 "},"Ḁ":{"x_min":0,"x_max":979,"ha":979,"o":"m 281 332 l 227 186 q 218 153 221 169 q 215 126 215 137 q 237 74 215 90 q 307 58 260 58 l 339 58 l 339 0 l 0 0 l 0 58 l 26 58 q 61 62 46 58 q 86 79 75 67 q 108 112 98 91 q 132 166 119 133 l 440 992 l 548 992 l 862 132 q 878 96 870 110 q 898 73 887 82 q 925 61 910 65 q 960 58 940 58 l 979 58 l 979 0 l 597 0 l 597 58 l 629 58 q 712 124 712 58 q 709 148 712 136 q 700 176 706 160 l 645 332 l 281 332 m 534 644 q 494 760 512 706 q 465 864 476 814 q 453 816 460 839 q 439 768 447 792 q 423 717 432 743 q 401 657 413 690 l 307 402 l 619 402 l 534 644 m 656 -236 q 643 -301 656 -273 q 607 -348 630 -329 q 554 -377 584 -367 q 489 -387 523 -387 q 423 -377 454 -387 q 370 -348 393 -367 q 334 -301 347 -329 q 322 -236 322 -273 q 334 -171 322 -199 q 370 -123 347 -142 q 423 -94 393 -104 q 489 -85 454 -85 q 554 -94 523 -85 q 607 -123 584 -104 q 643 -171 630 -142 q 656 -236 656 -199 m 580 -236 q 573 -197 580 -213 q 553 -172 566 -181 q 524 -157 541 -162 q 489 -152 508 -152 q 453 -157 469 -152 q 424 -172 436 -162 q 404 -197 411 -181 q 397 -236 397 -213 q 404 -274 397 -258 q 424 -299 411 -290 q 453 -314 436 -309 q 489 -319 469 -319 q 524 -314 508 -319 q 553 -299 541 -309 q 573 -274 566 -290 q 580 -236 580 -258 "},"Ĵ":{"x_min":-16,"x_max":459,"ha":496,"o":"m -16 -264 l -3 -264 q 76 -252 41 -264 q 135 -210 111 -239 q 171 -131 158 -180 q 184 -9 184 -82 l 184 839 q 174 888 184 870 q 150 917 165 907 q 113 930 134 927 q 70 933 93 933 l 52 933 l 52 992 l 456 992 l 456 933 l 438 933 q 394 930 415 933 q 357 916 373 926 q 333 886 342 905 q 324 833 324 866 l 324 -10 q 299 -166 324 -104 q 232 -265 275 -228 q 132 -318 190 -302 q 7 -334 74 -334 l -16 -334 l -16 -264 m 49 1089 q 84 1134 65 1108 q 124 1187 104 1160 q 160 1242 143 1215 q 188 1293 177 1269 l 319 1293 q 347 1242 330 1269 q 383 1187 364 1215 q 423 1134 403 1160 q 459 1089 442 1108 l 459 1071 l 404 1071 q 324 1128 364 1093 q 253 1195 284 1162 q 182 1128 221 1162 q 103 1071 142 1093 l 49 1071 l 49 1089 "},"È":{"x_min":52.421875,"x_max":807,"ha":865,"o":"m 324 69 l 592 69 q 649 78 626 69 q 688 103 673 87 q 713 139 704 118 q 725 183 722 160 l 735 243 l 807 243 l 797 0 l 52 0 l 52 58 l 70 58 q 113 61 93 58 q 150 73 134 64 q 174 102 165 83 q 184 151 184 120 l 184 833 q 175 886 184 866 q 150 916 166 905 q 114 930 135 926 q 70 933 93 933 l 52 933 l 52 992 l 753 992 l 760 749 l 688 749 l 681 808 q 670 852 678 831 q 648 888 662 873 q 611 913 633 904 q 558 922 589 922 l 324 922 l 324 553 l 660 553 l 660 483 l 324 483 l 324 69 m 504 1071 l 451 1071 q 390 1118 423 1089 q 327 1175 358 1146 q 271 1233 297 1205 q 234 1278 246 1260 l 234 1293 l 382 1293 q 408 1242 393 1269 q 438 1187 422 1215 q 472 1134 455 1160 q 504 1089 489 1108 l 504 1071 "},"ﬁ":{"x_min":37.734375,"x_max":902.578125,"ha":921,"o":"m 526 58 q 569 61 549 58 q 606 73 590 64 q 630 101 621 83 q 640 150 640 120 l 640 675 l 300 675 l 300 157 q 310 105 300 125 q 334 75 319 86 q 370 61 349 65 q 414 58 391 58 l 439 58 l 439 0 l 37 0 l 37 58 l 56 58 q 100 61 79 58 q 136 75 121 65 q 160 105 151 86 q 170 157 170 125 l 170 675 l 43 675 l 43 745 l 170 745 l 170 786 q 189 903 170 850 q 250 995 209 956 q 353 1054 291 1033 q 501 1076 416 1076 q 695 1047 630 1076 q 761 966 761 1018 q 751 928 761 945 q 726 899 742 911 q 686 881 709 888 q 634 874 663 874 q 627 920 634 895 q 602 966 619 945 q 554 1003 584 988 q 478 1017 524 1017 q 390 998 425 1017 q 336 946 356 978 q 308 872 316 914 q 300 785 300 830 l 300 745 l 771 745 l 771 158 q 779 105 771 125 q 804 75 788 86 q 840 61 819 65 q 884 58 861 58 l 902 58 l 902 0 l 522 0 l 522 58 l 526 58 "},"X":{"x_min":11,"x_max":905,"ha":917,"o":"m 646 893 q 641 913 646 905 q 625 925 635 921 q 602 931 615 930 q 572 933 588 933 l 568 933 l 568 992 l 872 992 l 872 933 l 859 933 q 822 928 839 933 q 790 912 806 924 q 758 881 775 900 q 722 833 741 862 l 521 543 l 776 132 q 833 74 806 91 q 887 58 860 58 l 905 58 l 905 0 l 529 0 l 529 58 l 537 58 q 620 104 620 58 q 618 119 620 111 q 612 137 616 126 q 598 162 607 147 q 574 200 588 177 l 437 421 l 283 193 q 271 173 277 184 q 259 149 265 162 q 251 125 254 137 q 247 101 247 112 q 269 68 247 78 q 337 58 291 58 l 341 58 l 341 0 l 11 0 l 11 58 l 19 58 q 63 63 44 58 q 98 80 82 68 q 129 109 114 91 q 164 155 145 128 l 396 488 l 166 860 q 110 917 141 900 q 47 933 78 933 l 29 933 l 29 992 l 405 992 l 405 933 l 401 933 q 362 930 377 933 q 337 922 346 927 q 325 909 328 916 q 322 893 322 901 q 323 879 322 886 q 327 863 324 872 q 337 842 330 854 q 355 811 343 829 l 480 609 l 612 808 q 637 853 627 832 q 646 893 646 874 "},"ô":{"x_min":77,"x_max":725,"ha":802,"o":"m 725 373 q 641 81 725 177 q 398 -14 558 -14 q 264 9 323 -14 q 162 81 204 33 q 99 202 121 129 q 77 373 77 275 q 159 663 77 568 q 403 758 241 758 q 537 734 478 758 q 639 663 597 711 q 702 543 680 615 q 725 373 725 471 m 211 374 q 222 236 211 295 q 254 136 232 176 q 313 75 277 96 q 402 55 349 55 q 489 75 454 55 q 548 136 525 96 q 580 236 570 176 q 590 374 590 295 q 579 511 590 452 q 547 609 569 570 q 488 668 525 649 q 400 688 452 688 q 312 668 348 688 q 254 609 276 649 q 222 511 232 570 q 211 374 211 452 m 193 860 q 228 905 209 879 q 268 958 248 931 q 304 1013 287 986 q 332 1064 321 1040 l 463 1064 q 491 1013 474 1040 q 527 958 508 986 q 567 905 547 931 q 603 860 586 879 l 603 842 l 548 842 q 468 899 508 864 q 397 966 428 933 q 326 899 365 933 q 247 842 286 864 l 193 842 l 193 860 "},"Ė":{"x_min":52.421875,"x_max":807,"ha":865,"o":"m 324 69 l 592 69 q 649 78 626 69 q 688 103 673 87 q 713 139 704 118 q 725 183 722 160 l 735 243 l 807 243 l 797 0 l 52 0 l 52 58 l 70 58 q 113 61 93 58 q 150 73 134 64 q 174 102 165 83 q 184 151 184 120 l 184 833 q 175 886 184 866 q 150 916 166 905 q 114 930 135 926 q 70 933 93 933 l 52 933 l 52 992 l 753 992 l 760 749 l 688 749 l 681 808 q 670 852 678 831 q 648 888 662 873 q 611 913 633 904 q 558 922 589 922 l 324 922 l 324 553 l 660 553 l 660 483 l 324 483 l 324 69 m 367 1180 q 373 1221 367 1204 q 390 1247 379 1237 q 415 1261 400 1257 q 446 1266 429 1266 q 477 1261 462 1266 q 502 1247 491 1257 q 519 1221 513 1237 q 526 1180 526 1204 q 519 1139 526 1155 q 502 1113 513 1123 q 477 1098 491 1102 q 446 1094 462 1094 q 415 1098 429 1094 q 390 1113 400 1102 q 373 1139 379 1123 q 367 1180 367 1155 "},"г":{"x_min":31.75,"x_max":608,"ha":636,"o":"m 608 745 l 608 527 l 549 527 l 541 574 q 529 628 537 606 q 511 662 522 650 q 483 681 499 675 q 441 686 466 686 l 294 686 l 294 152 q 304 102 294 121 q 328 74 313 83 q 365 61 344 64 q 408 58 385 58 l 440 58 l 440 0 l 31 0 l 31 58 l 50 58 q 93 61 73 58 q 130 73 114 64 q 154 102 145 83 q 164 151 164 120 l 164 591 q 154 640 164 622 q 130 669 145 659 q 93 683 114 679 q 50 686 73 686 l 31 686 l 31 745 l 608 745 "},"Ŀ":{"x_min":52.421875,"x_max":807,"ha":865,"o":"m 52 0 l 52 58 l 70 58 q 114 61 93 58 q 150 75 135 65 q 175 105 166 86 q 184 158 184 125 l 184 833 q 175 886 184 866 q 150 916 166 905 q 114 930 135 926 q 70 933 93 933 l 52 933 l 52 992 l 456 992 l 456 933 l 438 933 q 394 930 415 933 q 358 917 373 927 q 333 888 342 907 q 324 839 324 869 l 324 69 l 599 69 q 652 80 630 69 q 688 109 674 91 q 710 150 703 127 q 721 194 718 172 l 735 299 l 807 299 l 797 0 l 52 0 m 521 533 q 527 574 521 557 q 544 600 533 590 q 569 614 554 610 q 600 619 583 619 q 631 614 616 619 q 656 600 645 610 q 673 574 667 590 q 680 533 680 557 q 673 492 680 508 q 656 466 667 476 q 631 451 645 455 q 600 447 616 447 q 569 451 583 447 q 544 466 554 455 q 527 492 533 476 q 521 533 521 508 "},"х":{"x_min":7,"x_max":796,"ha":803,"o":"m 532 645 q 511 678 532 671 q 458 686 490 686 l 454 686 l 454 745 l 758 745 l 758 686 l 745 686 q 708 683 725 686 q 676 670 692 679 q 643 643 660 660 q 605 597 626 625 l 462 407 l 666 132 q 724 74 696 91 q 777 58 751 58 l 796 58 l 796 0 l 437 0 l 437 58 l 444 58 q 527 104 527 58 q 525 119 527 111 q 517 138 523 127 q 500 163 511 148 q 474 200 490 178 l 382 325 l 285 189 q 272 170 278 181 q 259 147 265 159 q 251 124 254 136 q 247 101 247 112 q 267 68 247 78 q 333 58 287 58 l 337 58 l 337 0 l 7 0 l 7 58 l 19 58 q 63 62 44 58 q 99 76 82 66 q 133 104 116 86 q 171 147 150 121 l 346 373 l 170 612 q 111 667 140 648 q 51 686 82 686 l 33 686 l 33 745 l 385 745 l 385 686 l 381 686 q 342 683 357 686 q 317 674 326 680 q 305 661 309 669 q 302 645 302 654 q 310 617 302 631 q 334 582 319 603 l 426 457 l 498 561 q 523 605 513 584 q 532 645 532 626 "},"ŋ":{"x_min":38.53125,"x_max":746,"ha":882,"o":"m 412 58 l 412 0 l 38 0 l 38 58 l 50 58 q 94 61 73 58 q 130 75 115 65 q 154 105 145 86 q 164 158 164 125 l 164 591 q 154 640 164 622 q 130 669 145 659 q 93 683 114 679 q 50 686 73 686 l 46 686 l 46 745 l 271 745 l 289 631 l 296 631 q 341 695 317 670 q 392 733 366 720 q 449 752 419 747 q 513 758 479 758 q 610 742 567 758 q 684 693 653 726 q 730 608 714 660 q 746 486 746 557 l 746 -11 q 727 -166 746 -104 q 673 -265 708 -228 q 592 -318 639 -302 q 488 -334 545 -334 l 467 -334 l 467 -264 l 476 -264 q 535 -252 510 -264 q 579 -210 561 -239 q 605 -132 596 -181 q 615 -10 615 -83 l 615 479 q 606 560 615 525 q 580 619 598 595 q 533 656 562 644 q 462 669 504 669 q 383 650 415 669 q 331 601 351 632 q 303 529 311 570 q 294 444 294 488 l 294 151 q 304 102 294 120 q 328 73 313 83 q 365 61 344 64 q 408 58 385 58 l 412 58 "},"Ч":{"x_min":28.734375,"x_max":997.578125,"ha":1050,"o":"m 725 450 q 654 416 688 431 q 584 388 620 400 q 508 370 548 376 q 419 364 468 364 q 226 426 291 364 q 161 615 161 489 l 161 839 q 151 888 161 869 q 127 917 142 907 q 90 930 111 927 q 47 933 70 933 l 28 933 l 28 992 l 433 992 l 433 933 l 415 933 q 371 930 392 933 q 334 916 350 926 q 310 886 319 905 q 301 834 301 866 l 301 618 q 344 494 301 533 q 464 455 388 455 q 530 460 498 455 q 592 474 561 465 q 656 496 624 483 q 725 527 688 510 l 725 834 q 716 886 725 866 q 692 916 707 905 q 656 930 676 926 q 611 933 635 933 l 593 933 l 593 992 l 997 992 l 997 933 l 979 933 q 935 930 956 933 q 899 916 914 926 q 875 886 884 905 q 866 833 866 866 l 866 151 q 875 102 866 120 q 899 73 884 83 q 936 61 915 64 q 979 58 956 58 l 997 58 l 997 0 l 593 0 l 593 58 l 611 58 q 656 61 635 58 q 692 75 676 65 q 716 105 707 86 q 725 157 725 125 l 725 450 "},"ü":{"x_min":31.984375,"x_max":850.015625,"ha":882,"o":"m 732 151 q 741 102 732 120 q 765 73 750 83 q 802 61 781 64 q 845 58 822 58 l 850 58 l 850 0 l 629 0 l 611 112 l 604 112 q 558 48 583 72 q 504 10 532 24 q 444 -8 475 -3 q 379 -14 413 -14 q 281 1 324 -14 q 209 50 238 17 q 165 135 180 83 q 150 258 150 186 l 150 591 q 140 640 150 622 q 116 669 131 659 q 79 683 100 679 q 36 686 59 686 l 31 686 l 31 745 l 280 745 l 280 264 q 288 184 280 219 q 311 124 295 148 q 356 87 328 99 q 426 74 384 74 q 505 91 472 74 q 559 136 538 107 q 590 207 580 166 q 601 299 601 249 l 601 586 q 591 638 601 618 q 567 669 582 658 q 531 683 552 679 q 487 686 510 686 l 483 686 l 483 745 l 732 745 l 732 151 m 236 956 q 241 992 236 977 q 256 1016 246 1007 q 278 1029 265 1025 q 306 1034 291 1034 q 334 1029 321 1034 q 357 1016 347 1025 q 372 992 366 1007 q 377 956 377 977 q 372 920 377 934 q 357 895 366 905 q 334 882 347 886 q 306 878 321 878 q 256 895 276 878 q 236 956 236 913 m 500 956 q 505 992 500 977 q 520 1016 510 1007 q 542 1029 529 1025 q 570 1034 555 1034 q 598 1029 585 1034 q 621 1016 611 1025 q 636 992 630 1007 q 641 956 641 977 q 636 920 641 934 q 621 895 630 905 q 598 882 611 886 q 570 878 585 878 q 520 895 540 878 q 500 956 500 913 "},"ь":{"x_min":31.75,"x_max":750,"ha":827,"o":"m 427 745 l 427 686 l 408 686 q 365 683 385 686 q 328 669 344 679 q 304 640 313 659 q 294 591 294 622 l 294 414 l 429 414 q 551 406 494 414 q 653 377 609 399 q 723 316 697 355 q 750 212 750 276 q 732 127 750 166 q 679 60 714 88 q 589 15 643 31 q 462 0 535 0 l 31 0 l 31 58 l 50 58 q 93 61 73 58 q 130 73 114 64 q 154 102 145 83 q 164 151 164 120 l 164 591 q 154 640 164 622 q 130 669 145 659 q 93 683 114 679 q 50 686 73 686 l 31 686 l 31 745 l 427 745 m 438 63 q 518 72 485 63 q 573 100 552 81 q 605 149 595 119 q 615 222 615 179 q 567 325 615 294 q 430 355 519 355 l 294 355 l 294 63 l 438 63 "},"Ÿ":{"x_min":-7,"x_max":872,"ha":868,"o":"m 221 0 l 221 58 l 253 58 q 296 61 276 58 q 333 73 317 64 q 357 102 348 83 q 367 151 367 120 l 367 413 l 109 860 q 87 893 98 880 q 66 916 77 907 q 41 929 55 925 q 10 933 28 933 l -7 933 l -7 992 l 374 992 l 374 933 l 323 933 q 292 930 304 933 q 273 920 280 926 q 264 906 267 914 q 262 889 262 898 q 270 850 262 869 q 287 815 279 830 l 389 629 q 431 545 414 586 q 459 470 448 503 q 475 504 466 485 q 495 543 484 522 q 518 585 506 563 q 543 629 531 607 l 631 789 q 651 834 645 812 q 657 872 657 855 q 635 918 657 903 q 573 933 613 933 l 532 933 l 532 992 l 872 992 l 872 933 l 855 933 q 827 928 840 933 q 800 910 814 923 q 772 877 787 898 q 740 825 758 857 l 507 413 l 507 158 q 516 105 507 125 q 540 75 525 86 q 576 61 556 65 q 620 58 597 58 l 653 58 l 653 0 l 221 0 m 243 1185 q 248 1221 243 1206 q 263 1245 253 1236 q 285 1258 272 1254 q 313 1263 298 1263 q 341 1258 328 1263 q 364 1245 354 1254 q 379 1221 373 1236 q 384 1185 384 1206 q 379 1149 384 1163 q 364 1124 373 1134 q 341 1111 354 1115 q 313 1107 328 1107 q 263 1124 283 1107 q 243 1185 243 1142 m 507 1185 q 512 1221 507 1206 q 527 1245 517 1236 q 549 1258 536 1254 q 577 1263 562 1263 q 605 1258 592 1263 q 628 1245 618 1254 q 643 1221 637 1236 q 648 1185 648 1206 q 643 1149 648 1163 q 628 1124 637 1134 q 605 1111 618 1115 q 577 1107 592 1107 q 527 1124 547 1107 q 507 1185 507 1142 "},"€":{"x_min":57.078125,"x_max":736,"ha":777,"o":"m 528 60 q 590 67 563 60 q 638 85 617 74 q 675 112 659 97 q 703 144 691 127 q 719 128 711 138 q 728 97 728 118 q 715 59 728 78 q 677 23 702 39 q 611 -3 651 7 q 518 -14 572 -14 q 393 6 453 -14 q 285 71 333 26 q 204 188 237 116 q 158 362 171 259 l 57 362 l 57 432 l 152 432 q 150 465 151 447 q 150 496 150 483 l 150 526 l 57 526 l 57 596 l 155 596 q 195 790 164 712 q 273 916 226 869 q 378 983 319 963 q 501 1003 436 1003 q 597 992 554 1003 q 671 962 640 981 q 719 918 702 944 q 736 861 736 892 q 705 794 736 813 q 615 774 674 774 q 608 836 615 807 q 587 887 601 865 q 548 921 572 908 q 490 933 524 933 q 422 918 455 933 q 363 863 389 902 q 318 759 336 824 q 293 596 299 694 l 581 596 l 581 526 l 290 526 l 290 494 q 290 462 290 480 q 291 432 290 444 l 526 432 l 526 362 l 297 362 q 325 232 305 289 q 375 138 345 176 q 443 80 404 99 q 528 60 481 60 "},"в":{"x_min":31.75,"x_max":750,"ha":827,"o":"m 31 745 l 436 745 q 649 698 581 745 q 717 565 717 652 q 705 492 717 523 q 673 440 694 462 q 624 406 653 419 q 559 389 595 393 l 559 382 q 638 364 603 376 q 698 330 673 351 q 736 280 723 309 q 750 211 750 251 q 732 127 750 166 q 679 60 714 88 q 589 15 643 31 q 462 0 535 0 l 31 0 l 31 58 l 50 58 q 93 61 73 58 q 130 73 114 64 q 154 102 145 83 q 164 151 164 120 l 164 591 q 154 640 164 622 q 130 669 145 659 q 93 683 114 679 q 50 686 73 686 l 31 686 l 31 745 m 438 63 q 518 72 485 63 q 573 98 552 80 q 605 145 595 116 q 615 215 615 174 q 567 317 615 287 q 430 347 519 347 l 294 347 l 294 63 l 438 63 m 294 681 l 294 417 l 429 417 q 500 426 470 417 q 547 454 529 436 q 573 497 565 472 q 582 551 582 522 q 573 602 582 578 q 547 643 565 626 q 500 671 530 660 q 429 681 471 681 l 294 681 "},"Η":{"x_min":52.421875,"x_max":1048.578125,"ha":1101,"o":"m 644 0 l 644 58 l 662 58 q 707 61 686 58 q 743 75 727 65 q 767 105 758 86 q 776 158 776 125 l 776 483 l 324 483 l 324 158 q 333 105 324 125 q 357 75 342 86 q 394 61 373 65 q 438 58 415 58 l 456 58 l 456 0 l 52 0 l 52 58 l 70 58 q 114 61 93 58 q 150 75 135 65 q 175 105 166 86 q 184 158 184 125 l 184 839 q 174 888 184 869 q 150 917 165 907 q 113 930 134 927 q 70 933 93 933 l 52 933 l 52 992 l 456 992 l 456 933 l 438 933 q 394 930 415 933 q 357 916 373 926 q 333 886 342 905 q 324 833 324 866 l 324 553 l 776 553 l 776 833 q 767 886 776 866 q 743 916 758 905 q 707 930 727 926 q 662 933 686 933 l 644 933 l 644 992 l 1048 992 l 1048 933 l 1030 933 q 986 930 1007 933 q 950 916 965 926 q 925 886 934 905 q 917 833 917 866 l 917 151 q 926 102 917 120 q 950 73 935 83 q 987 61 966 64 q 1030 58 1007 58 l 1048 58 l 1048 0 l 644 0 "},"С":{"x_min":79,"x_max":806,"ha":853,"o":"m 524 1006 q 648 994 596 1006 q 736 961 701 982 q 788 911 771 940 q 806 850 806 883 q 796 809 806 827 q 771 779 787 791 q 733 759 755 766 q 685 753 711 753 q 676 817 685 785 q 648 874 668 848 q 598 915 629 899 q 522 931 567 931 q 388 902 443 931 q 298 818 333 873 q 248 682 264 763 q 232 496 232 601 q 249 326 232 403 q 300 193 265 249 q 390 108 336 138 q 522 77 445 77 q 612 87 573 77 q 681 113 651 97 q 734 151 711 129 q 774 196 756 172 q 793 175 786 188 q 801 141 801 162 q 783 87 801 115 q 728 37 765 60 q 635 0 691 15 q 501 -14 578 -14 q 318 22 397 -14 q 186 126 239 59 q 106 288 133 193 q 79 497 79 382 q 107 703 79 609 q 192 864 136 796 q 331 968 248 931 q 524 1006 415 1006 "},"ß":{"x_min":31.75,"x_max":838,"ha":899,"o":"m 601 52 q 685 83 652 52 q 718 178 718 114 q 713 221 718 201 q 693 259 708 241 q 652 296 678 277 q 583 334 625 314 q 506 377 540 356 q 451 424 473 398 q 418 482 429 450 q 407 559 407 515 q 420 636 407 601 q 462 695 434 671 q 534 734 491 720 q 636 747 577 747 q 626 862 636 814 q 596 941 617 910 q 542 987 575 972 q 462 1001 509 1001 q 389 988 420 1001 q 336 949 357 974 q 305 889 315 924 q 294 809 294 853 l 294 0 l 31 0 l 31 58 l 50 58 q 94 61 73 58 q 130 75 115 65 q 154 105 145 86 q 164 157 164 125 l 164 675 l 51 675 l 51 745 l 164 745 l 164 786 q 187 915 164 862 q 250 999 210 967 q 345 1045 290 1031 q 464 1060 400 1060 q 608 1035 551 1060 q 701 961 666 1010 q 751 842 736 913 q 767 679 766 771 l 665 679 q 556 651 591 679 q 522 567 522 623 q 529 528 522 546 q 552 495 535 511 q 597 464 569 479 q 666 428 625 448 q 752 378 719 404 q 804 322 785 351 q 830 263 823 293 q 838 201 838 232 q 821 108 838 148 q 775 40 805 67 q 701 0 745 13 q 603 -14 658 -14 q 514 -4 554 -14 q 445 22 474 4 q 401 69 417 41 q 386 133 386 96 q 394 179 386 161 q 414 209 402 198 q 440 224 426 220 q 465 229 454 229 q 472 160 465 192 q 495 104 479 128 q 537 66 511 80 q 601 52 563 52 "},"њ":{"x_min":31.75,"x_max":1186,"ha":1263,"o":"m 906 745 l 906 686 l 888 686 q 845 683 865 686 q 808 669 824 679 q 784 640 793 659 q 774 591 774 622 l 774 414 l 867 414 q 988 406 931 414 q 1090 377 1046 399 q 1160 316 1134 355 q 1186 212 1186 276 q 1168 127 1186 166 q 1115 60 1150 88 q 1026 15 1080 31 q 899 0 972 0 l 526 0 l 526 59 l 530 59 q 573 62 553 59 q 610 75 594 65 q 634 103 625 84 q 644 153 644 122 l 644 355 l 294 355 l 294 153 q 304 103 294 122 q 328 75 313 84 q 365 62 344 65 q 408 59 385 59 l 412 59 l 412 0 l 31 0 l 31 58 l 50 58 q 93 61 73 58 q 130 73 114 64 q 154 102 145 83 q 164 151 164 120 l 164 591 q 154 640 164 622 q 130 669 145 659 q 93 683 114 679 q 50 686 73 686 l 31 686 l 31 745 l 412 745 l 412 686 l 408 686 q 365 683 385 686 q 328 670 344 680 q 304 642 313 660 q 294 593 294 623 l 294 414 l 644 414 l 644 591 q 634 640 644 622 q 610 669 625 659 q 573 683 594 679 q 530 686 553 686 l 526 686 l 526 745 l 906 745 m 875 63 q 955 72 922 63 q 1009 100 988 81 q 1041 149 1031 119 q 1051 222 1051 179 q 1003 325 1051 294 q 867 355 955 355 l 774 355 l 774 63 l 875 63 "},"Ű":{"x_min":21.4375,"x_max":975.25,"ha":996,"o":"m 502 -14 q 355 3 420 -14 q 245 58 290 20 q 176 155 200 95 q 153 299 153 214 l 153 839 q 143 888 153 869 q 119 917 134 907 q 82 930 103 927 q 39 933 62 933 l 21 933 l 21 992 l 425 992 l 425 933 l 407 933 q 363 930 384 933 q 326 916 342 926 q 302 885 311 905 q 293 832 293 865 l 293 285 q 310 181 293 224 q 358 112 327 138 q 431 72 389 85 q 525 60 474 60 q 629 77 585 60 q 701 122 672 93 q 744 191 730 151 q 758 279 758 231 l 758 838 q 749 888 758 869 q 724 917 739 906 q 688 930 708 927 q 644 933 667 933 l 626 933 l 626 992 l 975 992 l 975 933 l 956 933 q 912 930 933 933 q 876 916 891 926 q 852 886 861 905 q 843 833 843 866 l 843 283 q 820 158 843 214 q 755 65 798 103 q 649 6 712 26 q 502 -14 585 -14 m 311 1071 l 311 1089 q 341 1137 325 1111 q 373 1190 357 1163 q 404 1243 389 1217 q 429 1293 418 1269 l 578 1293 l 578 1278 q 557 1250 570 1266 q 527 1214 544 1233 q 490 1175 510 1195 q 451 1136 471 1155 q 413 1100 431 1117 q 378 1071 394 1083 l 311 1071 m 562 1071 l 562 1089 q 592 1137 576 1111 q 624 1190 608 1163 q 655 1243 640 1217 q 680 1293 669 1269 l 829 1293 l 829 1278 q 808 1250 821 1266 q 778 1214 795 1233 q 741 1175 761 1195 q 702 1136 722 1155 q 664 1100 682 1117 q 629 1071 645 1083 l 562 1071 "},"c":{"x_min":77,"x_max":629,"ha":684,"o":"m 393 -14 q 265 7 324 -14 q 165 74 207 28 q 100 193 123 121 q 77 367 77 265 q 100 554 77 479 q 165 674 123 629 q 263 739 207 720 q 386 758 320 758 q 472 749 429 758 q 550 723 515 741 q 606 679 584 705 q 628 616 628 652 q 596 548 628 568 q 503 529 565 529 q 498 590 503 561 q 479 641 493 619 q 444 676 466 663 q 386 688 421 688 q 314 673 346 688 q 259 622 282 658 q 224 523 236 585 q 211 368 211 461 q 260 147 211 220 q 421 74 309 74 q 533 102 485 74 q 605 173 581 129 q 622 151 615 164 q 629 118 629 137 q 614 71 629 95 q 569 28 599 47 q 496 -2 540 9 q 393 -14 452 -14 "},"¶":{"x_min":56,"x_max":800.25,"ha":857,"o":"m 583 985 l 451 985 l 451 -154 l 234 -154 l 234 -95 l 253 -95 q 297 -92 276 -95 q 333 -78 318 -88 q 357 -48 348 -67 q 367 3 367 -28 l 367 536 l 268 536 q 166 558 207 536 q 101 617 125 580 q 66 704 77 655 q 56 808 56 753 q 67 909 56 863 q 104 987 79 954 q 171 1037 130 1019 q 270 1055 211 1055 l 800 1055 l 800 996 l 781 996 q 737 993 758 996 q 701 979 716 989 q 677 949 686 968 q 668 897 668 929 l 668 4 q 677 -48 668 -28 q 701 -78 686 -67 q 737 -92 716 -88 q 781 -95 758 -95 l 800 -95 l 800 -154 l 583 -154 l 583 985 "},"Ή":{"x_min":-46,"x_max":1158.578125,"ha":1211,"o":"m 754 0 l 754 58 l 772 58 q 817 61 796 58 q 853 75 837 65 q 877 105 868 86 q 886 158 886 125 l 886 483 l 434 483 l 434 158 q 443 105 434 125 q 467 75 452 86 q 504 61 483 65 q 548 58 525 58 l 566 58 l 566 0 l 162 0 l 162 58 l 180 58 q 224 61 203 58 q 260 75 245 65 q 285 105 276 86 q 294 158 294 125 l 294 839 q 284 888 294 869 q 260 917 275 907 q 223 930 244 927 q 180 933 203 933 l 162 933 l 162 992 l 566 992 l 566 933 l 548 933 q 504 930 525 933 q 467 916 483 926 q 443 886 452 905 q 434 833 434 866 l 434 553 l 886 553 l 886 833 q 877 886 886 866 q 853 916 868 905 q 817 930 837 926 q 772 933 796 933 l 754 933 l 754 992 l 1158 992 l 1158 933 l 1140 933 q 1096 930 1117 933 q 1060 916 1075 926 q 1035 886 1044 905 q 1027 833 1027 866 l 1027 151 q 1036 102 1027 120 q 1060 73 1045 83 q 1097 61 1076 64 q 1140 58 1117 58 l 1158 58 l 1158 0 l 754 0 m -46 789 q -29 833 -37 807 q -13 887 -20 859 q 1 942 -5 915 q 11 993 7 970 l 136 993 l 136 978 q 116 935 131 962 q 82 878 102 908 q 39 819 61 848 q 0 771 17 790 l -46 771 l -46 789 "},"Ὅ":{"x_min":-275,"x_max":952,"ha":1031,"o":"m 952 496 q 923 287 952 382 q 839 126 895 193 q 702 22 783 59 q 515 -14 620 -14 q 322 22 405 -14 q 186 126 240 59 q 105 288 132 193 q 78 498 78 382 q 105 707 78 613 q 186 867 132 801 q 323 970 240 934 q 517 1007 406 1007 q 702 970 622 1007 q 839 867 783 934 q 923 706 895 800 q 952 496 952 612 m 231 497 q 247 312 231 393 q 296 175 262 231 q 384 90 330 119 q 515 60 438 60 q 647 90 593 60 q 734 175 700 119 q 783 312 768 231 q 798 497 798 393 q 783 681 798 600 q 734 818 768 762 q 647 903 700 874 q 517 932 594 932 q 385 903 439 932 q 296 818 331 874 q 247 681 262 762 q 231 497 231 600 m -275 851 q -234 942 -275 904 q -110 1003 -193 981 l -110 960 q -170 930 -151 946 q -190 889 -190 914 q -179 870 -190 876 q -156 858 -169 864 q -133 844 -144 853 q -123 816 -123 835 q -139 778 -123 791 q -188 765 -156 765 q -251 788 -228 765 q -275 851 -275 812 m -51 787 q -34 832 -42 806 q -17 885 -25 857 q -3 940 -9 913 q 6 991 2 968 l 131 991 l 131 977 q 111 933 126 960 q 77 876 97 906 q 35 817 56 846 q -4 770 13 789 l -51 770 l -51 787 "},"γ":{"x_min":0,"x_max":724,"ha":798,"o":"m 149 749 q 203 737 179 749 q 248 698 227 725 q 289 623 269 670 q 330 508 309 577 q 377 343 351 438 q 433 123 402 248 q 500 223 470 166 q 551 339 530 279 q 582 457 571 399 q 593 562 593 515 q 576 634 593 604 q 522 674 559 665 q 545 737 522 717 q 606 758 568 758 q 664 746 641 758 q 700 715 686 734 q 718 672 713 696 q 724 623 724 648 q 711 518 724 573 q 678 406 699 463 q 630 295 658 350 q 572 192 603 241 q 508 103 541 143 q 445 35 476 63 q 447 0 446 18 q 448 -33 448 -16 q 439 -154 448 -99 q 413 -249 430 -209 q 374 -311 397 -289 q 324 -334 351 -334 q 282 -312 296 -334 q 267 -255 267 -291 q 274 -181 267 -217 q 291 -111 281 -144 q 314 -48 301 -78 q 339 6 326 -18 q 294 178 315 96 q 251 334 272 261 q 208 467 229 407 q 167 570 187 527 q 125 636 146 612 q 83 660 104 660 q 54 654 68 660 q 27 641 40 649 l 0 684 q 30 708 13 696 q 67 728 48 719 q 107 743 86 737 q 149 749 128 749 "},"­":{"x_min":35,"x_max":396,"ha":431,"o":"m 35 326 l 35 431 l 396 431 l 396 326 l 35 326 "},":":{"x_min":113,"x_max":288,"ha":399,"o":"m 113 84 q 119 129 113 111 q 138 158 126 147 q 166 174 150 169 q 200 179 182 179 q 234 174 218 179 q 261 158 250 169 q 280 129 273 147 q 288 84 288 111 q 280 39 288 57 q 261 10 273 21 q 234 -5 250 0 q 200 -10 218 -10 q 166 -5 182 -10 q 138 10 150 0 q 119 39 126 21 q 113 84 113 57 m 113 656 q 119 701 113 683 q 138 730 126 719 q 166 746 150 741 q 200 751 182 751 q 234 746 218 751 q 261 730 250 741 q 280 701 273 719 q 288 656 288 683 q 280 612 288 630 q 261 582 273 593 q 234 566 250 571 q 200 562 218 562 q 166 566 182 562 q 138 582 150 571 q 119 612 126 593 q 113 656 113 630 "},"ś":{"x_min":62,"x_max":566,"ha":627,"o":"m 291 -14 q 196 -4 239 -14 q 124 22 154 4 q 78 69 94 41 q 62 133 62 96 q 71 179 62 161 q 93 209 80 198 q 122 224 106 220 q 149 229 137 229 q 156 160 149 192 q 180 104 163 128 q 223 66 196 80 q 290 52 251 52 q 352 61 325 52 q 397 87 379 70 q 425 127 415 104 q 435 178 435 150 q 427 223 435 204 q 401 258 420 241 q 351 291 383 274 q 272 330 320 308 q 183 375 221 353 q 121 423 145 397 q 84 482 96 449 q 72 560 72 515 q 90 645 72 608 q 143 706 109 681 q 226 744 178 731 q 334 757 274 757 q 421 746 383 757 q 485 719 459 736 q 524 678 511 702 q 537 629 537 655 q 510 568 537 591 q 436 546 484 546 q 409 658 436 618 q 325 698 383 698 q 269 690 292 698 q 231 665 246 681 q 209 628 216 650 q 202 581 202 607 q 211 536 202 555 q 240 500 220 516 q 291 468 260 484 q 367 434 323 453 q 456 389 419 411 q 518 340 494 366 q 554 280 542 313 q 566 203 566 247 q 546 108 566 149 q 490 40 526 68 q 404 0 454 13 q 291 -14 353 -14 m 248 860 q 280 905 263 879 q 312 958 296 931 q 343 1013 328 986 q 368 1064 357 1040 l 517 1064 l 517 1049 q 479 1004 504 1031 q 423 946 453 976 q 360 889 393 917 q 300 842 328 860 l 248 842 l 248 860 "}," ":{"x_min":0,"x_max":0,"ha":361},"У":{"x_min":0,"x_max":938,"ha":931,"o":"m 938 933 l 911 933 q 877 929 891 933 q 852 912 863 924 q 830 879 840 900 q 806 825 819 858 l 571 254 q 529 159 549 200 q 489 91 509 119 q 447 45 469 63 q 395 17 424 27 q 328 3 366 7 q 242 0 291 0 l 141 0 l 141 69 l 216 69 q 285 79 252 69 q 347 107 319 88 q 398 150 376 125 q 432 205 420 175 l 116 860 q 97 895 106 881 q 77 917 88 909 q 52 929 66 926 q 18 933 38 933 l 0 933 l 0 992 l 388 992 l 388 933 l 367 933 q 304 917 324 933 q 283 867 283 901 q 286 843 283 855 q 294 815 289 831 l 447 486 q 488 388 471 437 q 517 297 505 339 q 528 339 521 318 q 542 382 534 360 q 559 428 550 404 q 581 481 569 452 l 712 806 q 721 838 718 823 q 724 865 724 854 q 701 917 724 901 q 632 933 678 933 l 603 933 l 603 992 l 938 992 l 938 933 "},"¾":{"x_min":56,"x_max":1133.921875,"ha":1167,"o":"m 241 389 q 103 416 150 389 q 56 495 56 444 q 73 544 56 525 q 119 563 90 563 q 126 520 119 542 q 148 482 134 499 q 185 455 163 465 q 238 444 207 444 q 329 473 296 444 q 362 568 362 502 q 326 647 362 618 q 214 677 291 677 l 168 677 l 168 733 l 213 733 q 262 741 240 733 q 302 766 285 750 q 328 804 319 781 q 338 854 338 826 q 319 925 338 901 q 258 950 301 950 q 214 940 232 950 q 186 914 196 930 q 171 875 175 897 q 167 829 167 853 q 124 832 143 829 q 91 841 104 834 q 71 859 78 847 q 64 889 64 871 q 76 935 64 914 q 113 972 89 957 q 174 997 138 988 q 258 1006 210 1006 q 341 996 304 1006 q 406 969 379 986 q 448 925 433 951 q 463 867 463 899 q 451 812 463 836 q 420 769 440 787 q 375 737 401 750 q 321 716 350 724 l 321 709 q 378 696 349 704 q 431 672 407 687 q 471 632 455 656 q 487 569 487 607 q 464 484 487 519 q 405 429 441 450 q 326 398 369 407 q 241 389 283 389 m 412 0 l 320 0 l 816 992 l 907 992 l 412 0 m 1001 181 l 1001 107 q 1005 80 1001 90 q 1018 65 1010 70 q 1037 58 1026 59 q 1059 56 1047 56 l 1087 56 l 1087 1 l 780 1 l 780 56 l 819 56 q 840 58 830 56 q 858 65 851 59 q 871 80 866 70 q 876 107 876 90 l 876 181 l 630 181 l 630 218 l 889 601 l 1001 601 l 1001 237 l 1133 237 l 1133 181 l 1001 181 m 876 393 q 878 443 876 415 q 883 496 880 470 q 872 473 878 485 q 862 456 866 462 l 712 237 l 876 237 l 876 393 "},"Ί":{"x_min":-46,"x_max":566.640625,"ha":619,"o":"m 162 0 l 162 58 l 180 58 q 224 61 203 58 q 260 75 245 65 q 285 105 276 86 q 294 158 294 125 l 294 833 q 285 886 294 866 q 260 916 276 905 q 224 930 245 926 q 180 933 203 933 l 162 933 l 162 992 l 566 992 l 566 933 l 548 933 q 504 930 525 933 q 467 916 483 926 q 443 886 452 905 q 434 833 434 866 l 434 158 q 443 105 434 125 q 467 75 452 86 q 504 61 483 65 q 548 58 525 58 l 566 58 l 566 0 l 162 0 m -46 789 q -29 833 -37 807 q -13 887 -20 859 q 1 942 -5 915 q 11 993 7 970 l 136 993 l 136 978 q 116 935 131 962 q 82 878 102 908 q 39 819 61 848 q 0 771 17 790 l -46 771 l -46 789 "},"ŉ":{"x_min":0,"x_max":1044.234375,"ha":1083,"o":"m 599 58 l 599 0 l 225 0 l 225 58 l 237 58 q 281 61 260 58 q 317 75 302 65 q 341 105 332 86 q 351 158 351 125 l 351 591 q 341 640 351 622 q 317 669 332 659 q 280 683 301 679 q 237 686 260 686 l 233 686 l 233 745 l 458 745 l 476 631 l 483 631 q 528 695 504 670 q 579 733 553 720 q 636 752 606 747 q 700 758 666 758 q 797 742 754 758 q 871 693 840 726 q 917 608 901 660 q 933 486 933 557 l 933 157 q 940 105 933 125 q 962 75 948 86 q 996 61 977 65 q 1039 58 1016 58 l 1044 58 l 1044 0 l 802 0 l 802 479 q 793 560 802 524 q 767 619 785 595 q 720 656 749 644 q 649 669 691 669 q 570 650 602 669 q 518 601 538 632 q 490 529 498 570 q 481 444 481 488 l 481 151 q 491 102 481 120 q 515 73 500 83 q 552 61 531 64 q 595 58 572 58 l 599 58 m 228 871 q 215 785 228 827 q 176 708 203 744 q 105 645 148 673 q 0 599 62 617 l 0 657 q 100 710 68 679 q 132 782 132 741 q 124 805 132 795 q 106 821 117 814 q 81 835 94 828 q 57 851 68 842 q 38 874 45 861 q 31 909 31 888 q 57 970 31 949 q 121 992 83 992 q 162 984 143 992 q 196 961 181 976 q 219 923 211 945 q 228 871 228 900 "},"Ģ":{"x_min":79,"x_max":965.046875,"ha":992,"o":"m 556 -14 q 345 22 435 -14 q 196 126 256 59 q 108 288 137 193 q 79 497 79 382 q 109 703 79 609 q 202 864 140 796 q 354 968 263 931 q 565 1006 445 1006 q 700 994 642 1006 q 795 961 757 982 q 853 911 834 940 q 872 850 872 883 q 861 809 872 827 q 834 779 851 791 q 793 759 817 766 q 743 753 770 753 q 733 817 743 785 q 702 874 724 848 q 645 915 680 899 q 559 931 610 931 q 409 902 471 931 q 307 817 346 873 q 250 680 268 762 q 232 494 232 599 q 251 309 232 390 q 310 173 269 228 q 418 89 352 117 q 579 60 484 60 q 656 64 619 60 q 723 77 694 68 l 723 302 q 714 352 723 333 q 689 380 705 371 q 653 394 674 390 q 609 397 632 397 l 604 397 l 604 456 l 965 456 l 965 397 l 959 397 q 922 394 939 397 q 891 380 904 390 q 871 350 878 370 q 864 297 864 330 l 864 49 q 720 1 794 17 q 556 -14 646 -14 m 453 -288 q 475 -188 464 -242 q 495 -85 486 -135 l 616 -85 l 616 -98 q 592 -147 606 -120 q 563 -202 579 -174 q 531 -258 547 -231 q 500 -307 514 -285 l 453 -307 l 453 -288 "},"m":{"x_min":38.53125,"x_max":1273.234375,"ha":1312,"o":"m 412 58 l 412 0 l 38 0 l 38 58 l 56 58 q 100 61 80 58 q 134 75 119 65 q 156 105 148 86 q 164 158 164 125 l 164 591 q 155 640 164 622 q 133 669 147 659 q 99 683 119 679 q 56 686 79 686 l 52 686 l 52 745 l 270 745 l 289 631 l 295 631 q 339 695 316 670 q 389 733 362 720 q 443 752 415 747 q 505 758 472 758 q 569 751 539 758 q 626 729 600 744 q 673 690 652 714 q 706 631 693 666 l 718 631 q 763 695 739 670 q 815 733 787 720 q 873 752 842 747 q 935 758 903 758 q 1030 742 988 758 q 1101 693 1072 726 q 1146 608 1130 660 q 1162 486 1162 557 l 1162 157 q 1170 105 1162 125 q 1192 75 1178 86 q 1226 61 1206 65 q 1269 58 1246 58 l 1273 58 l 1273 0 l 1031 0 l 1031 479 q 1023 560 1031 524 q 998 619 1015 595 q 953 656 981 644 q 885 669 925 669 q 813 652 842 669 q 765 607 783 635 q 739 541 747 578 q 731 462 731 504 l 731 157 q 740 105 731 125 q 762 75 748 86 q 796 61 776 65 q 839 58 816 58 l 843 58 l 843 0 l 601 0 l 601 479 q 593 560 601 524 q 568 619 585 595 q 523 656 551 644 q 455 669 495 669 q 379 650 410 669 q 330 601 348 632 q 303 529 311 570 q 294 444 294 488 l 294 151 q 304 102 294 120 q 328 73 313 83 q 365 61 344 64 q 408 58 385 58 l 412 58 "},"Е":{"x_min":52.421875,"x_max":807,"ha":865,"o":"m 324 69 l 592 69 q 649 78 626 69 q 688 103 673 87 q 713 139 704 118 q 725 183 722 160 l 735 243 l 807 243 l 797 0 l 52 0 l 52 58 l 70 58 q 113 61 93 58 q 150 73 134 64 q 174 102 165 83 q 184 151 184 120 l 184 833 q 175 886 184 866 q 150 916 166 905 q 114 930 135 926 q 70 933 93 933 l 52 933 l 52 992 l 753 992 l 760 749 l 688 749 l 681 808 q 670 852 678 831 q 648 888 662 873 q 611 913 633 904 q 558 922 589 922 l 324 922 l 324 553 l 660 553 l 660 483 l 324 483 l 324 69 "},"ž":{"x_min":58,"x_max":632,"ha":710,"o":"m 471 79 q 512 88 496 79 q 538 113 528 98 q 555 150 549 129 q 566 193 562 170 l 573 225 l 632 225 l 625 0 l 58 0 l 58 55 l 461 665 l 243 665 q 198 658 216 665 q 169 637 180 651 q 150 602 158 623 q 136 553 143 581 l 135 548 l 78 548 l 91 745 l 624 745 l 624 688 l 219 79 l 471 79 m 167 1064 l 221 1064 q 261 1036 240 1051 q 300 1005 281 1022 q 337 971 319 988 q 371 937 355 954 q 404 971 386 954 q 442 1005 422 988 q 482 1036 462 1022 q 522 1064 503 1051 l 577 1064 l 577 1045 q 541 1000 560 1026 q 501 947 521 974 q 465 892 482 919 q 437 842 448 865 l 306 842 q 278 892 295 865 q 242 947 261 919 q 202 1000 222 974 q 167 1045 183 1026 l 167 1064 "},"á":{"x_min":69,"x_max":722.203125,"ha":782,"o":"m 203 200 q 231 103 203 135 q 316 71 258 71 q 392 84 358 71 q 451 123 427 98 q 488 184 475 148 q 501 263 501 219 l 501 375 l 412 371 q 313 357 353 368 q 249 324 273 345 q 214 271 225 302 q 203 200 203 240 m 372 688 q 307 677 331 688 q 268 646 282 666 q 249 598 254 625 q 245 538 245 570 q 157 557 187 538 q 127 625 127 577 q 146 686 127 661 q 200 727 166 711 q 280 750 234 743 q 377 758 325 758 q 488 745 441 758 q 568 704 536 732 q 616 630 600 675 q 632 518 632 584 l 632 157 q 636 109 632 128 q 651 79 641 90 q 678 63 661 67 q 718 58 695 58 l 722 58 l 722 0 l 534 0 l 512 118 l 501 118 q 459 65 479 89 q 414 23 438 40 q 358 -4 389 5 q 284 -14 328 -14 q 198 0 238 -14 q 130 39 159 12 q 85 109 101 67 q 69 207 69 150 q 147 371 69 318 q 385 429 226 425 l 501 434 l 501 517 q 497 586 501 554 q 479 640 492 618 q 440 676 465 663 q 372 688 414 688 m 320 860 q 352 905 335 879 q 384 958 368 931 q 415 1013 400 986 q 440 1064 429 1040 l 589 1064 l 589 1049 q 551 1004 576 1031 q 495 946 525 976 q 432 889 465 917 q 372 842 400 860 l 320 842 l 320 860 "},"×":{"x_min":98.578125,"x_max":676.421875,"ha":777,"o":"m 387 438 l 156 208 l 98 267 l 329 498 l 98 727 l 156 786 l 387 555 l 618 787 l 676 727 l 445 497 l 676 266 l 618 208 l 387 438 "},"п":{"x_min":31.75,"x_max":896.265625,"ha":928,"o":"m 896 745 l 896 686 l 877 686 q 834 683 854 686 q 797 670 813 680 q 773 642 782 660 q 764 593 764 623 l 764 151 q 773 102 764 120 q 797 73 782 83 q 834 61 813 64 q 877 58 854 58 l 896 58 l 896 0 l 515 0 l 515 58 l 519 58 q 562 61 542 58 q 599 73 583 64 q 623 102 614 83 q 633 151 633 120 l 633 681 l 294 681 l 294 151 q 304 102 294 120 q 328 73 313 83 q 365 61 344 64 q 408 58 385 58 l 412 58 l 412 0 l 31 0 l 31 58 l 50 58 q 93 61 73 58 q 130 73 114 64 q 154 102 145 83 q 164 151 164 120 l 164 591 q 154 640 164 622 q 130 669 145 659 q 93 683 114 679 q 50 686 73 686 l 31 686 l 31 745 l 896 745 "},"Ǻ":{"x_min":0,"x_max":979,"ha":979,"o":"m 657 975 q 633 890 657 923 q 569 839 609 856 l 862 124 q 878 92 870 105 q 898 71 887 79 q 925 61 910 64 q 960 58 940 58 l 979 58 l 979 0 l 597 0 l 597 58 l 629 58 q 712 119 712 58 q 709 140 712 130 q 700 165 706 150 l 645 301 l 280 301 l 227 173 q 218 144 221 158 q 215 120 215 130 q 307 58 215 58 l 339 58 l 339 0 l 0 0 l 0 58 l 26 58 q 61 62 46 58 q 86 77 75 66 q 108 107 98 88 q 132 156 119 126 l 416 836 q 348 886 374 852 q 323 975 323 921 q 335 1040 323 1012 q 371 1088 348 1069 q 424 1117 394 1107 q 490 1127 455 1127 q 555 1117 524 1127 q 608 1088 585 1107 q 644 1040 631 1069 q 657 975 657 1012 m 534 590 q 495 694 513 645 q 465 788 476 742 q 453 746 459 767 q 438 702 446 725 q 422 655 431 680 q 401 601 412 630 l 311 371 l 616 371 l 534 590 m 581 974 q 574 1013 581 997 q 554 1038 567 1028 q 525 1053 542 1048 q 490 1057 509 1057 q 454 1053 470 1057 q 425 1038 437 1048 q 405 1013 412 1028 q 398 974 398 997 q 405 936 398 952 q 425 911 412 920 q 454 896 437 901 q 490 892 470 892 q 525 896 509 892 q 554 911 542 901 q 574 936 567 920 q 581 974 581 952 m 432 1166 q 463 1203 446 1182 q 496 1246 480 1224 q 527 1290 512 1268 q 552 1331 541 1311 l 701 1331 l 701 1320 q 663 1283 688 1305 q 607 1236 637 1261 q 544 1190 577 1212 q 484 1153 512 1167 l 432 1153 l 432 1166 "},"K":{"x_min":52.421875,"x_max":989,"ha":973,"o":"m 612 771 q 649 817 634 797 q 673 853 664 837 q 685 882 681 869 q 689 904 689 894 q 672 928 689 922 q 620 935 655 935 l 620 992 l 928 992 l 928 935 q 882 925 904 935 q 838 900 860 916 q 792 859 815 883 q 741 804 769 835 l 540 578 l 833 169 q 910 86 873 114 q 986 58 947 58 l 989 58 l 989 0 l 974 0 q 859 5 904 0 q 783 25 814 10 q 730 63 753 39 q 682 124 707 87 l 442 468 l 324 372 l 324 158 q 333 105 324 125 q 357 75 342 86 q 394 61 373 65 q 438 58 415 58 l 456 58 l 456 0 l 52 0 l 52 58 l 70 58 q 113 61 93 58 q 150 73 134 64 q 174 102 165 83 q 184 151 184 120 l 184 839 q 174 888 184 869 q 150 917 165 907 q 113 930 134 927 q 70 933 93 933 l 52 933 l 52 992 l 456 992 l 456 933 l 438 933 q 394 930 415 933 q 357 916 373 926 q 333 886 342 905 q 324 833 324 866 l 324 441 l 612 771 "},"7":{"x_min":82,"x_max":711,"ha":777,"o":"m 264 0 l 592 878 l 226 878 q 145 808 151 878 l 140 739 l 82 739 l 88 990 l 711 990 l 711 949 l 368 0 l 264 0 "},"¨":{"x_min":197,"x_max":602.75,"ha":802,"o":"m 197 956 q 202 992 197 977 q 217 1016 207 1007 q 239 1029 226 1025 q 267 1034 252 1034 q 295 1029 282 1034 q 318 1016 308 1025 q 333 992 327 1007 q 338 956 338 977 q 333 920 338 934 q 318 895 327 905 q 295 882 308 886 q 267 878 282 878 q 217 895 237 878 q 197 956 197 913 m 461 956 q 466 992 461 977 q 481 1016 471 1007 q 503 1029 490 1025 q 531 1034 516 1034 q 559 1029 546 1034 q 582 1016 572 1025 q 597 992 591 1007 q 602 956 602 977 q 597 920 602 934 q 582 895 591 905 q 559 882 572 886 q 531 878 546 878 q 481 895 501 878 q 461 956 461 913 "},"Y":{"x_min":-7,"x_max":872,"ha":868,"o":"m 221 0 l 221 58 l 253 58 q 296 61 276 58 q 333 73 317 64 q 357 102 348 83 q 367 151 367 120 l 367 413 l 109 860 q 87 893 98 880 q 66 916 77 907 q 41 929 55 925 q 10 933 28 933 l -7 933 l -7 992 l 374 992 l 374 933 l 323 933 q 292 930 304 933 q 273 920 280 926 q 264 906 267 914 q 262 889 262 898 q 270 850 262 869 q 287 815 279 830 l 389 629 q 431 545 414 586 q 459 470 448 503 q 475 504 466 485 q 495 543 484 522 q 518 585 506 563 q 543 629 531 607 l 631 789 q 651 834 645 812 q 657 872 657 855 q 635 918 657 903 q 573 933 613 933 l 532 933 l 532 992 l 872 992 l 872 933 l 855 933 q 827 928 840 933 q 800 910 814 923 q 772 877 787 898 q 740 825 758 857 l 507 413 l 507 158 q 516 105 507 125 q 540 75 525 86 q 576 61 556 65 q 620 58 597 58 l 653 58 l 653 0 l 221 0 "},"E":{"x_min":52.421875,"x_max":807,"ha":865,"o":"m 324 69 l 592 69 q 649 78 626 69 q 688 103 673 87 q 713 139 704 118 q 725 183 722 160 l 735 243 l 807 243 l 797 0 l 52 0 l 52 58 l 70 58 q 113 61 93 58 q 150 73 134 64 q 174 102 165 83 q 184 151 184 120 l 184 833 q 175 886 184 866 q 150 916 166 905 q 114 930 135 926 q 70 933 93 933 l 52 933 l 52 992 l 753 992 l 760 749 l 688 749 l 681 808 q 670 852 678 831 q 648 888 662 873 q 611 913 633 904 q 558 922 589 922 l 324 922 l 324 553 l 660 553 l 660 483 l 324 483 l 324 69 "},"Ô":{"x_min":78,"x_max":952,"ha":1031,"o":"m 952 496 q 923 287 952 382 q 839 126 895 193 q 702 22 783 59 q 515 -14 620 -14 q 322 22 405 -14 q 186 126 240 59 q 105 288 132 193 q 78 498 78 382 q 105 707 78 613 q 186 867 132 801 q 323 970 240 934 q 517 1007 406 1007 q 702 970 622 1007 q 839 867 783 934 q 923 706 895 800 q 952 496 952 612 m 231 497 q 247 312 231 393 q 296 175 262 231 q 384 90 330 119 q 515 60 438 60 q 647 90 593 60 q 734 175 700 119 q 783 312 768 231 q 798 497 798 393 q 783 681 798 600 q 734 818 768 762 q 647 903 700 874 q 517 932 594 932 q 385 903 439 932 q 296 818 331 874 q 247 681 262 762 q 231 497 231 600 m 312 1089 q 347 1134 328 1108 q 387 1187 367 1160 q 423 1242 406 1215 q 451 1293 440 1269 l 582 1293 q 610 1242 593 1269 q 646 1187 627 1215 q 686 1134 666 1160 q 722 1089 705 1108 l 722 1071 l 667 1071 q 587 1128 627 1093 q 516 1195 547 1162 q 445 1128 484 1162 q 366 1071 405 1093 l 312 1071 l 312 1089 "},"Є":{"x_min":79,"x_max":806,"ha":853,"o":"m 524 1006 q 648 994 596 1006 q 736 961 701 982 q 788 911 771 940 q 806 850 806 883 q 796 809 806 827 q 771 779 787 791 q 733 759 755 766 q 685 753 711 753 q 676 817 685 785 q 648 874 668 848 q 598 915 629 899 q 522 931 567 931 q 393 904 446 931 q 304 827 339 878 q 252 703 270 777 q 232 534 235 629 l 617 534 l 617 464 l 232 464 q 253 307 235 379 q 306 185 271 236 q 395 105 341 133 q 522 77 449 77 q 612 87 573 77 q 681 113 651 97 q 734 151 711 129 q 774 196 756 172 q 793 175 786 188 q 801 141 801 162 q 783 87 801 115 q 728 37 765 60 q 635 0 691 15 q 501 -14 578 -14 q 318 22 397 -14 q 186 126 239 59 q 106 288 133 193 q 79 497 79 382 q 107 703 79 609 q 192 864 136 796 q 331 968 248 931 q 524 1006 415 1006 "},"Ï":{"x_min":49,"x_max":456.640625,"ha":510,"o":"m 52 0 l 52 58 l 70 58 q 114 61 93 58 q 150 75 135 65 q 175 105 166 86 q 184 158 184 125 l 184 833 q 175 886 184 866 q 150 916 166 905 q 114 930 135 926 q 70 933 93 933 l 52 933 l 52 992 l 456 992 l 456 933 l 438 933 q 394 930 415 933 q 357 916 373 926 q 333 886 342 905 q 324 833 324 866 l 324 158 q 333 105 324 125 q 357 75 342 86 q 394 61 373 65 q 438 58 415 58 l 456 58 l 456 0 l 52 0 m 49 1185 q 54 1221 49 1206 q 69 1245 59 1236 q 91 1258 78 1254 q 119 1263 104 1263 q 147 1258 134 1263 q 170 1245 160 1254 q 185 1221 179 1236 q 190 1185 190 1206 q 185 1149 190 1163 q 170 1124 179 1134 q 147 1111 160 1115 q 119 1107 134 1107 q 69 1124 89 1107 q 49 1185 49 1142 m 313 1185 q 318 1221 313 1206 q 333 1245 323 1236 q 355 1258 342 1254 q 383 1263 368 1263 q 411 1258 398 1263 q 434 1245 424 1254 q 449 1221 443 1236 q 454 1185 454 1206 q 449 1149 454 1163 q 434 1124 443 1134 q 411 1111 424 1115 q 383 1107 398 1107 q 333 1124 353 1107 q 313 1185 313 1142 "},"ġ":{"x_min":32,"x_max":731,"ha":747,"o":"m 731 715 q 726 687 731 700 q 713 664 722 674 q 690 648 704 654 q 657 643 676 643 q 655 658 657 650 q 648 673 653 666 q 634 684 643 680 q 611 688 625 688 q 579 685 593 688 q 551 673 565 681 q 590 604 575 644 q 606 505 606 564 q 590 410 606 453 q 543 334 574 366 q 465 284 512 302 q 355 267 418 267 q 337 267 347 267 q 316 268 326 267 q 297 269 306 268 q 283 271 288 270 q 273 256 278 264 q 264 237 268 248 q 259 214 261 227 q 256 186 256 201 q 262 159 256 169 q 279 143 268 148 q 304 135 289 137 q 335 134 318 134 l 479 134 q 576 118 536 134 q 640 75 615 102 q 677 9 666 47 q 689 -73 689 -29 q 666 -181 689 -133 q 599 -263 644 -230 q 484 -315 554 -297 q 320 -334 415 -334 q 103 -276 175 -334 q 32 -117 32 -219 q 45 -41 32 -74 q 82 13 59 -9 q 136 51 106 36 q 200 72 166 65 q 173 86 186 77 q 149 108 160 96 q 132 138 139 121 q 126 174 126 154 q 148 239 126 212 q 219 292 170 266 q 166 325 189 304 q 126 374 142 346 q 102 434 110 401 q 94 501 94 466 q 110 609 94 561 q 159 689 126 656 q 240 740 191 722 q 355 758 289 758 q 405 754 380 758 q 450 744 429 750 q 487 729 470 737 q 514 712 504 721 q 538 736 524 723 q 568 760 551 749 q 605 779 585 772 q 648 787 625 787 q 685 781 669 787 q 710 765 700 775 q 725 742 720 755 q 731 715 731 729 m 162 -103 q 170 -167 162 -137 q 196 -218 177 -197 q 246 -252 215 -240 q 327 -264 278 -264 q 440 -250 395 -264 q 510 -211 484 -236 q 547 -151 536 -186 q 558 -75 558 -116 q 549 -15 558 -39 q 524 21 541 7 q 484 39 508 34 q 428 45 459 45 l 302 45 q 250 39 276 45 q 206 17 225 33 q 174 -27 186 1 q 162 -103 162 -56 m 224 505 q 254 377 224 417 q 351 336 284 336 q 408 346 385 336 q 447 377 432 356 q 468 430 462 397 q 475 507 475 462 q 446 644 475 600 q 350 688 418 688 q 253 643 282 688 q 224 505 224 598 m 276 970 q 282 1011 276 994 q 299 1037 288 1027 q 324 1051 309 1047 q 355 1056 338 1056 q 386 1051 371 1056 q 411 1037 400 1047 q 428 1011 422 1027 q 435 970 435 994 q 428 929 435 945 q 411 903 422 913 q 386 888 400 892 q 355 884 371 884 q 324 888 338 884 q 299 903 309 892 q 282 929 288 913 q 276 970 276 945 "},"έ":{"x_min":75,"x_max":643,"ha":689,"o":"m 228 560 q 259 469 228 505 q 355 429 289 433 q 382 434 367 431 q 410 439 396 437 q 438 442 425 441 q 462 443 451 443 q 502 432 487 443 q 518 396 518 420 q 496 356 518 372 q 438 339 475 339 q 414 340 428 339 q 383 344 399 342 q 353 351 368 347 q 329 359 339 355 q 282 341 304 354 q 244 310 260 329 q 219 266 228 291 q 209 208 209 240 q 256 106 209 139 q 392 73 302 73 q 466 81 432 73 q 528 102 500 89 q 578 133 556 116 q 616 170 600 151 q 634 153 626 166 q 643 123 643 140 q 627 73 643 97 q 576 29 611 48 q 488 -2 542 9 q 356 -14 433 -14 q 230 2 284 -14 q 142 48 177 19 q 91 117 108 77 q 75 202 75 156 q 88 274 75 244 q 123 326 101 304 q 174 362 145 347 q 233 386 202 376 l 233 394 q 176 420 201 404 q 134 459 151 437 q 107 506 117 481 q 98 560 98 532 q 117 644 98 608 q 174 706 136 681 q 265 744 211 731 q 388 757 319 757 q 490 746 446 757 q 561 717 533 735 q 604 675 590 699 q 618 626 618 652 q 590 562 618 582 q 508 543 563 543 q 473 652 508 612 q 367 693 437 693 q 300 682 327 693 q 258 653 273 671 q 235 611 242 636 q 228 560 228 587 m 338 860 q 354 904 346 878 q 370 958 363 930 q 385 1013 378 986 q 395 1064 391 1041 l 520 1064 l 520 1049 q 500 1006 515 1033 q 466 949 486 979 q 423 890 445 919 q 383 842 401 861 l 338 842 l 338 860 "}," ":{"x_min":0,"x_max":0,"ha":463},"ϋ":{"x_min":25.203125,"x_max":747,"ha":823,"o":"m 426 -14 q 304 5 356 -14 q 218 62 253 25 q 166 154 183 100 q 150 276 150 208 l 150 591 q 139 640 150 622 q 112 669 129 659 q 74 683 95 679 q 29 686 52 686 l 25 686 l 25 745 l 280 745 l 280 288 q 324 129 280 183 q 448 74 368 74 q 554 100 513 74 q 618 170 595 125 q 651 277 642 216 q 660 412 660 339 q 648 515 660 470 q 618 593 637 561 q 575 643 599 624 q 528 669 551 662 q 535 706 528 690 q 552 733 541 722 q 578 750 563 744 q 609 756 593 756 q 671 729 645 756 q 714 658 697 702 q 738 558 730 614 q 747 444 747 502 q 740 328 747 385 q 719 220 734 271 q 681 126 704 169 q 621 52 657 83 q 537 3 585 21 q 426 -14 489 -14 m 196 956 q 201 992 196 977 q 216 1016 206 1007 q 238 1029 225 1025 q 266 1034 251 1034 q 294 1029 281 1034 q 317 1016 307 1025 q 332 992 326 1007 q 337 956 337 977 q 332 920 337 934 q 317 895 326 905 q 294 882 307 886 q 266 878 281 878 q 216 895 236 878 q 196 956 196 913 m 460 956 q 465 992 460 977 q 480 1016 470 1007 q 502 1029 489 1025 q 530 1034 515 1034 q 558 1029 545 1034 q 581 1016 571 1025 q 596 992 590 1007 q 601 956 601 977 q 596 920 601 934 q 581 895 590 905 q 558 882 571 886 q 530 878 545 878 q 480 895 500 878 q 460 956 460 913 "},"й":{"x_min":31.75,"x_max":924.25,"ha":956,"o":"m 924 745 l 924 686 l 905 686 q 862 683 882 686 q 825 670 841 680 q 801 642 810 660 q 792 593 792 623 l 792 151 q 801 102 792 120 q 825 73 810 83 q 862 61 841 64 q 905 58 882 58 l 924 58 l 924 0 l 528 0 l 528 58 l 547 58 q 590 61 570 58 q 627 73 611 64 q 651 102 642 83 q 661 151 661 120 l 661 497 l 294 158 l 294 151 q 304 102 294 120 q 328 73 313 83 q 365 61 344 64 q 408 58 385 58 l 427 58 l 427 0 l 31 0 l 31 58 l 50 58 q 93 61 73 58 q 130 73 114 64 q 154 102 145 83 q 164 151 164 120 l 164 591 q 154 640 164 622 q 130 669 145 659 q 93 683 114 679 q 50 686 73 686 l 31 686 l 31 745 l 427 745 l 427 686 l 408 686 q 365 683 385 686 q 328 670 344 680 q 304 642 313 660 q 294 593 294 623 l 294 245 l 661 587 l 661 591 q 651 640 661 622 q 627 669 642 659 q 590 683 611 679 q 547 686 570 686 l 543 686 l 543 745 l 924 745 m 745 1030 q 724 953 740 987 q 676 893 707 918 q 596 855 644 869 q 480 842 548 842 q 363 854 411 842 q 286 892 315 867 q 242 951 256 916 q 225 1030 228 986 l 340 1030 q 352 969 343 993 q 379 933 362 946 q 421 914 396 920 q 483 909 447 909 q 538 915 513 909 q 581 935 563 922 q 611 972 599 949 q 626 1030 622 995 l 745 1030 "},"b":{"x_min":25.203125,"x_max":777,"ha":853,"o":"m 777 373 q 758 199 777 272 q 703 78 739 126 q 614 8 667 31 q 493 -14 561 -14 q 420 -5 453 -14 q 362 19 388 3 q 315 58 335 36 q 280 108 295 80 l 272 108 l 247 0 l 25 0 l 25 58 l 36 58 q 80 61 59 58 q 116 75 101 65 q 140 105 131 86 q 150 158 150 125 l 150 902 q 140 951 150 932 q 116 980 131 970 q 79 993 100 990 q 36 996 59 996 l 25 996 l 25 1055 l 280 1055 l 280 800 q 280 745 280 776 q 278 686 279 714 q 275 618 276 653 l 280 618 q 316 676 296 650 q 361 720 335 702 q 420 748 387 738 q 493 758 452 758 q 614 735 561 758 q 703 665 667 712 q 758 545 739 618 q 777 373 777 473 m 469 669 q 378 651 415 669 q 320 596 342 633 q 290 504 299 559 q 280 373 280 448 q 290 245 280 300 q 321 151 299 189 q 379 94 343 113 q 470 74 415 74 q 549 94 517 74 q 602 151 581 113 q 632 245 623 189 q 642 374 642 301 q 632 503 642 448 q 602 595 623 559 q 548 650 581 632 q 469 669 515 669 "},"ύ":{"x_min":25.203125,"x_max":747,"ha":823,"o":"m 426 -14 q 304 5 356 -14 q 218 62 253 25 q 166 154 183 100 q 150 276 150 208 l 150 591 q 139 640 150 622 q 112 669 129 659 q 74 683 95 679 q 29 686 52 686 l 25 686 l 25 745 l 280 745 l 280 288 q 324 129 280 183 q 448 74 368 74 q 554 100 513 74 q 618 170 595 125 q 651 277 642 216 q 660 412 660 339 q 648 515 660 470 q 618 593 637 561 q 575 643 599 624 q 528 669 551 662 q 535 706 528 690 q 552 733 541 722 q 578 750 563 744 q 609 756 593 756 q 671 729 645 756 q 714 658 697 702 q 738 558 730 614 q 747 444 747 502 q 740 328 747 385 q 719 220 734 271 q 681 126 704 169 q 621 52 657 83 q 537 3 585 21 q 426 -14 489 -14 m 386 860 q 402 904 394 878 q 418 958 411 930 q 433 1013 426 986 q 443 1064 439 1041 l 568 1064 l 568 1049 q 548 1006 563 1033 q 514 949 534 979 q 471 890 493 919 q 431 842 449 861 l 386 842 l 386 860 "},"ﬂ":{"x_min":37.734375,"x_max":901.578125,"ha":935,"o":"m 525 58 q 569 61 548 58 q 605 75 590 65 q 629 106 620 86 q 639 158 639 125 l 639 869 q 629 924 639 898 q 601 969 620 950 q 551 1000 582 989 q 478 1011 521 1011 q 390 993 425 1011 q 336 943 356 974 q 308 871 316 912 q 300 785 300 830 l 300 745 l 513 745 l 513 675 l 300 675 l 300 157 q 310 105 300 125 q 334 75 319 86 q 370 61 349 65 q 414 58 391 58 l 439 58 l 439 0 l 37 0 l 37 58 l 56 58 q 100 61 79 58 q 136 75 121 65 q 160 105 151 86 q 170 157 170 125 l 170 675 l 43 675 l 43 745 l 170 745 l 170 786 q 189 903 170 850 q 250 992 209 955 q 353 1049 291 1029 q 501 1070 416 1070 q 537 1068 518 1070 q 574 1064 556 1066 q 607 1059 592 1062 q 631 1055 622 1057 l 770 1055 l 770 158 q 778 105 770 125 q 803 75 787 86 q 839 61 818 65 q 883 58 860 58 l 901 58 l 901 0 l 521 0 l 521 58 l 525 58 "},"ф":{"x_min":77,"x_max":920,"ha":996,"o":"m 325 -276 q 369 -273 348 -276 q 405 -259 390 -269 q 429 -228 420 -248 q 439 -176 439 -208 l 439 -11 q 286 21 353 -4 q 172 96 219 48 q 101 214 125 145 q 77 373 77 283 q 168 649 77 554 q 439 756 260 743 l 439 902 q 429 951 439 933 q 405 980 420 970 q 368 993 389 990 q 325 996 348 996 l 307 996 l 307 1055 l 569 1055 l 569 756 q 717 722 652 749 q 827 647 782 694 q 896 531 872 599 q 920 373 920 463 q 831 96 920 192 q 569 -11 742 1 l 569 -176 q 579 -228 569 -208 q 603 -259 588 -248 q 639 -273 618 -269 q 683 -276 660 -276 l 702 -276 l 702 -335 l 307 -335 l 307 -276 l 325 -276 m 211 374 q 224 248 211 303 q 262 152 236 192 q 333 89 289 113 q 439 58 376 65 l 439 686 q 333 655 376 679 q 262 593 289 632 q 224 499 236 554 q 211 374 211 445 m 785 374 q 773 499 785 444 q 736 593 762 554 q 669 655 710 632 q 569 686 628 679 l 569 58 q 670 89 629 65 q 737 152 711 113 q 773 248 762 192 q 785 374 785 303 "},"Ŋ":{"x_min":52.421875,"x_max":1062.265625,"ha":1101,"o":"m 930 -10 q 916 -166 930 -104 q 877 -265 903 -228 q 811 -318 850 -302 q 718 -334 771 -334 l 687 -334 l 687 -264 l 706 -264 q 765 -252 739 -264 q 809 -210 791 -240 q 836 -133 826 -181 q 845 -12 845 -84 l 845 0 l 268 814 l 268 158 q 277 105 268 125 q 302 75 287 86 q 338 61 317 65 q 382 58 359 58 l 401 58 l 401 0 l 52 0 l 52 58 l 70 58 q 114 61 93 58 q 150 75 135 65 q 175 105 166 86 q 184 158 184 125 l 184 839 q 174 888 184 869 q 150 917 165 907 q 113 930 134 927 q 70 933 93 933 l 52 933 l 52 992 l 306 992 l 845 229 l 845 839 q 836 888 845 869 q 811 917 826 907 q 775 930 795 927 q 731 933 754 933 l 713 933 l 713 992 l 1062 992 l 1062 933 l 1043 933 q 999 930 1020 933 q 963 916 978 926 q 939 886 948 905 q 930 833 930 866 l 930 -10 "},"Ũ":{"x_min":21.4375,"x_max":975.25,"ha":996,"o":"m 502 -14 q 355 3 420 -14 q 245 58 290 20 q 176 155 200 95 q 153 299 153 214 l 153 839 q 143 888 153 869 q 119 917 134 907 q 82 930 103 927 q 39 933 62 933 l 21 933 l 21 992 l 425 992 l 425 933 l 407 933 q 363 930 384 933 q 326 916 342 926 q 302 885 311 905 q 293 832 293 865 l 293 285 q 310 181 293 224 q 358 112 327 138 q 431 72 389 85 q 525 60 474 60 q 629 77 585 60 q 701 122 672 93 q 744 191 730 151 q 758 279 758 231 l 758 838 q 749 888 758 869 q 724 917 739 906 q 688 930 708 927 q 644 933 667 933 l 626 933 l 626 992 l 975 992 l 975 933 l 956 933 q 912 930 933 933 q 876 916 891 926 q 852 886 861 905 q 843 833 843 866 l 843 283 q 820 158 843 214 q 755 65 798 103 q 649 6 712 26 q 502 -14 585 -14 m 630 1161 q 663 1167 651 1161 q 683 1183 676 1173 q 693 1207 690 1194 q 698 1235 696 1220 l 761 1235 q 749 1173 758 1203 q 723 1121 740 1144 q 679 1084 705 1098 q 615 1071 652 1071 q 547 1084 578 1071 q 491 1114 517 1098 q 442 1145 465 1131 q 397 1158 420 1158 q 364 1152 376 1158 q 345 1136 352 1146 q 334 1112 338 1126 q 329 1085 331 1099 l 267 1085 q 278 1146 269 1116 q 305 1198 287 1175 q 350 1235 323 1221 q 414 1249 376 1249 q 481 1235 451 1249 q 537 1205 511 1221 q 586 1174 563 1188 q 630 1161 609 1161 "},"Щ":{"x_min":52.421875,"x_max":1456,"ha":1499,"o":"m 1456 -292 l 1384 -292 q 1330 -72 1384 -144 q 1181 0 1277 0 l 52 0 l 52 58 l 70 58 q 113 61 93 58 q 150 74 134 64 q 174 103 165 84 q 184 152 184 122 l 184 833 q 175 886 184 866 q 150 916 166 905 q 114 930 135 926 q 70 933 93 933 l 52 933 l 52 992 l 456 992 l 456 933 l 438 933 q 394 930 415 933 q 357 916 373 926 q 333 886 342 905 q 324 833 324 866 l 324 69 l 679 69 l 679 839 q 671 886 679 867 q 649 915 663 904 q 617 929 635 925 q 579 933 599 933 l 575 933 l 575 992 l 923 992 l 923 933 l 919 933 q 880 929 898 933 q 848 914 861 925 q 827 883 834 903 q 819 833 819 864 l 819 69 l 1173 69 l 1173 833 q 1164 886 1173 866 q 1140 916 1155 905 q 1104 930 1124 926 q 1059 933 1083 933 l 1041 933 l 1041 992 l 1446 992 l 1446 933 l 1427 933 q 1383 930 1404 933 q 1347 916 1362 926 q 1323 886 1332 905 q 1314 833 1314 866 l 1314 158 q 1323 105 1314 125 q 1347 75 1332 86 q 1383 61 1362 65 q 1428 58 1405 58 l 1456 58 l 1456 -292 "},"L":{"x_min":52.421875,"x_max":807,"ha":865,"o":"m 52 0 l 52 58 l 70 58 q 114 61 93 58 q 150 75 135 65 q 175 105 166 86 q 184 158 184 125 l 184 833 q 175 886 184 866 q 150 916 166 905 q 114 930 135 926 q 70 933 93 933 l 52 933 l 52 992 l 456 992 l 456 933 l 438 933 q 394 930 415 933 q 358 917 373 927 q 333 888 342 907 q 324 839 324 869 l 324 69 l 599 69 q 652 80 630 69 q 688 109 674 91 q 710 150 703 127 q 721 194 718 172 l 735 299 l 807 299 l 797 0 l 52 0 "},"ď":{"x_min":77,"x_max":943,"ha":853,"o":"m 703 152 q 712 103 703 122 q 736 74 721 84 q 773 61 752 64 q 816 58 793 58 l 828 58 l 828 0 l 592 0 l 577 124 l 572 124 q 536 67 556 92 q 490 23 516 41 q 432 -4 465 5 q 359 -14 400 -14 q 238 8 291 -14 q 149 78 185 31 q 95 198 113 125 q 77 370 77 270 q 95 544 77 471 q 149 665 113 617 q 238 735 185 712 q 359 758 291 758 q 431 749 399 758 q 490 724 464 740 q 536 685 516 707 q 572 635 557 663 l 580 635 q 576 699 578 669 q 573 750 574 725 q 572 788 572 776 l 572 902 q 562 951 572 932 q 538 980 553 970 q 501 993 522 990 q 458 996 481 996 l 446 996 l 446 1055 l 703 1055 l 703 152 m 383 74 q 473 92 437 74 q 531 147 509 110 q 562 239 553 184 q 572 370 572 295 q 562 498 572 443 q 531 592 553 554 q 473 649 509 629 q 382 669 436 669 q 304 649 336 669 q 251 591 272 629 q 221 497 230 553 q 211 369 211 441 q 251 148 211 221 q 383 74 291 74 m 780 850 q 802 951 791 897 q 822 1055 813 1004 l 943 1055 l 943 1041 q 919 992 933 1019 q 890 937 906 965 q 858 881 874 909 q 827 833 841 854 l 780 833 l 780 850 "},"Ο":{"x_min":78,"x_max":952,"ha":1031,"o":"m 952 496 q 923 287 952 382 q 839 126 895 193 q 702 22 783 59 q 515 -14 620 -14 q 322 22 405 -14 q 186 126 240 59 q 105 288 132 193 q 78 498 78 382 q 105 707 78 613 q 186 867 132 801 q 323 970 240 934 q 517 1007 406 1007 q 702 970 622 1007 q 839 867 783 934 q 923 706 895 800 q 952 496 952 612 m 231 497 q 247 312 231 393 q 296 175 262 231 q 384 90 330 119 q 515 60 438 60 q 647 90 593 60 q 734 175 700 119 q 783 312 768 231 q 798 497 798 393 q 783 681 798 600 q 734 818 768 762 q 647 903 700 874 q 517 932 594 932 q 385 903 439 932 q 296 818 331 874 q 247 681 262 762 q 231 497 231 600 "},"Ĭ":{"x_min":52.421875,"x_max":456.640625,"ha":510,"o":"m 52 0 l 52 58 l 70 58 q 114 61 93 58 q 150 75 135 65 q 175 105 166 86 q 184 158 184 125 l 184 833 q 175 886 184 866 q 150 916 166 905 q 114 930 135 926 q 70 933 93 933 l 52 933 l 52 992 l 456 992 l 456 933 l 438 933 q 394 930 415 933 q 357 916 373 926 q 333 886 342 905 q 324 833 324 866 l 324 158 q 333 105 324 125 q 357 75 342 86 q 394 61 373 65 q 438 58 415 58 l 456 58 l 456 0 l 52 0 m 254 1071 q 168 1086 205 1071 q 108 1127 132 1101 q 73 1187 85 1153 q 60 1262 61 1222 l 123 1262 q 169 1188 135 1210 q 254 1166 203 1166 q 339 1188 305 1166 q 384 1262 373 1210 l 449 1262 q 435 1187 447 1222 q 399 1127 423 1153 q 339 1086 375 1101 q 254 1071 303 1071 "},"ŧ":{"x_min":26.203125,"x_max":457.546875,"ha":489,"o":"m 368 55 q 414 57 393 55 q 457 64 435 60 l 457 6 q 434 -1 448 2 q 403 -7 420 -5 q 368 -12 387 -10 q 334 -14 350 -14 q 243 -2 281 -14 q 180 33 204 8 q 143 98 155 57 q 132 198 132 139 l 132 399 l 37 399 l 37 469 l 132 469 l 132 665 l 26 665 l 26 721 q 81 731 51 721 q 134 765 111 741 q 173 826 158 791 q 198 916 187 862 l 262 916 l 262 745 l 444 745 l 444 665 l 262 665 l 262 469 l 431 469 l 431 399 l 262 399 l 262 192 q 291 88 262 121 q 368 55 320 55 "},"À":{"x_min":0,"x_max":979,"ha":979,"o":"m 281 332 l 227 186 q 218 153 221 169 q 215 126 215 137 q 237 74 215 90 q 307 58 260 58 l 339 58 l 339 0 l 0 0 l 0 58 l 26 58 q 61 62 46 58 q 86 79 75 67 q 108 112 98 91 q 132 166 119 133 l 440 992 l 548 992 l 862 132 q 878 96 870 110 q 898 73 887 82 q 925 61 910 65 q 960 58 940 58 l 979 58 l 979 0 l 597 0 l 597 58 l 629 58 q 712 124 712 58 q 709 148 712 136 q 700 176 706 160 l 645 332 l 281 332 m 534 644 q 494 760 512 706 q 465 864 476 814 q 453 816 460 839 q 439 768 447 792 q 423 717 432 743 q 401 657 413 690 l 307 402 l 619 402 l 534 644 m 546 1071 l 493 1071 q 432 1118 465 1089 q 369 1175 400 1146 q 313 1233 339 1205 q 276 1278 288 1260 l 276 1293 l 424 1293 q 450 1242 435 1269 q 480 1187 464 1215 q 514 1134 497 1160 q 546 1089 531 1108 l 546 1071 "},"Ϊ":{"x_min":49,"x_max":456.640625,"ha":510,"o":"m 52 0 l 52 58 l 70 58 q 114 61 93 58 q 150 75 135 65 q 175 105 166 86 q 184 158 184 125 l 184 833 q 175 886 184 866 q 150 916 166 905 q 114 930 135 926 q 70 933 93 933 l 52 933 l 52 992 l 456 992 l 456 933 l 438 933 q 394 930 415 933 q 357 916 373 926 q 333 886 342 905 q 324 833 324 866 l 324 158 q 333 105 324 125 q 357 75 342 86 q 394 61 373 65 q 438 58 415 58 l 456 58 l 456 0 l 52 0 m 49 1185 q 54 1221 49 1206 q 69 1245 59 1236 q 91 1258 78 1254 q 119 1263 104 1263 q 147 1258 134 1263 q 170 1245 160 1254 q 185 1221 179 1236 q 190 1185 190 1206 q 185 1149 190 1163 q 170 1124 179 1134 q 147 1111 160 1115 q 119 1107 134 1107 q 69 1124 89 1107 q 49 1185 49 1142 m 313 1185 q 318 1221 313 1206 q 333 1245 323 1236 q 355 1258 342 1254 q 383 1263 368 1263 q 411 1258 398 1263 q 434 1245 424 1254 q 449 1221 443 1236 q 454 1185 454 1206 q 449 1149 454 1163 q 434 1124 443 1134 q 411 1111 424 1115 q 383 1107 398 1107 q 333 1124 353 1107 q 313 1185 313 1142 "},"ḁ":{"x_min":69,"x_max":722.203125,"ha":782,"o":"m 203 200 q 231 103 203 135 q 316 71 258 71 q 392 84 358 71 q 451 123 427 98 q 488 184 475 148 q 501 263 501 219 l 501 375 l 412 371 q 313 357 353 368 q 249 324 273 345 q 214 271 225 302 q 203 200 203 240 m 372 688 q 307 677 331 688 q 268 646 282 666 q 249 598 254 625 q 245 538 245 570 q 157 557 187 538 q 127 625 127 577 q 146 686 127 661 q 200 727 166 711 q 280 750 234 743 q 377 758 325 758 q 488 745 441 758 q 568 704 536 732 q 616 630 600 675 q 632 518 632 584 l 632 157 q 636 109 632 128 q 651 79 641 90 q 678 63 661 67 q 718 58 695 58 l 722 58 l 722 0 l 534 0 l 512 118 l 501 118 q 459 65 479 89 q 414 23 438 40 q 358 -4 389 5 q 284 -14 328 -14 q 198 0 238 -14 q 130 39 159 12 q 85 109 101 67 q 69 207 69 150 q 147 371 69 318 q 385 429 226 425 l 501 434 l 501 517 q 497 586 501 554 q 479 640 492 618 q 440 676 465 663 q 372 688 414 688 m 558 -236 q 545 -301 558 -273 q 509 -348 532 -329 q 456 -377 486 -367 q 391 -387 425 -387 q 325 -377 356 -387 q 272 -348 295 -367 q 236 -301 249 -329 q 224 -236 224 -273 q 236 -171 224 -199 q 272 -123 249 -142 q 325 -94 295 -104 q 391 -85 356 -85 q 456 -94 425 -85 q 509 -123 486 -104 q 545 -171 532 -142 q 558 -236 558 -199 m 482 -236 q 475 -197 482 -213 q 455 -172 468 -181 q 426 -157 443 -162 q 391 -152 410 -152 q 355 -157 371 -152 q 326 -172 338 -162 q 306 -197 313 -181 q 299 -236 299 -213 q 306 -274 299 -258 q 326 -299 313 -290 q 355 -314 338 -309 q 391 -319 371 -319 q 426 -314 410 -319 q 455 -299 443 -309 q 475 -274 468 -290 q 482 -236 482 -258 "}}}
